<svg width="45" height="31" viewBox="0 0 45 31" fill="none" xmlns="http://www.w3.org/2000/svg">
<path d="M26.5557 10.5469C26.5557 10.2361 26.6792 9.938 26.899 9.71824C27.1187 9.49847 27.4168 9.375 27.7276 9.375L43.3526 9.375C43.6634 9.375 43.9615 9.49847 44.1812 9.71824C44.401 9.938 44.5245 10.2361 44.5245 10.5469C44.5245 10.8577 44.401 11.1557 44.1812 11.3755C43.9615 11.5953 43.6634 11.7188 43.3526 11.7188L27.7276 11.7188C27.4168 11.7188 27.1187 11.5953 26.899 11.3755C26.6792 11.1557 26.5557 10.8577 26.5557 10.5469ZM43.3526 15.625L27.7276 15.625C27.4168 15.625 27.1187 15.7485 26.899 15.9682C26.6792 16.188 26.5557 16.4861 26.5557 16.7969C26.5557 17.1077 26.6792 17.4057 26.899 17.6255C27.1187 17.8453 27.4168 17.9687 27.7276 17.9687L43.3526 17.9687C43.6634 17.9687 43.9615 17.8453 44.1812 17.6255C44.401 17.4057 44.5245 17.1077 44.5245 16.7969C44.5245 16.4861 44.401 16.188 44.1812 15.9682C43.9615 15.7485 43.6634 15.625 43.3526 15.625ZM43.3526 21.875L27.7276 21.875C27.4168 21.875 27.1187 21.9985 26.899 22.2182C26.6792 22.438 26.5557 22.7361 26.5557 23.0469C26.5557 23.3577 26.6792 23.6557 26.899 23.8755C27.1187 24.0953 27.4168 24.2187 27.7276 24.2187L43.3526 24.2187C43.6634 24.2187 43.9615 24.0953 44.1812 23.8755C44.401 23.6557 44.5245 23.3577 44.5245 23.0469C44.5245 22.7361 44.401 22.438 44.1812 22.2182C43.9615 21.9985 43.6634 21.875 43.3526 21.875ZM43.3526 28.125L10.5401 28.125C10.2293 28.125 9.93123 28.2485 9.71146 28.4682C9.49169 28.688 9.36822 28.9861 9.36822 29.2969C9.36822 29.6077 9.49169 29.9057 9.71146 30.1255C9.93123 30.3453 10.2293 30.4687 10.5401 30.4687L43.3526 30.4687C43.6634 30.4687 43.9615 30.3453 44.1812 30.1255C44.401 29.9057 44.5245 29.6077 44.5245 29.2969C44.5245 28.9861 44.401 28.688 44.1812 28.4682C43.9615 28.2485 43.6634 28.125 43.3526 28.125ZM12.1026 24.2187C10.3482 24.2208 8.62117 23.7846 7.0781 22.9499C5.53504 22.1152 4.22485 20.9084 3.26645 19.439C2.30804 17.9695 1.73176 16.284 1.58991 14.5354C1.44806 12.7868 1.74513 11.0305 2.45416 9.42578C1.50481 8.85282 0.769096 7.98487 0.359376 6.95449C-0.0503437 5.92411 -0.111546 4.78794 0.185117 3.71952C0.481779 2.65109 1.12 1.70912 2.0023 1.03749C2.88461 0.365862 3.9625 0.00148065 5.07135 4.35486e-07C5.27016 -0.000173801 5.46575 0.0502354 5.63971 0.146485L19.4131 7.79883C20.1117 7.72873 20.7566 7.39261 21.2141 6.86009C21.6716 6.32757 21.9068 5.63947 21.8709 4.9383C21.835 4.23714 21.5308 3.57665 21.0213 3.09365C20.5117 2.61064 19.8359 2.34214 19.1338 2.34375C18.823 2.34375 18.525 2.22029 18.3052 2.00052C18.0854 1.78075 17.962 1.48268 17.962 1.17188C17.962 0.861075 18.0854 0.563004 18.3052 0.343234C18.525 0.123465 18.823 3.95734e-07 19.1338 3.94835e-07C20.4806 3.90942e-07 21.7723 0.535015 22.7246 1.48735C23.677 2.43968 24.212 3.73132 24.212 5.07813C24.212 6.42493 23.677 7.71657 22.7246 8.6689C21.7723 9.62123 20.4806 10.1563 19.1338 10.1563C18.935 10.1564 18.7394 10.106 18.5655 10.0098L10.6299 5.59961C8.71481 5.94864 6.98621 6.96737 5.75313 8.47372C4.52005 9.98007 3.86286 11.8758 3.89902 13.8222C3.93518 15.7685 4.66234 17.6386 5.95052 19.0981C7.2387 20.5576 9.00394 21.5114 10.9307 21.7891L10.9307 13.6719C10.9307 13.3611 11.0542 13.063 11.274 12.8432C11.4937 12.6235 11.7918 12.5 12.1026 12.5C12.4134 12.5 12.7115 12.6235 12.9312 12.8432C13.151 13.063 13.2745 13.3611 13.2745 13.6719L13.2745 21.7891C14.7551 21.5746 16.149 20.9599 17.3059 20.0113C18.4628 19.0627 19.3386 17.8162 19.8389 16.4062C19.9425 16.1131 20.1584 15.873 20.4389 15.739C20.7195 15.6049 21.0418 15.5878 21.335 15.6914C21.6282 15.795 21.8682 16.0108 22.0023 16.2914C22.1364 16.572 22.1535 16.8943 22.0499 17.1875C21.3199 19.2426 19.9721 21.0216 18.1912 22.2805C16.4103 23.5393 14.2835 24.2164 12.1026 24.2187ZM3.63385 7.40234C4.71604 5.94053 6.15606 4.78165 7.81549 4.03711L4.79205 2.35742C4.22437 2.41606 3.68926 2.65085 3.26172 3.02888C2.83417 3.40692 2.53563 3.90926 2.40794 4.46549C2.28024 5.02173 2.32978 5.60398 2.54962 6.13064C2.76946 6.6573 3.14858 7.10198 3.63385 7.40234Z" fill="#327153"/>
</svg>
