<svg width="152" height="119" viewBox="0 0 152 119" fill="none" xmlns="http://www.w3.org/2000/svg">
<path d="M149.853 3.10231H90.1409C90.075 3.05319 90.0259 2.98733 89.9445 2.97059C89.4355 2.83886 77.2277 0 69.549 0C61.3937 0 26.7055 3.10118 26.7055 3.10118C25.8528 3.10118 24.0146 3.65932 24.0146 4.49654V12.2761L3.65138 16.855C1.02522 17.4299 -0.45126 20.0399 0.12332 22.6641L18.763 106.921C19.3378 109.547 21.9951 111.221 24.6371 110.646L74.7494 99.6335C77.3755 99.0587 79.0486 96.4486 78.4737 93.8064L78.3744 93.3632H118.312C121.348 106.197 123.858 116.8 123.858 116.8C124.22 118.343 125.762 119.295 127.304 118.917C128.831 118.556 129.783 117.013 129.422 115.488C129.422 115.488 127.074 105.592 124.188 93.3656H149.852C150.704 93.3656 152 92.5283 152 91.6755V4.4812C152.001 3.64398 150.705 3.10147 149.853 3.10147L149.853 3.10231ZM28.9371 11.193L25.6559 11.9153V6.12184C25.6559 5.28462 27.9037 4.74435 28.7565 4.74435H28.9373L28.9371 11.193ZM78.015 91.726L77.9156 91.2672C78.9491 91.4146 79.967 91.563 80.9514 91.726H78.015ZM88.0074 91.563C84.7262 90.8732 74.1915 88.8058 67.4157 88.8058C60.2124 88.8058 35.5009 91.169 30.5779 91.6781V4.4981C35.5009 4.05492 61.5727 1.62581 68.9243 1.62581C75.4221 1.62581 84.8239 3.79253 88.1546 4.39867L88.0074 91.563ZM127.357 113.882L124.994 114.44L109.47 48.8247L109.552 45.4266C109.798 45.6889 110.01 45.7882 110.126 45.7548C110.226 45.7391 110.323 45.623 110.422 45.4266L111.817 48.2497L127.357 113.882ZM149.854 91.7262H123.797C119.17 72.1801 113.362 47.6433 113.344 47.6118L109.602 40.0624C109.437 39.7185 109.06 39.5377 108.683 39.6192C108.256 39.685 108.059 40.0289 108.044 40.4062L107.814 48.891C107.814 48.9245 113.36 72.3933 117.939 91.7251H89.6495V4.74229H149.853C150.706 4.74229 150.362 5.28368 150.362 6.11978V90.0334C150.36 90.8863 150.706 91.7235 149.853 91.7235L149.854 91.7262Z" fill="black" fill-opacity="0.7"/>
</svg>
