<svg width="50" height="43" viewBox="0 0 50 43" fill="none" xmlns="http://www.w3.org/2000/svg">
<path d="M20.9356 3.42717C21.6347 3.6973 22.3607 4.01923 23.1035 4.38315C25.1047 5.36431 27.2521 6.70137 29.4784 8.52233C29.7933 8.77952 30.107 9.04475 30.4252 9.3205C30.4517 9.34429 30.4399 9.30055 30.3958 9.21657C30.3261 9.08045 30.1552 8.81381 29.8714 8.45059C28.9229 7.23151 26.6861 4.9399 22.5522 2.82217C21.4164 2.23955 20.1554 1.67063 18.7203 1.14328C18.7203 1.14328 19.9157 0.659695 21.7712 0.322018C22.5098 0.1873 23.3551 0.0770732 24.2747 0.0273837C25.2757 -0.0279036 26.3615 -0.0041084 27.4928 0.141454C28.8386 0.317817 30.244 0.674726 31.6392 1.2972C33.6929 2.21153 35.7223 3.70222 37.4921 6.05501C42.6615 12.9246 48.4038 18.0353 49.9839 17.5919C50.6264 17.412 31.8498 23.4562 24.752 16.0183C17.6542 8.584 16.3907 3.17361 10.722 2.12016C10.3815 2.05718 14.6829 1.00007 20.9356 3.42784L20.9356 3.42717Z" fill="#7D3A88"/>
<path d="M5.52852 27.2666C6.01182 27.1105 6.53543 26.9678 7.09265 26.8373C8.5925 26.4859 10.3683 26.2431 12.4598 26.1924C12.7566 26.1843 13.0548 26.1815 13.3634 26.1822C13.389 26.1822 13.3584 26.1665 13.2887 26.1451C13.1778 26.1101 12.9448 26.0555 12.6009 26.0003C11.4528 25.8162 9.08133 25.6521 5.93038 26.3334C5.06288 26.5213 4.14578 26.7648 3.17253 27.0972C3.17253 27.0972 3.44673 26.3915 4.11519 25.4855C4.38183 25.1251 4.70934 24.7325 5.10825 24.3396C5.54158 23.9088 6.05932 23.4833 6.6698 23.0942C7.39917 22.6334 8.25909 22.2341 9.26856 21.9605C10.7554 21.5571 12.5647 21.4332 14.7524 21.8136C21.1454 22.9249 26.7841 22.9851 27.2593 22.1411C27.4545 21.7985 22.2293 32.1802 14.6116 31.5827C6.99518 30.9857 3.26678 28.9807 0.0172632 30.7765C-0.175053 30.8846 1.2127 28.6591 5.52801 27.2668L5.52852 27.2666Z" fill="#7D3A88"/>
<path d="M46.2146 42.9948C44.548 41.1199 41.4429 41.7163 36.125 40.5668C30.8036 39.418 30.3221 31.3437 30.3523 31.6144C30.4262 32.281 34.2522 33.3895 38.8942 33.9407C40.4852 34.1307 41.6701 34.5828 42.5556 35.1567C43.1561 35.5472 43.6201 35.9923 43.977 36.4531C44.2764 36.8401 44.4998 37.2334 44.6665 37.6121C44.8223 37.9582 44.9281 38.2899 45.0028 38.5874C45.1876 39.3348 45.1653 39.8688 45.1653 39.8688C44.6056 39.4447 44.0576 39.0941 43.5274 38.7903C41.6 37.6881 39.9499 37.3154 39.1219 37.2059C38.8724 37.1737 38.6994 37.1635 38.6138 37.1642C38.5605 37.1635 38.5348 37.1691 38.5529 37.1737C38.7612 37.236 38.9631 37.2989 39.1601 37.3651C40.5583 37.8259 41.6857 38.3512 42.5957 38.8942C42.9345 39.0947 43.2456 39.2983 43.5253 39.5027C46.0309 41.3222 46.3155 43.1079 46.2148 42.9948L46.2146 42.9948Z" fill="#7D3A88"/>
</svg>
