<svg width="15" height="16" viewBox="0 0 15 16" fill="none" xmlns="http://www.w3.org/2000/svg">
<path d="M7.2 9.6C6.97333 9.6 6.78347 9.5232 6.6304 9.3696C6.4768 9.21653 6.4 9.02667 6.4 8.8C6.4 8.57333 6.4768 8.3832 6.6304 8.2296C6.78347 8.07653 6.97333 8 7.2 8C7.42667 8 7.6168 8.07653 7.7704 8.2296C7.92347 8.3832 8 8.57333 8 8.8C8 9.02667 7.92347 9.21653 7.7704 9.3696C7.6168 9.5232 7.42667 9.6 7.2 9.6ZM4 9.6C3.77333 9.6 3.5832 9.5232 3.4296 9.3696C3.27653 9.21653 3.2 9.02667 3.2 8.8C3.2 8.57333 3.27653 8.3832 3.4296 8.2296C3.5832 8.07653 3.77333 8 4 8C4.22667 8 4.4168 8.07653 4.5704 8.2296C4.72347 8.3832 4.8 8.57333 4.8 8.8C4.8 9.02667 4.72347 9.21653 4.5704 9.3696C4.4168 9.5232 4.22667 9.6 4 9.6ZM10.4 9.6C10.1733 9.6 9.98347 9.5232 9.8304 9.3696C9.6768 9.21653 9.6 9.02667 9.6 8.8C9.6 8.57333 9.6768 8.3832 9.8304 8.2296C9.98347 8.07653 10.1733 8 10.4 8C10.6267 8 10.8165 8.07653 10.9696 8.2296C11.1232 8.3832 11.2 8.57333 11.2 8.8C11.2 9.02667 11.1232 9.21653 10.9696 9.3696C10.8165 9.5232 10.6267 9.6 10.4 9.6ZM7.2 12.8C6.97333 12.8 6.78347 12.7232 6.6304 12.5696C6.4768 12.4165 6.4 12.2267 6.4 12C6.4 11.7733 6.4768 11.5835 6.6304 11.4304C6.78347 11.2768 6.97333 11.2 7.2 11.2C7.42667 11.2 7.6168 11.2768 7.7704 11.4304C7.92347 11.5835 8 11.7733 8 12C8 12.2267 7.92347 12.4165 7.7704 12.5696C7.6168 12.7232 7.42667 12.8 7.2 12.8ZM4 12.8C3.77333 12.8 3.5832 12.7232 3.4296 12.5696C3.27653 12.4165 3.2 12.2267 3.2 12C3.2 11.7733 3.27653 11.5835 3.4296 11.4304C3.5832 11.2768 3.77333 11.2 4 11.2C4.22667 11.2 4.4168 11.2768 4.5704 11.4304C4.72347 11.5835 4.8 11.7733 4.8 12C4.8 12.2267 4.72347 12.4165 4.5704 12.5696C4.4168 12.7232 4.22667 12.8 4 12.8ZM10.4 12.8C10.1733 12.8 9.98347 12.7232 9.8304 12.5696C9.6768 12.4165 9.6 12.2267 9.6 12C9.6 11.7733 9.6768 11.5835 9.8304 11.4304C9.98347 11.2768 10.1733 11.2 10.4 11.2C10.6267 11.2 10.8165 11.2768 10.9696 11.4304C11.1232 11.5835 11.2 11.7733 11.2 12C11.2 12.2267 11.1232 12.4165 10.9696 12.5696C10.8165 12.7232 10.6267 12.8 10.4 12.8ZM1.6 16C1.16 16 0.7832 15.8435 0.4696 15.5304C0.156533 15.2168 0 14.84 0 14.4V3.2C0 2.76 0.156533 2.38347 0.4696 2.0704C0.7832 1.7568 1.16 1.6 1.6 1.6H2.4V0H4V1.6H10.4V0H12V1.6H12.8C13.24 1.6 13.6168 1.7568 13.9304 2.0704C14.2435 2.38347 14.4 2.76 14.4 3.2V14.4C14.4 14.84 14.2435 15.2168 13.9304 15.5304C13.6168 15.8435 13.24 16 12.8 16H1.6ZM1.6 14.4H12.8V6.4H1.6V14.4Z" fill="#AAAAAA"/>
</svg>
