<svg width="23" height="19" viewBox="0 0 23 19" fill="none" xmlns="http://www.w3.org/2000/svg">
<path d="M6.70822 2.6534L6.70825 2.65342L6.71108 2.64757L7.40606 1.21128C7.60852 0.850292 8.09596 0.546875 8.50375 0.546875H13.6901C14.0979 0.546875 14.5853 0.850286 14.7878 1.21127L15.4828 2.64757L15.4827 2.64759L15.4856 2.6534C15.5648 2.8118 15.7047 2.92924 15.8074 2.99767C15.9121 3.06749 16.0931 3.16341 16.3066 3.16341H20.2314C21.03 3.16341 21.6938 3.82731 21.6938 4.62582V16.3419C21.6531 17.1571 20.976 17.8159 20.1847 17.8159H1.9624C1.1639 17.8159 0.5 17.152 0.5 16.3535V4.62582C0.5 3.82731 1.1639 3.16341 1.9624 3.16341H5.88721C6.01031 3.16341 6.11591 3.124 6.16742 3.10298C6.23289 3.07625 6.29679 3.04248 6.35368 3.00748C6.41051 2.9725 6.47075 2.92989 6.52593 2.88144C6.57191 2.84107 6.6531 2.76362 6.70822 2.6534ZM14.4672 1.41771L14.4673 1.41769L14.4644 1.41188C14.3852 1.25348 14.2453 1.13604 14.1427 1.06761C14.0379 0.997792 13.8569 0.901868 13.6434 0.901868H8.45702C8.33392 0.901868 8.22832 0.941285 8.17682 0.962306C8.11135 0.989029 8.04745 1.0228 7.99056 1.05781C7.93372 1.09278 7.87348 1.13539 7.81831 1.18384C7.77232 1.22422 7.69113 1.30166 7.63602 1.41188L7.63598 1.41186L7.63315 1.41771L6.93817 2.854C6.73571 3.21499 6.24827 3.51841 5.84049 3.51841H1.9624C1.31247 3.51841 0.808269 4.02261 0.808269 4.67254V16.4002C0.808269 17.0502 1.31247 17.5544 1.9624 17.5544H20.1847C20.8347 17.5544 21.3389 17.0502 21.3389 16.4002V4.67254C21.3389 4.02261 20.8347 3.51841 20.1847 3.51841H16.2599C15.8521 3.51841 15.3647 3.21499 15.1622 2.854L14.4672 1.41771Z" fill="#71C19A" stroke="#71C19A"/>
<path d="M11.0737 15.1999C8.12592 15.1999 5.73324 12.8072 5.73324 9.85937C5.73324 6.91156 8.12592 4.51888 11.0737 4.51888C14.0215 4.51888 16.4142 6.91156 16.4142 9.85937C16.4142 12.8072 14.0215 15.1999 11.0737 15.1999ZM11.0737 4.78043C8.27449 4.78043 5.99478 7.06014 5.99478 9.85937C5.99478 12.6586 8.27449 14.9383 11.0737 14.9383C13.873 14.9383 16.1527 12.6586 16.1527 9.85937C16.1527 7.06014 13.873 4.78043 11.0737 4.78043ZM17.7225 5.28043C17.7225 5.33895 17.7021 5.37402 17.682 5.39411C17.6619 5.4142 17.6269 5.43456 17.5683 5.43456C17.5098 5.43456 17.4747 5.4142 17.4547 5.39411C17.4346 5.37402 17.4142 5.33895 17.4142 5.28043C17.4142 5.22191 17.4346 5.18683 17.4547 5.16674C17.4747 5.14665 17.5098 5.12629 17.5683 5.12629C17.6035 5.12629 17.6403 5.14066 17.6735 5.17554C17.71 5.21387 17.7225 5.25675 17.7225 5.28043Z" fill="#71C19A" stroke="#71C19A"/>
</svg>
