<svg width="36" height="36" viewBox="0 0 36 36" fill="none" xmlns="http://www.w3.org/2000/svg">
<circle cx="17.9898" cy="17.9898" r="17.9898" fill="#71C19A"/>
<path d="M18.3537 19.9982L18 19.6441L17.6463 19.9982L12.3776 25.272C12.2203 25.4294 12.0346 25.5 11.81 25.5C11.5853 25.5 11.3997 25.4294 11.2424 25.272C10.9192 24.9485 10.9192 24.4579 11.2424 24.1344L16.5111 18.8606L16.8642 18.5072L16.5111 18.1538L11.2424 12.88C10.9192 12.5565 10.9192 12.0659 11.2424 11.7424C11.5653 11.4192 12.0546 11.4192 12.3776 11.7424L17.6463 17.0162L18 17.3703L18.3537 17.0162L23.6224 11.7424C23.9454 11.4192 24.4347 11.4192 24.7576 11.7424C25.0808 12.0659 25.0808 12.5565 24.7576 12.88L19.4889 18.1538L19.1358 18.5072L19.4889 18.8606L24.7576 24.1344C25.0808 24.4579 25.0808 24.9485 24.7576 25.272C24.6003 25.4294 24.4147 25.5 24.19 25.5C23.9654 25.5 23.7797 25.4294 23.6224 25.272L18.3537 19.9982Z" fill="white" stroke="white"/>
</svg>
