<svg width="28" height="22" viewBox="0 0 28 22" fill="none" xmlns="http://www.w3.org/2000/svg">
<path d="M20.5162 2.66738C18.6463 2.66738 17.097 4.16481 17.097 6.02877C17.097 7.89273 18.6463 9.39016 20.5162 9.39016C22.3862 9.39016 23.9355 7.89272 23.9355 6.02877C23.9355 4.16481 22.3862 2.66738 20.5162 2.66738Z" stroke="black" stroke-width="1.3"/>
<path d="M11.2854 0.859766C8.9061 0.859766 6.94314 2.7622 6.94314 5.12495C6.94314 7.4877 8.9061 9.39013 11.2854 9.39013C13.6648 9.39013 15.6278 7.4877 15.6278 5.12495C15.6278 2.7622 13.6648 0.859766 11.2854 0.859766Z" stroke="black" stroke-width="1.3"/>
<path d="M24.6286 11.3273L24.6286 11.3273C23.3428 10.4418 21.5526 9.89785 19.5932 9.89785C17.6338 9.89785 15.8436 10.4418 14.5578 11.3273L14.5578 11.3273C13.2785 12.2085 12.4817 13.4243 12.4817 14.7552V18.682V19.332H13.1317H24.9778C25.9316 19.332 26.7047 18.5588 26.7047 17.6051V14.7552C26.7047 13.4243 25.9079 12.2085 24.6286 11.3273Z" stroke="black" stroke-width="1.3"/>
<path d="M4.31185 12.3391L4.31184 12.3391C2.56913 13.2727 1.40469 14.5977 1.40469 16.126V19.4122C1.40469 20.366 2.17786 21.1391 3.13161 21.1391H19.4393C20.3931 21.1391 21.1662 20.366 21.1662 19.4122V16.126C21.1662 14.5977 20.0018 13.2727 18.2591 12.3391L17.9531 12.9102L18.2591 12.3391C16.4851 11.3887 14.0073 10.8012 11.2855 10.8012C8.5636 10.8012 6.08584 11.3887 4.31185 12.3391Z" fill="white" stroke="black" stroke-width="1.3"/>
</svg>
