<svg width="17" height="17" viewBox="0 0 17 17" fill="none" xmlns="http://www.w3.org/2000/svg">
<path d="M6.16918 2.98111C6.00863 3.55698 5.92788 4.15217 5.92918 4.75C5.92918 8.37666 8.88029 11.3278 12.507 11.3278C13.1114 11.3278 13.707 11.2478 14.2758 11.0878C13.8089 12.2351 13.0108 13.2173 11.9834 13.9091C10.9559 14.601 9.74564 14.9711 8.50696 14.9722C5.07585 14.9722 2.28474 12.1811 2.28474 8.75C2.28474 6.14555 3.89363 3.90555 6.16918 2.98111ZM8.50696 0.75C6.92471 0.75 5.37799 1.21919 4.0624 2.09824C2.74681 2.97729 1.72143 4.22672 1.11593 5.68853C0.510424 7.15034 0.351998 8.75887 0.660679 10.3107C0.969361 11.8626 1.73129 13.288 2.85011 14.4068C3.96893 15.5257 5.39439 16.2876 6.94624 16.5963C8.49809 16.905 10.1066 16.7465 11.5684 16.141C13.0302 15.5355 14.2797 14.5101 15.1587 13.1946C16.0378 11.879 16.507 10.3322 16.507 8.75C16.507 8.34111 16.4714 7.93222 16.4181 7.54111C15.9739 8.16392 15.3871 8.6713 14.7066 9.0208C14.0262 9.3703 13.2719 9.55176 12.507 9.55C11.4894 9.55002 10.4981 9.22683 9.67602 8.62703C8.85399 8.02723 8.24371 7.18183 7.93321 6.21276C7.62272 5.24369 7.62805 4.20105 7.94844 3.23521C8.26883 2.26936 8.88772 1.43025 9.71585 0.838889C9.32474 0.785555 8.91585 0.75 8.50696 0.75Z" fill="#3BCD84"/>
</svg>
