<svg width="249" height="185" viewBox="0 0 249 185" fill="none" xmlns="http://www.w3.org/2000/svg">
<path opacity="0.3" d="M196.287 25.4589C222.384 33.8934 242.625 57.6099 247.877 87.2771C252.301 112.287 244.962 143.007 202.083 157.28C158.315 171.837 35.9206 178.84 13.2131 138.306C-9.49435 97.7727 -4.78555 45.7861 41.8799 27.3131C74.5828 14.4286 145.318 8.97814 196.287 25.4589Z" fill="#E6E6E6"/>
<path d="M128.51 164.67H200.375V182.315H128.51V164.67Z" fill="#C9C9C9"/>
<path d="M140.894 147.025H205.653V164.67H140.894V147.025Z" fill="#E6E6E6"/>
<path d="M68.2181 176.684C68.2181 176.684 67.1745 179.857 64.5442 180.133C61.9138 180.409 61.2325 183.178 63.5955 183.911C65.9585 184.644 72.0472 181.323 72.0472 181.323L71.8747 177.184L68.2181 176.684Z" fill="#71C19A"/>
<path d="M104.293 176.684C104.293 176.684 105.345 179.857 107.967 180.133C110.589 180.409 111.279 183.178 108.916 183.911C106.553 184.644 100.473 181.323 100.473 181.323L100.636 177.184L104.293 176.684Z" fill="#71C19A"/>
<path d="M77.9032 115.632L67.6577 177.252H72.7805L85.6219 143.799C89.9558 132.214 97.9609 122.364 108.416 115.753L112.184 113.416L77.9032 115.632Z" fill="#24285B"/>
<path d="M112.176 113.416L106.88 177.235H100.076C100.076 177.235 101.663 129.207 89.382 118.979L112.176 113.416Z" fill="#24285B"/>
<path d="M113.823 59.999C113.823 59.999 140.17 88.5451 158.479 97.2382L155.029 106.009C155.029 106.009 110.675 90.7615 102.284 78.9032C93.8923 67.045 113.823 59.999 113.823 59.999Z" fill="#71C19A"/>
<path opacity="0.46" d="M113.823 59.999C113.823 59.999 140.17 88.5451 158.479 97.2382L155.029 106.009C155.029 106.009 110.675 90.7615 102.284 78.9032C93.8923 67.045 113.823 59.999 113.823 59.999Z" fill="white"/>
<path d="M89.8389 34.2894C89.8389 34.2894 90.822 39.0413 90.3994 42.3357C90.357 42.6542 90.2521 42.9612 90.0907 43.2391C89.9294 43.517 89.7147 43.7602 89.4591 43.9549C89.2035 44.1497 88.912 44.292 88.6012 44.3737C88.2905 44.4555 87.9667 44.4751 87.6483 44.4314C86.6137 44.3549 85.623 43.9813 84.7954 43.3557C83.9678 42.73 83.3384 41.8787 82.9826 40.9041L81.0422 36.8594C80.7376 36.0087 80.7051 35.0844 80.9493 34.2144C81.1934 33.3444 81.7021 32.572 82.4048 32.004C84.8886 29.7272 89.3818 31.3572 89.8389 34.2894Z" fill="#F4A28C"/>
<path d="M81.3958 37.5928L80.7662 53.4958L89.5542 53.2198L86.484 41.7583L81.3958 37.5928Z" fill="#F4A28C"/>
<path d="M88.666 34.6348C87.1829 34.8657 85.6783 34.9265 84.1814 34.8159C84.6885 35.4214 85.0076 36.1619 85.0995 36.9464C85.1915 37.7309 85.0522 38.5251 84.6989 39.2315C84.3707 39.9218 83.8127 40.4766 83.1204 40.8007C82.4281 41.1248 81.6446 41.1981 80.9042 41.008L80.2488 34.7986C80.1246 33.9146 80.2418 33.0134 80.588 32.1906C80.9341 31.3677 81.4963 30.6538 82.2151 30.1243C82.837 29.663 83.488 29.2424 84.1642 28.8652C85.889 27.9424 88.6143 28.8652 90.0717 27.425C90.2199 27.2874 90.4009 27.1902 90.5975 27.1426C90.794 27.095 90.9994 27.0986 91.1941 27.1531C91.3888 27.2077 91.5663 27.3112 91.7095 27.454C91.8528 27.5967 91.957 27.7738 92.0122 27.9683C92.5124 29.8225 92.5296 32.8323 90.0976 34.1604C89.6498 34.3964 89.1661 34.5567 88.666 34.6348Z" fill="#24285B"/>
<path d="M85.1991 39.0241C85.1991 39.0241 84.949 37.1699 83.5691 37.4804C82.1892 37.7908 82.5428 40.4643 84.4315 40.4902L85.1991 39.0241Z" fill="#F4A28C"/>
<path d="M90.3047 37.3174L91.8743 39.0422C91.9609 39.1397 92.0218 39.2573 92.0516 39.3842C92.0813 39.5112 92.079 39.6436 92.0448 39.7694C92.0105 39.8952 91.9454 40.0106 91.8555 40.105C91.7655 40.1993 91.6534 40.2698 91.5293 40.31L89.7269 40.8792L90.3047 37.3174Z" fill="#F4A28C"/>
<path opacity="0.31" d="M87.2605 44.2427C86.1434 44.0966 85.0939 43.6258 84.242 42.8887C84.242 42.8887 84.7077 45.7691 88.2177 48.2443L87.2605 44.2427Z" fill="#CE8172"/>
<path d="M112.175 114.012L97.3936 115.099L77.903 116.548C77.4804 115.944 60.8271 91.9169 61.1634 73.5646C61.3446 63.8711 66.2603 55.7729 80.7835 53.5134L86.76 53.3237C88.2179 53.2765 89.672 53.1469 91.1152 52.9356C95.7292 52.237 109.588 51.3832 117.117 64.492C126.198 80.3691 112.175 114.012 112.175 114.012Z" fill="#71C19A"/>
<path opacity="0.08" d="M97.7386 115.279L77.903 116.556C77.4804 115.952 60.8271 91.9251 61.1634 73.5728C72.3749 68.3983 90.4857 66.6045 90.4857 66.6045C90.4857 66.6045 94.1854 70.4164 89.7871 75.6771C84.3797 82.1453 82.4738 90.9937 85.6992 98.7899C87.7863 103.809 90.7616 111.778 97.3764 115.116L97.7386 115.279Z" fill="black"/>
<path d="M88.9507 60.2489C87.1794 57.9257 84.7116 56.2299 81.9078 55.4091C79.1041 54.5883 76.1114 54.6856 73.3668 55.6867C63.0178 59.352 45.3296 68.1055 43.4237 85.4574C40.7243 110.105 80.1282 115.513 80.1282 115.513L81.4046 109.243C81.4046 109.243 40.5863 86.4233 80.1282 74.9272C80.1282 74.9272 95.9449 69.701 88.9507 60.2489Z" fill="#71C19A"/>
<path opacity="0.46" d="M88.9507 60.2489C87.1794 57.9257 84.7116 56.2299 81.9078 55.4091C79.1041 54.5883 76.1114 54.6856 73.3668 55.6867C63.0178 59.352 45.3296 68.1055 43.4237 85.4574C40.7243 110.105 80.1282 115.513 80.1282 115.513L81.4046 109.243C81.4046 109.243 40.5863 86.4233 80.1282 74.9272C80.1282 74.9272 95.9449 69.701 88.9507 60.2489Z" fill="white"/>
<path d="M81.4561 110.156C81.4561 110.156 88.2089 110.277 87.0187 114.468C85.8286 118.66 80.1194 115.477 80.1194 115.477L81.4561 110.156Z" fill="#F4A28C"/>
<path d="M157.91 98.6605C157.979 98.5052 164.533 97.798 164.947 98.2292C165.878 99.221 163.49 99.6264 163.49 99.6264C163.49 99.6264 167.043 99.6264 167.552 100.273C168.06 100.92 167.336 102.688 164.214 103.783C161.092 104.878 155.771 104.059 155.771 104.059L157.91 98.6605Z" fill="#F4A28C"/>
<path d="M161.48 100.627C169.748 100.627 176.451 96.0397 176.451 90.3813C176.451 84.7228 169.748 80.1357 161.48 80.1357C153.211 80.1357 146.508 84.7228 146.508 90.3813C146.508 96.0397 153.211 100.627 161.48 100.627Z" fill="#C9C9C9"/>
<path d="M161.48 73.5125C181.78 73.5125 198.236 57.0562 198.236 36.7563C198.236 16.4563 181.78 0 161.48 0C141.18 0 124.724 16.4563 124.724 36.7563C124.724 57.0562 141.18 73.5125 161.48 73.5125Z" fill="#FFD200"/>
<path d="M144.922 69.666H178.038V92.9858H144.922V69.666Z" fill="#24285B"/>
<path d="M153.735 69.6662C153.735 67.881 146.508 32.9014 146.508 32.9014H175.529L167.698 69.6662" stroke="#24285B" stroke-width="0.862418" stroke-miterlimit="10"/>
<path opacity="0.58" d="M186.766 138.271C186.766 138.271 179.867 136.383 178.358 129.958C178.358 129.958 189.06 127.793 189.362 138.841L186.766 138.271Z" fill="#71C19A"/>
<path opacity="0.73" d="M187.611 137.59C187.611 137.59 182.791 129.957 187.034 122.825C187.034 122.825 195.175 128 191.561 137.598L187.611 137.59Z" fill="#71C19A"/>
<path d="M188.853 137.589C188.853 137.589 191.44 129.534 199.116 128.008C199.116 128.008 200.565 133.243 194.122 137.615L188.853 137.589Z" fill="#71C19A"/>
<path d="M183.851 137.409L185.248 146.991L194.062 147.025L195.365 137.461L183.851 137.409Z" fill="#24285B"/>
</svg>
