<svg width="131" height="83" viewBox="0 0 131 83" fill="none" xmlns="http://www.w3.org/2000/svg">
<path d="M43.5218 81.5767C16.289 78.3483 1.96962 61.2023 0.958008 39.6179C5.79956 38.6094 12.658 39.416 15.8851 39.8198C17.7011 57.3695 27.5851 73.5068 43.5196 81.5753L43.5218 81.5767Z" fill="white"/>
<path d="M52.5996 80.7673C34.0412 75.523 19.5176 56.7628 19.7209 33.7676C19.7209 23.2781 22.1416 16.4197 23.1501 13.7971C36.6651 12.9905 43.1205 20.4537 44.5319 22.0678C33.4377 47.8873 39.8924 70.0767 52.6006 80.7685L52.5996 80.7673Z" fill="white"/>
<path d="M75.7969 78.3478C60.2651 91.8628 36.8656 66.6478 44.5299 35.3823C49.3715 15.0089 61.8778 3.30941 65.5088 0.0810547C86.2859 14.8063 99.6 57.5717 75.7964 78.3478H75.7969Z" fill="white"/>
<path d="M79.6318 80.3653C95.3655 65.4382 95.3655 41.8381 86.8939 21.8679C88.9109 19.6491 95.3665 13.3953 107.873 14.0011C118.159 38.2064 106.662 71.4893 79.6309 80.366L79.6318 80.3653Z" fill="white"/>
<path d="M130.061 39.6176C129.859 44.0552 128.245 57.9739 117.554 68.6654C110.292 75.9275 100.206 80.1633 87.4969 81.5756C102.626 73.9106 113.316 58.1759 115.131 39.8201C118.964 39.2145 125.62 38.6088 130.059 39.6173L130.061 39.6176Z" fill="white"/>
</svg>
