<svg width="25" height="24" viewBox="0 0 25 24" fill="none" xmlns="http://www.w3.org/2000/svg">
<path fill-rule="evenodd" clip-rule="evenodd" d="M24.4658 8.89685L17.3368 1.88257C14.773 -0.627524 10.6296 -0.627524 8.06575 1.88257L0.936782 8.89685C0.707138 9.12115 0.638151 9.45982 0.762205 9.75387C0.88626 10.0479 1.17872 10.239 1.5023 10.2373H2.71046V17.8839C2.71517 20.9829 5.26734 23.4941 8.41706 23.4987H9.64235C10.0838 23.4941 10.4392 23.1406 10.4392 22.7062V16.2652H14.9634V22.7062C14.9633 23.1406 15.3188 23.4941 15.7602 23.4987H16.9855C20.1352 23.4941 22.6874 20.9829 22.6921 17.8839V10.2373H23.9003C24.2239 10.239 24.5163 10.0479 24.6404 9.75387C24.7644 9.45982 24.6955 9.12115 24.4658 8.89685ZM9.13393 3.03137C10.0796 2.1652 11.363 1.67848 12.7013 1.67848C14.0396 1.67848 15.323 2.1652 16.2686 3.03137L22.1298 8.39239H3.27269L9.13393 3.03137ZM17.0789 21.8202C19.3931 21.8156 21.2679 20.0003 21.2727 17.7597V10.0709H4.12986V17.7597C4.13468 20.0003 6.00948 21.8156 8.32364 21.8202H8.75265V15.3352C8.75745 14.8984 9.12452 14.5468 9.57565 14.5468H15.8269C16.2781 14.5468 16.6451 14.8984 16.6499 15.3352V21.8202H17.0789Z" fill="black"/>
<path d="M24.4658 8.89685L17.3368 1.88257C14.773 -0.627524 10.6296 -0.627524 8.06575 1.88257L0.936782 8.89685C0.707138 9.12115 0.638151 9.45982 0.762205 9.75387C0.88626 10.0479 1.17872 10.239 1.5023 10.2373H2.71046V17.8839C2.71517 20.9829 5.26734 23.4941 8.41706 23.4987H9.64235C10.0838 23.4941 10.4392 23.1406 10.4392 22.7062V16.2652H14.9634V22.7062C14.9633 23.1406 15.3188 23.4941 15.7602 23.4987H16.9855C20.1352 23.4941 22.6874 20.9829 22.6921 17.8839V10.2373H23.9003C24.2239 10.239 24.5163 10.0479 24.6404 9.75387C24.7644 9.45982 24.6955 9.12115 24.4658 8.89685Z" fill="black"/>
</svg>
