<svg width="25" height="24" viewBox="0 0 25 24" fill="none" xmlns="http://www.w3.org/2000/svg">
<path d="M24.4658 8.89685L17.3368 1.88257C14.773 -0.627524 10.6296 -0.627524 8.06575 1.88257L0.936782 8.89685C0.707138 9.12115 0.638151 9.45982 0.762205 9.75387C0.88626 10.0479 1.17872 10.239 1.5023 10.2373H2.71046V17.8839C2.71517 20.9829 5.26734 23.4941 8.41706 23.4987H9.64235C10.0838 23.4941 10.4392 23.1406 10.4392 22.7062V16.2652H14.9634V22.7062C14.9633 23.1406 15.3188 23.4941 15.7602 23.4987H16.9855C20.1352 23.4941 22.6874 20.9829 22.6921 17.8839V10.2373H23.9003C24.2239 10.239 24.5163 10.0479 24.6404 9.75387C24.7644 9.45982 24.6955 9.12115 24.4658 8.89685Z" fill="#3BCD84"/>
</svg>
