<svg width="25" height="15" viewBox="0 0 25 15" fill="none" xmlns="http://www.w3.org/2000/svg">
<path d="M19.1627 12.75V14.75L7.16266 14.75V12.75C7.16266 12.75 7.16266 8.75 13.1627 8.75C19.1627 8.75 19.1627 12.75 19.1627 12.75ZM16.1627 3.75C16.1627 3.15666 15.9867 2.57664 15.6571 2.08329C15.3274 1.58994 14.8589 1.20543 14.3107 0.978363C13.7625 0.7513 13.1593 0.69189 12.5774 0.807646C11.9954 0.923401 11.4609 1.20912 11.0413 1.62868C10.6218 2.04824 10.3361 2.58279 10.2203 3.16473C10.1045 3.74667 10.164 4.34987 10.391 4.89805C10.6181 5.44623 11.0026 5.91477 11.4959 6.24441C11.9893 6.57405 12.5693 6.75 13.1627 6.75C13.9583 6.75 14.7214 6.43393 15.284 5.87132C15.8466 5.30871 16.1627 4.54565 16.1627 3.75ZM19.3627 8.81C19.9093 9.3143 20.35 9.92244 20.659 10.5989C20.9681 11.2754 21.1393 12.0066 21.1627 12.75V14.75H24.1627V12.75C24.1627 12.75 24.1627 9.3 19.3627 8.81ZM18.1627 0.750001C17.8605 0.750182 17.5603 0.797414 17.2727 0.890001C17.8577 1.72897 18.1714 2.72718 18.1714 3.75C18.1714 4.77282 17.8577 5.77103 17.2727 6.61C17.5603 6.70259 17.8605 6.74982 18.1627 6.75C18.9583 6.75 19.7214 6.43393 20.284 5.87132C20.8466 5.30871 21.1627 4.54565 21.1627 3.75C21.1627 2.95435 20.8466 2.19129 20.284 1.62868C19.7214 1.06607 18.9583 0.750001 18.1627 0.750001ZM8.16266 5.75H5.16266V2.75L3.16266 2.75L3.16266 5.75H0.162659L0.162659 7.75H3.16266V10.75H5.16266L5.16266 7.75H8.16266V5.75Z" fill="#3BCD84"/>
</svg>
