<svg width="20" height="20" viewBox="0 0 20 20" fill="none" xmlns="http://www.w3.org/2000/svg">
<path d="M16.5287 0.945898H16.5288C18.0967 0.947632 19.3673 2.21821 19.369 3.78614V3.78625V13.8985V16.5746V16.5747C19.3681 17.4821 18.9349 18.2803 18.2743 18.7994C18.2738 18.8002 18.2733 18.8011 18.2727 18.8019C18.2689 18.8078 18.2634 18.8152 18.2558 18.8228C18.24 18.8386 18.223 18.8483 18.2155 18.8526L18.2152 18.8528L18.2075 18.8571L18.2026 18.8615C18.1992 18.8646 18.1929 18.8702 18.1851 18.8758C18.185 18.8759 18.1849 18.8759 18.1848 18.876L16.5287 0.945898ZM16.5287 0.945898L3.74036 0.945898L3.74025 0.945898M16.5287 0.945898L3.74025 0.945898M3.74025 0.945898C2.17231 0.947632 0.901734 2.21821 0.9 3.78614V3.78625M3.74025 0.945898L0.9 3.78625M0.9 3.78625V12.0698L0.9 16.5746L0.9 16.5747M0.9 3.78625L0.9 16.5747M0.9 16.5747C0.901734 18.1426 2.17231 19.4132 3.74025 19.4149H3.74036M0.9 16.5747L3.74036 19.4149M3.74036 19.4149H16.5287H16.5288H3.74036ZM17.2232 19.319L17.223 19.319C17.2102 19.3223 17.1968 19.3258 17.1831 19.3294C17.1383 19.3412 17.0893 19.354 17.0398 19.3631C17.0397 19.3631 17.0396 19.3631 17.0395 19.3631L17.0215 19.2648L17.2232 19.319ZM17.2232 19.319C17.3228 19.2935 17.4214 19.2637 17.519 19.2269M17.2232 19.319L17.7263 19.141M17.7263 19.141L17.7261 19.1411C17.6575 19.1732 17.5884 19.2009 17.519 19.2269M17.7263 19.141C17.8074 19.1028 17.884 19.0589 17.9578 19.0153M17.7263 19.141L17.9578 19.0153M17.519 19.2269L17.4839 19.1333M17.519 19.2269C17.519 19.2269 17.5191 19.2269 17.5191 19.2269L17.4839 19.1333M17.4839 19.1333C17.5519 19.1078 17.6183 19.0811 17.6837 19.0505L17.1984 19.2221C17.2953 19.1974 17.3903 19.1685 17.4839 19.1333ZM16.9 18.254L10.6543 12.0084C10.6496 12.0037 10.6459 11.9991 10.643 11.9951L7.54034 8.89267L16.9 18.254ZM16.9 18.254C16.7769 18.284 16.6528 18.3014 16.5286 18.3015M16.9 18.254L16.5286 18.3015M16.5286 18.3015H3.74048C2.78719 18.3003 2.01471 17.5278 2.01345 16.5745C2.01345 16.5745 2.01345 16.5745 2.01345 16.5745L2.01345 12.3003L5.42108 8.89267L16.5286 18.3015ZM17.9578 19.0153C17.971 19.0076 17.9847 18.9997 17.9986 18.9916M17.9578 19.0153L17.9986 18.9916M17.9986 18.9916C18.0527 18.9604 18.1112 18.9265 18.1659 18.8878L17.9986 18.9916ZM18.2556 12.5545L15.6342 9.93308L15.6342 9.93304C14.6143 8.91458 12.9623 8.91458 11.9425 9.93304L11.9425 9.93308L11.049 10.8266L8.32748 8.10528L8.32741 8.10522C7.3069 7.0868 5.65452 7.0868 4.63402 8.10522L4.63394 8.10529L2.01345 10.7258L2.01345 3.78638C2.01345 3.78635 2.01345 3.78632 2.01345 3.78629C2.01471 2.83304 2.78714 2.06061 3.74039 2.05935C3.74042 2.05935 3.74045 2.05935 3.74048 2.05935H16.5286C16.5286 2.05935 16.5286 2.05935 16.5286 2.05935C17.4819 2.06061 18.2544 2.83309 18.2556 3.78638V12.5545ZM11.5047 7.54006H11.5048C12.3163 7.53917 12.974 6.88153 12.9749 6.07V6.06988C12.9749 5.25793 12.3167 4.59971 11.5047 4.59971C10.6927 4.59971 10.0345 5.25793 10.0345 6.06988C10.0345 6.88184 10.6927 7.54006 11.5047 7.54006ZM3.74036 19.3149H16.5287H3.74036ZM5.4212 8.89255C6.00697 8.30895 6.95446 8.30895 7.54022 8.89255L5.4212 8.89255ZM18.2556 16.5745C18.2551 16.9817 18.1097 17.3531 17.8717 17.6487L11.8362 11.6138L12.7289 10.7211C13.3214 10.1543 14.2552 10.1543 14.8477 10.7211C14.848 10.7214 14.8482 10.7216 14.8485 10.7218L18.2556 14.129V16.5745ZM11.5047 6.42661C11.3077 6.42661 11.148 6.26688 11.148 6.06988C11.148 5.87295 11.3076 5.71325 11.5045 5.71316C11.7014 5.71356 11.8609 5.873 11.8614 6.06988C11.8614 6.26688 11.7017 6.42661 11.5047 6.42661Z" fill="#71C19A" stroke="#71C19A" stroke-width="0.2"/>
</svg>
