<svg width="48" height="46" viewBox="0 0 48 46" fill="none" xmlns="http://www.w3.org/2000/svg">
<path d="M2.69581 38.5995C4.19999 37.0803 10.3709 31.3619 17.233 32.2796C17.233 32.2796 18.3499 26.6048 22.697 22.7937L18.881 19.6424L15.066 16.4897C11.9908 21.3507 6.49297 23.4053 6.49297 23.4053C8.59127 29.8911 3.91771 36.8459 2.65179 38.5621C2.17567 38.1887 1.48086 38.2527 1.08676 38.7131C0.685628 39.182 0.747055 39.8809 1.22379 40.2746C1.70053 40.6683 2.41181 40.608 2.81237 40.1392C3.20649 39.6788 3.15223 38.9963 2.69581 38.5995ZM12.5533 24.4538C13.1552 23.7503 14.2222 23.6599 14.9366 24.2502C15.6518 24.8412 15.7439 25.8897 15.1418 26.5931C14.5399 27.296 13.4737 27.3871 12.7585 26.7961C12.0442 26.2051 11.9512 25.1566 12.5533 24.4538Z" fill="#327153"/>
<path d="M26.6351 20.6083L16.5818 12.3037L14.7259 14.472L24.7784 22.7765L26.6351 20.6083Z" fill="#327153"/>
<path d="M45.0701 39.2759C43.4577 38.005 42.1835 37.0024 39.6938 37.0416C38.0106 37.0696 36.9751 37.8754 35.9722 38.6546C35.7109 38.8573 35.4407 39.0677 35.1557 39.2677C33.3593 40.5268 31.827 41.4814 29.8453 41.3657L29.8302 41.3648C28.8019 41.3014 28.245 41.0033 27.402 40.5521C27.0655 40.3721 26.6847 40.1674 26.2379 39.964C22.1388 38.0977 18.1512 38.2924 13.3056 40.5964C10.7737 41.7997 7.0721 42.8259 3.81781 40.8805L2.88902 42.3802C4.1956 43.1613 5.66441 43.5975 7.24038 43.6896C9.37264 43.8142 11.7003 43.3091 14.0821 42.1768C18.4589 40.0967 21.8693 39.9104 25.4851 41.5569C25.8786 41.736 26.2177 41.9183 26.5455 42.0935C27.4443 42.5743 28.2941 43.0302 29.7171 43.116L29.7378 43.1172C32.2947 43.2666 34.2503 42.0575 36.1924 40.6963C36.5133 40.4713 36.8026 40.2473 37.08 40.0298C37.9873 39.3244 38.6444 38.8135 39.7212 38.797C41.5682 38.7643 42.4658 39.4733 43.9524 40.6438L44.1001 40.7603L45.2174 39.3894L45.0701 39.2759Z" fill="#327153"/>
<path d="M42.3157 2.28391L25.9722 1.32903L17.4149 11.3287L27.4681 19.6339L42.3157 2.28391Z" fill="#327153"/>
</svg>
