<svg width="21" height="21" viewBox="0 0 21 21" fill="none" xmlns="http://www.w3.org/2000/svg">
<path d="M10.1527 0.75C4.63266 0.75 0.162659 5.23 0.162659 10.75C0.162659 16.27 4.63266 20.75 10.1527 20.75C15.6827 20.75 20.1627 16.27 20.1627 10.75C20.1627 5.23 15.6827 0.75 10.1527 0.75ZM17.0827 6.75H14.1327C13.8197 5.51146 13.3562 4.3159 12.7527 3.19C14.5768 3.818 16.1138 5.08172 17.0827 6.75ZM10.1627 2.79C10.9927 3.99 11.6427 5.32 12.0727 6.75H8.25266C8.68266 5.32 9.33266 3.99 10.1627 2.79ZM2.42266 12.75C2.26266 12.11 2.16266 11.44 2.16266 10.75C2.16266 10.06 2.26266 9.39 2.42266 8.75H5.80266C5.72266 9.41 5.66266 10.07 5.66266 10.75C5.66266 11.43 5.72266 12.09 5.80266 12.75H2.42266ZM3.24266 14.75H6.19266C6.51266 16 6.97266 17.2 7.57266 18.31C5.74663 17.6854 4.20849 16.4208 3.24266 14.75ZM6.19266 6.75H3.24266C4.20849 5.07918 5.74663 3.81457 7.57266 3.19C6.96909 4.3159 6.50564 5.51146 6.19266 6.75ZM10.1627 18.71C9.33266 17.51 8.68266 16.18 8.25266 14.75H12.0727C11.6427 16.18 10.9927 17.51 10.1627 18.71ZM12.5027 12.75H7.82266C7.73266 12.09 7.66266 11.43 7.66266 10.75C7.66266 10.07 7.73266 9.4 7.82266 8.75H12.5027C12.5927 9.4 12.6627 10.07 12.6627 10.75C12.6627 11.43 12.5927 12.09 12.5027 12.75ZM12.7527 18.31C13.3527 17.2 13.8127 16 14.1327 14.75L17.0827 14.75C16.1138 16.4183 14.5768 17.682 12.7527 18.31ZM14.5227 12.75C14.6027 12.09 14.6627 11.43 14.6627 10.75C14.6627 10.07 14.6027 9.41 14.5227 8.75H17.9027C18.0627 9.39 18.1627 10.06 18.1627 10.75C18.1627 11.44 18.0627 12.11 17.9027 12.75L14.5227 12.75Z" fill="#3BCD84"/>
</svg>
