<svg width="51" height="39" viewBox="0 0 51 39" fill="none" xmlns="http://www.w3.org/2000/svg">
<path fill-rule="evenodd" clip-rule="evenodd" d="M23.7926 32.5825V35.9484H19.331C18.3892 35.9484 17.6249 36.6319 17.6249 37.4742C17.6249 38.3165 18.3892 39 19.331 39H31.6698C32.6117 39 33.376 38.3165 33.376 37.4742C33.376 36.6319 32.6117 35.9484 31.6698 35.9484H27.2049V32.5841C29.6567 32.2592 31.9444 31.2384 33.7172 29.6531C35.896 27.7046 37.1211 25.0603 37.1211 22.3047V21.7128C37.1211 20.8705 36.3568 20.187 35.415 20.187C34.4732 20.187 33.7088 20.8705 33.7088 21.7128V22.3047C33.7088 24.2515 32.844 26.1179 31.305 27.4939C29.7661 28.8715 27.678 29.6436 25.5026 29.6436H25.4992C23.3239 29.6436 21.2354 28.8715 19.6967 27.4939C18.1578 26.1176 17.2929 24.2515 17.2929 22.3047V21.7128C17.2929 20.8705 16.5286 20.187 15.5868 20.187C14.645 20.187 13.8807 20.8705 13.8807 21.7128V22.3047C13.8807 25.0603 15.1058 27.7047 17.2845 29.6531C19.0574 31.2385 21.3435 32.2575 23.7934 32.5828L23.7926 32.5825ZM39.6557 15.7097V31.2685C39.6557 32.1108 40.4201 32.7943 41.3619 32.7943H42.4693C44.7315 32.7943 46.9019 31.9902 48.5006 30.5591C50.1008 29.1294 51 27.1887 51 25.1653V23.1862C51 21.1614 50.1008 19.2222 48.5006 17.7911C47.0435 16.4866 45.1123 15.7037 43.0683 15.5756C43.0291 11.4573 41.1832 7.51472 37.9244 4.60026C34.6298 1.65388 30.1614 0 25.5017 0H25.4983C20.8388 0 16.3704 1.65388 13.0757 4.60026C9.81683 7.51463 7.97098 11.4572 7.93169 15.5756C5.88774 15.7036 3.95658 16.4866 2.49944 17.7911C0.899184 19.2222 0 21.1614 0 23.1862V25.1653C0 27.1884 0.899155 29.1294 2.49944 30.5591C4.09814 31.9902 6.26816 32.7943 8.53069 32.7943H9.63812C10.5799 32.7943 11.3443 32.1108 11.3443 31.2685V15.7097C11.3443 12.3515 12.8356 9.13207 15.49 6.75801C18.1429 4.38551 21.7429 3.05178 25.4987 3.05178H25.5021C29.2572 3.05178 32.8571 4.38551 35.5108 6.75801C38.1656 9.13216 39.6565 12.3517 39.6565 15.7097H39.6557ZM32.4934 21.7138V15.4062C32.4934 11.9533 29.3626 9.15343 25.5016 9.15343H25.4982C21.6372 9.15343 18.5064 11.9533 18.5064 15.4062V21.7138C18.5064 25.1666 21.6372 27.9665 25.4982 27.9665H25.5016C29.3626 27.9665 32.4934 25.1666 32.4934 21.7138Z" fill="#C84E0B"/>
</svg>
