<svg width="33" height="37" viewBox="0 0 33 37" fill="none" xmlns="http://www.w3.org/2000/svg">
<path d="M16.4992 0.46875C15.4458 0.46875 14.3927 0.698612 13.5932 1.15899L2.90598 7.30634C1.30758 8.2263 0 10.482 0 12.3205V24.6171C0 26.456 1.30758 28.7124 2.90598 29.632L13.5934 35.7805C14.3928 36.2395 15.4464 36.4688 16.4993 36.4688C17.5531 36.4688 18.6067 36.2395 19.4053 35.7805L30.094 29.632C31.692 28.7124 33 26.456 33 24.6171V12.3204C33 10.482 31.692 8.22615 30.094 7.30627L19.4059 1.15906C18.6065 0.698612 17.553 0.46875 16.4992 0.46875ZM12.2697 11.0464L16.4999 12.7062L20.7322 11.0464L28.023 14.0077L23.7928 15.6667V22.9318L16.4999 25.8917L9.2078 22.9318V15.6667L4.97616 14.0076L12.2697 11.0464ZM9.2078 15.6667L16.4999 18.6258L23.7928 15.6667L16.4999 12.7062L9.2078 15.6667Z" fill="#FFAD00"/>
</svg>
