<svg width="48" height="47" viewBox="0 0 48 47" fill="none" xmlns="http://www.w3.org/2000/svg">
<path d="M14.0084 16.1226C13.9456 16.2869 12.4871 20.2236 16.1685 24.1994C16.2017 24.2315 19.2075 27.2288 19.4769 30.0185C19.4805 30.0506 19.7906 32.8476 18.0699 35.466C20.1487 35.9377 22.6485 36.7055 24.0147 37.6736C25.3921 36.6982 27.9212 35.9268 30.0111 35.4552C29.4389 34.5765 29.0141 33.5547 28.7411 32.4046C28.1909 30.0792 28.6524 27.6645 30.0039 25.7852C30.6944 24.8207 31.3514 24.2133 31.3701 24.199C35.3577 20.2445 34.2281 16.3116 34.1765 16.1508C32.6931 11.1121 26.2982 7.65713 24.4713 6.76043C25.5198 5.72503 26.0531 4.66704 26.0531 3.6086C26.0531 2.42639 25.3922 1.24382 24.0851 0.0936626C23.9449 -0.0312209 23.7307 -0.0312209 23.5904 0.0936626C22.2833 1.24382 21.6224 2.42639 21.6224 3.6086C21.6224 4.67329 22.1629 5.73762 23.2238 6.77855C21.5756 7.6908 15.894 11.1314 14.0081 16.1225L14.0084 16.1226ZM23.8299 7.32081C27.6588 10.45 30.0477 13.2257 30.7418 15.3617C31.569 17.8981 30.4389 20.7807 28.1684 21.9238C27.4851 22.2667 26.8245 22.4024 26.2371 22.4202C25.5466 23.0024 24.7231 23.3418 23.8371 23.3418C22.9508 23.3418 22.1276 23.0024 21.4371 22.4167C20.8425 22.4059 20.1779 22.2775 19.5134 21.9273C17.3536 20.7914 16.4712 17.9159 17.505 15.3833C18.4244 13.1364 19.7499 10.4751 23.8299 7.32082V7.32081Z" fill="#FFAD00"/>
<path d="M10.7225 38.9057C10.7225 39.5845 11.029 40.2097 11.5126 40.7238H22.9956C23.42 40.5382 23.7709 40.3345 24.0146 40.1056C24.2584 40.3341 24.6092 40.5379 25.0336 40.7238H36.5167C37.0006 40.2093 37.3067 39.5841 37.3067 38.9057C37.3067 37.0802 35.0949 35.6621 33.1936 35.6621C31.942 35.6621 25.6132 36.9375 24.0144 38.6161C22.4156 36.9371 16.0907 35.6621 14.8388 35.6621C12.9379 35.6621 10.7225 37.0802 10.7225 38.9057H10.7225Z" fill="#FFAD00"/>
<path d="M23.8375 22.6273C25.8719 22.6273 27.5298 20.3591 27.5298 17.5763C27.5298 14.7901 25.8719 12.5215 23.8375 12.5215C21.8031 12.5215 20.1452 14.7896 20.1452 17.5763C20.1452 20.359 21.8028 22.6273 23.8375 22.6273Z" fill="#FFAD00"/>
<path d="M45.4154 41.4392H2.58462C1.15929 41.4392 0 42.5608 0 43.9397C0 45.3187 1.15929 46.4403 2.58462 46.4403H45.4154C46.8407 46.4403 48 45.3187 48 43.9397C48 42.5611 46.8407 41.4392 45.4154 41.4392Z" fill="#FFAD00"/>
</svg>
