<svg width="16" height="20" viewBox="0 0 16 20" fill="none" xmlns="http://www.w3.org/2000/svg">
<mask id="path-1-inside-1_379_3529" fill="white">
<path fill-rule="evenodd" clip-rule="evenodd" d="M8.58165 1C8.58165 0.734784 8.47629 0.48043 8.28875 0.292893C8.10122 0.105357 7.84686 0 7.58165 0C7.31643 0 7.06208 0.105357 6.87454 0.292893C6.687 0.48043 6.58165 0.734784 6.58165 1V1.75H6.02465C4.95268 1.74993 3.92097 2.15839 3.13957 2.89224C2.35817 3.62608 1.8858 4.63014 1.81865 5.7L1.59765 9.234C1.51337 10.5814 1.06095 11.8799 0.289646 12.988C0.130279 13.2171 0.0329033 13.4835 0.00698854 13.7613C-0.0189262 14.0392 0.0275022 14.319 0.141758 14.5736C0.256015 14.8281 0.43421 15.0488 0.659014 15.2142C0.883818 15.3795 1.14758 15.4838 1.42465 15.517L4.83165 15.925V17C4.83165 17.7293 5.12138 18.4288 5.6371 18.9445C6.15283 19.4603 6.8523 19.75 7.58165 19.75C8.31099 19.75 9.01046 19.4603 9.52619 18.9445C10.0419 18.4288 10.3316 17.7293 10.3316 17V15.925L13.7386 15.516C14.0156 15.4827 14.2791 15.3784 14.5038 15.2131C14.7285 15.0478 14.9066 14.8273 15.0208 14.5729C15.135 14.3184 15.1815 14.0388 15.1557 13.7611C15.1299 13.4834 15.0328 13.2171 14.8736 12.988C14.1023 11.88 13.6499 10.5815 13.5656 9.234L13.3446 5.701C13.2777 4.63096 12.8055 3.62665 12.024 2.8926C11.2426 2.15855 10.2108 1.74995 9.13865 1.75H8.58165V1ZM6.02465 3.25C5.33422 3.24992 4.66972 3.51297 4.16642 3.98561C3.66313 4.45825 3.35889 5.10493 3.31565 5.794L3.09565 9.328C2.99399 10.949 2.44956 12.511 1.52165 13.844C1.51011 13.8606 1.50306 13.8798 1.50118 13.8999C1.4993 13.92 1.50265 13.9403 1.5109 13.9587C1.51915 13.9771 1.53203 13.9931 1.54828 14.005C1.56454 14.017 1.58361 14.0246 1.60365 14.027L5.34065 14.476C6.82965 14.654 8.33365 14.654 9.82265 14.476L13.5596 14.027C13.5797 14.0246 13.5988 14.017 13.615 14.005C13.6313 13.9931 13.6441 13.9771 13.6524 13.9587C13.6606 13.9403 13.664 13.92 13.6621 13.8999C13.6602 13.8798 13.6532 13.8606 13.6416 13.844C12.7141 12.5109 12.17 10.9489 12.0686 9.328L11.8476 5.794C11.8044 5.10493 11.5002 4.45825 10.9969 3.98561C10.4936 3.51297 9.82907 3.24992 9.13865 3.25H6.02465ZM7.58165 18.25C6.89165 18.25 6.33165 17.69 6.33165 17V16.25H8.83165V17C8.83165 17.69 8.27165 18.25 7.58165 18.25Z"/>
</mask>
<path fill-rule="evenodd" clip-rule="evenodd" d="M8.58165 1C8.58165 0.734784 8.47629 0.48043 8.28875 0.292893C8.10122 0.105357 7.84686 0 7.58165 0C7.31643 0 7.06208 0.105357 6.87454 0.292893C6.687 0.48043 6.58165 0.734784 6.58165 1V1.75H6.02465C4.95268 1.74993 3.92097 2.15839 3.13957 2.89224C2.35817 3.62608 1.8858 4.63014 1.81865 5.7L1.59765 9.234C1.51337 10.5814 1.06095 11.8799 0.289646 12.988C0.130279 13.2171 0.0329033 13.4835 0.00698854 13.7613C-0.0189262 14.0392 0.0275022 14.319 0.141758 14.5736C0.256015 14.8281 0.43421 15.0488 0.659014 15.2142C0.883818 15.3795 1.14758 15.4838 1.42465 15.517L4.83165 15.925V17C4.83165 17.7293 5.12138 18.4288 5.6371 18.9445C6.15283 19.4603 6.8523 19.75 7.58165 19.75C8.31099 19.75 9.01046 19.4603 9.52619 18.9445C10.0419 18.4288 10.3316 17.7293 10.3316 17V15.925L13.7386 15.516C14.0156 15.4827 14.2791 15.3784 14.5038 15.2131C14.7285 15.0478 14.9066 14.8273 15.0208 14.5729C15.135 14.3184 15.1815 14.0388 15.1557 13.7611C15.1299 13.4834 15.0328 13.2171 14.8736 12.988C14.1023 11.88 13.6499 10.5815 13.5656 9.234L13.3446 5.701C13.2777 4.63096 12.8055 3.62665 12.024 2.8926C11.2426 2.15855 10.2108 1.74995 9.13865 1.75H8.58165V1ZM6.02465 3.25C5.33422 3.24992 4.66972 3.51297 4.16642 3.98561C3.66313 4.45825 3.35889 5.10493 3.31565 5.794L3.09565 9.328C2.99399 10.949 2.44956 12.511 1.52165 13.844C1.51011 13.8606 1.50306 13.8798 1.50118 13.8999C1.4993 13.92 1.50265 13.9403 1.5109 13.9587C1.51915 13.9771 1.53203 13.9931 1.54828 14.005C1.56454 14.017 1.58361 14.0246 1.60365 14.027L5.34065 14.476C6.82965 14.654 8.33365 14.654 9.82265 14.476L13.5596 14.027C13.5797 14.0246 13.5988 14.017 13.615 14.005C13.6313 13.9931 13.6441 13.9771 13.6524 13.9587C13.6606 13.9403 13.664 13.92 13.6621 13.8999C13.6602 13.8798 13.6532 13.8606 13.6416 13.844C12.7141 12.5109 12.17 10.9489 12.0686 9.328L11.8476 5.794C11.8044 5.10493 11.5002 4.45825 10.9969 3.98561C10.4936 3.51297 9.82907 3.24992 9.13865 3.25H6.02465ZM7.58165 18.25C6.89165 18.25 6.33165 17.69 6.33165 17V16.25H8.83165V17C8.83165 17.69 8.27165 18.25 7.58165 18.25Z" fill="#3BCD84"/>
<path d="M7.58165 0V-3V0ZM6.58165 1.75V4.75H9.58165V1.75H6.58165ZM6.02465 1.75L6.02445 4.75H6.02465V1.75ZM1.81865 5.7L-1.17546 5.51205L-1.17551 5.51276L1.81865 5.7ZM1.59765 9.234L4.5918 9.42126L4.5918 9.42124L1.59765 9.234ZM0.289646 12.988L-2.17258 11.2741L-2.17298 11.2747L0.289646 12.988ZM1.42465 15.517L1.06777 18.4957L1.06794 18.4957L1.42465 15.517ZM4.83165 15.925H7.83165V13.2628L5.18836 12.9463L4.83165 15.925ZM4.83165 17H1.83165H4.83165ZM10.3316 17H7.33165H10.3316ZM10.3316 15.925L9.97407 12.9464L7.33165 13.2636V15.925H10.3316ZM13.7386 15.516L14.0962 18.4946L14.0967 18.4946L13.7386 15.516ZM14.8736 12.988L17.3375 11.2764L17.3358 11.274L14.8736 12.988ZM13.5656 9.234L16.5598 9.04685L16.5598 9.04671L13.5656 9.234ZM13.3446 5.701L10.3505 5.88823L10.3505 5.88829L13.3446 5.701ZM9.13865 1.75V4.75H9.1388L9.13865 1.75ZM8.58165 1.75H5.58165V4.75H8.58165V1.75ZM6.02465 3.25L6.02428 6.25H6.02465V3.25ZM3.31565 5.794L0.321537 5.60609L0.321442 5.6076L3.31565 5.794ZM3.09565 9.328L6.08976 9.51577L6.08985 9.5144L3.09565 9.328ZM1.52165 13.844L-0.940535 12.13L-0.940549 12.1301L1.52165 13.844ZM1.60365 14.027L1.24401 17.0054L1.24577 17.0056L1.60365 14.027ZM5.34065 14.476L4.98277 17.4546L4.98455 17.4548L5.34065 14.476ZM9.82265 14.476L10.1787 17.4548L10.1805 17.4546L9.82265 14.476ZM13.5596 14.027L13.9175 17.0056L13.9193 17.0054L13.5596 14.027ZM13.6416 13.844L11.1791 15.5574L11.1795 15.5579L13.6416 13.844ZM12.0686 9.328L15.0628 9.14076V9.14076L12.0686 9.328ZM11.8476 5.794L14.8418 5.60676L14.8418 5.60609L11.8476 5.794ZM9.13865 3.25V6.25H9.13901L9.13865 3.25ZM6.33165 16.25V13.25H3.33165V16.25H6.33165ZM8.83165 16.25H11.8316V13.25H8.83165V16.25ZM11.5816 1C11.5816 -0.0608673 11.1602 -1.07828 10.4101 -1.82843L6.16743 2.41421C5.79236 2.03914 5.58165 1.53043 5.58165 1H11.5816ZM10.4101 -1.82843C9.65993 -2.57857 8.64251 -3 7.58165 -3V3C7.05121 3 6.5425 2.78929 6.16743 2.41421L10.4101 -1.82843ZM7.58165 -3C6.52078 -3 5.50336 -2.57857 4.75322 -1.82843L8.99586 2.41421C8.62079 2.78929 8.11208 3 7.58165 3V-3ZM4.75322 -1.82843C4.00307 -1.07828 3.58165 -0.0608673 3.58165 1H9.58165C9.58165 1.53043 9.37093 2.03914 8.99586 2.41421L4.75322 -1.82843ZM3.58165 1V1.75H9.58165V1H3.58165ZM6.58165 -1.25H6.02465V4.75H6.58165V-1.25ZM6.02484 -1.25C4.18972 -1.25012 2.42354 -0.550867 1.08584 0.70541L5.19329 5.07906C5.41841 4.86765 5.71563 4.74998 6.02445 4.75L6.02484 -1.25ZM1.08584 0.70541C-0.251851 1.96169 -1.06049 3.68054 -1.17546 5.51205L4.81275 5.88794C4.8321 5.57973 4.96818 5.29048 5.19329 5.07906L1.08584 0.70541ZM-1.17551 5.51276L-1.39651 9.04676L4.5918 9.42124L4.8128 5.88724L-1.17551 5.51276ZM-1.3965 9.04674C-1.44651 9.84622 -1.71494 10.6167 -2.17258 11.2741L2.75187 14.7019C3.83684 13.1432 4.47325 11.3167 4.5918 9.42126L-1.3965 9.04674ZM-2.17298 11.2747C-2.62802 11.9287 -2.90605 12.6894 -2.98005 13.4827L2.99402 14.0399C2.97186 14.2776 2.88857 14.5054 2.75227 14.7013L-2.17298 11.2747ZM-2.98005 13.4827C-3.05404 14.276 -2.92147 15.075 -2.59524 15.8019L2.87876 13.3452C2.97648 13.563 3.01619 13.8023 2.99402 14.0399L-2.98005 13.4827ZM-2.59524 15.8019C-2.26901 16.5288 -1.76021 17.1589 -1.11833 17.631L2.43635 12.7973C2.62863 12.9387 2.78103 13.1275 2.87876 13.3452L-2.59524 15.8019ZM-1.11833 17.631C-0.476453 18.103 0.27666 18.4009 1.06777 18.4957L1.78152 12.5383C2.0185 12.5667 2.24409 12.6559 2.43635 12.7973L-1.11833 17.631ZM1.06794 18.4957L4.47494 18.9037L5.18836 12.9463L1.78136 12.5383L1.06794 18.4957ZM1.83165 15.925V17H7.83165V15.925H1.83165ZM1.83165 17C1.83165 18.525 2.43745 19.9875 3.51578 21.0659L7.75842 16.8232C7.80531 16.8701 7.83165 16.9337 7.83165 17H1.83165ZM3.51578 21.0659C4.59412 22.1442 6.05665 22.75 7.58165 22.75V16.75C7.64795 16.75 7.71154 16.7763 7.75842 16.8232L3.51578 21.0659ZM7.58165 22.75C9.10664 22.75 10.5692 22.1442 11.6475 21.0659L7.40487 16.8232C7.45175 16.7763 7.51534 16.75 7.58165 16.75V22.75ZM11.6475 21.0659C12.7258 19.9875 13.3316 18.525 13.3316 17H7.33165C7.33165 16.9337 7.35799 16.8701 7.40487 16.8232L11.6475 21.0659ZM13.3316 17V15.925H7.33165V17H13.3316ZM10.6892 18.9036L14.0962 18.4946L13.3811 12.5374L9.97407 12.9464L10.6892 18.9036ZM14.0967 18.4946C14.8874 18.3995 15.64 18.1016 16.2814 17.6297L12.7262 12.7965C12.9183 12.6552 13.1437 12.5659 13.3806 12.5374L14.0967 18.4946ZM16.2814 17.6297C16.9229 17.1578 17.4314 16.5281 17.7576 15.8016L12.284 13.3441C12.3817 13.1265 12.534 12.9378 12.7262 12.7965L16.2814 17.6297ZM17.7576 15.8016C18.0838 15.0751 18.2165 14.2767 18.1429 13.4837L12.1686 14.0384C12.1465 13.8009 12.1863 13.5617 12.284 13.3441L17.7576 15.8016ZM18.1429 13.4837C18.0693 12.6908 17.7918 11.9304 17.3375 11.2764L12.4098 14.6996C12.2737 14.5037 12.1906 14.2759 12.1686 14.0384L18.1429 13.4837ZM17.3358 11.274C16.8782 10.6166 16.6098 9.84627 16.5598 9.04685L10.5715 9.42115C10.69 11.3166 11.3264 13.1433 12.4115 14.702L17.3358 11.274ZM16.5598 9.04671L16.3388 5.51371L10.3505 5.88829L10.5715 9.42129L16.5598 9.04671ZM16.3388 5.51377C16.2242 3.68195 15.4158 1.96267 14.078 0.706033L9.97005 5.07917C10.1952 5.29064 10.3312 5.57997 10.3505 5.88823L16.3388 5.51377ZM14.078 0.706033C12.7403 -0.550602 10.9739 -1.25009 9.13849 -1.25L9.1388 4.75C9.44767 4.74998 9.74493 4.8677 9.97005 5.07917L14.078 0.706033ZM9.13865 -1.25H8.58165V4.75H9.13865V-1.25ZM11.5816 1.75V1H5.58165V1.75H11.5816ZM6.02501 0.25C4.5714 0.249824 3.17237 0.803654 2.11275 1.79873L6.2201 6.17248C6.16706 6.22229 6.09704 6.25001 6.02428 6.25L6.02501 0.25ZM2.11275 1.79873C1.05313 2.79382 0.412589 4.15533 0.321537 5.60609L6.30975 5.98191C6.3052 6.05453 6.27314 6.12267 6.2201 6.17248L2.11275 1.79873ZM0.321442 5.6076L0.101442 9.1416L6.08985 9.5144L6.30985 5.9804L0.321442 5.6076ZM0.101528 9.14023C0.0342266 10.2134 -0.326209 11.2475 -0.940535 12.13L3.98383 15.558C5.22534 13.7745 5.95375 11.6846 6.08976 9.51577L0.101528 9.14023ZM-0.940549 12.1301C-1.24775 12.5714 -1.43557 13.0847 -1.48574 13.6201L4.4881 14.1798C4.4417 14.675 4.26798 15.1498 3.98384 15.5579L-0.940549 12.1301ZM-1.48574 13.6201C-1.5359 14.1555 -1.4467 14.6947 -1.22682 15.1854L4.24862 12.7319C4.45199 13.1858 4.5345 13.6846 4.4881 14.1798L-1.48574 13.6201ZM-1.22682 15.1854C-1.00691 15.6762 -0.663785 16.1017 -0.230886 16.4205L3.32745 11.5896C3.72785 11.8845 4.04522 12.278 4.24862 12.7319L-1.22682 15.1854ZM-0.230886 16.4205C0.201977 16.7394 0.71005 16.9409 1.24401 17.0054L1.96328 11.0486C2.45716 11.1083 2.92709 11.2947 3.32745 11.5896L-0.230886 16.4205ZM1.24577 17.0056L4.98277 17.4546L5.69852 11.4974L1.96152 11.0484L1.24577 17.0056ZM4.98455 17.4548C6.71011 17.6611 8.45319 17.6611 10.1787 17.4548L9.46655 11.4972C8.21411 11.6469 6.94919 11.6469 5.69674 11.4972L4.98455 17.4548ZM10.1805 17.4546L13.9175 17.0056L13.2018 11.0484L9.46477 11.4974L10.1805 17.4546ZM13.9193 17.0054C14.4533 16.9409 14.9613 16.7393 15.3942 16.4205L11.8358 11.5896C12.2362 11.2947 12.7061 11.1083 13.2 11.0486L13.9193 17.0054ZM15.3942 16.4205C15.827 16.1017 16.1702 15.6762 16.3901 15.1854L10.9147 12.7319C11.1181 12.278 11.4355 11.8845 11.8358 11.5896L15.3942 16.4205ZM16.3901 15.1854C16.61 14.6946 16.6992 14.1554 16.649 13.6201L10.6752 14.1798C10.6288 13.6847 10.7113 13.1859 10.9147 12.7319L16.3901 15.1854ZM16.649 13.6201C16.5989 13.0847 16.4111 12.5714 16.1038 12.1301L11.1795 15.5579C10.8953 15.1497 10.7216 14.675 10.6752 14.1798L16.649 13.6201ZM16.1042 12.1306C15.4901 11.248 15.1299 10.2139 15.0628 9.14076L9.07449 9.51524C9.21011 11.6839 9.93806 13.7738 11.1791 15.5574L16.1042 12.1306ZM15.0628 9.14076L14.8418 5.60676L8.8535 5.98124L9.07449 9.51524L15.0628 9.14076ZM14.8418 5.60609C14.7507 4.15533 14.1102 2.79381 13.0505 1.79873L8.94319 6.17248C8.89016 6.12268 8.8581 6.05453 8.85354 5.98191L14.8418 5.60609ZM13.0505 1.79873C11.9909 0.803654 10.5919 0.249824 9.13828 0.25L9.13901 6.25C9.06625 6.25001 8.99623 6.22229 8.94319 6.17248L13.0505 1.79873ZM9.13865 0.25H6.02465V6.25H9.13865V0.25ZM7.58165 15.25C8.5485 15.25 9.33165 16.0331 9.33165 17H3.33165C3.33165 19.3469 5.23479 21.25 7.58165 21.25V15.25ZM9.33165 17V16.25H3.33165V17H9.33165ZM6.33165 19.25H8.83165V13.25H6.33165V19.25ZM5.83165 16.25V17H11.8316V16.25H5.83165ZM5.83165 17C5.83165 16.0331 6.61479 15.25 7.58165 15.25V21.25C9.9285 21.25 11.8316 19.3469 11.8316 17H5.83165Z" fill="#3BCD84" mask="url(#path-1-inside-1_379_3529)"/>
</svg>
