<svg width="25" height="25" viewBox="0 0 25 25" fill="none" xmlns="http://www.w3.org/2000/svg">
<mask id="mask0_938_3318" style="mask-type:luminance" maskUnits="userSpaceOnUse" x="4" y="14" width="17" height="9">
<path fill-rule="evenodd" clip-rule="evenodd" d="M4.55469 14.9961H20.3946V22.3701H4.55469V14.9961Z" fill="white"/>
</mask>
<g mask="url(#mask0_938_3318)">
<path fill-rule="evenodd" clip-rule="evenodd" d="M12.4756 16.4961C8.21457 16.4961 6.05457 17.2281 6.05457 18.6731C6.05457 20.1311 8.21457 20.8701 12.4756 20.8701C16.7356 20.8701 18.8946 20.1381 18.8946 18.6931C18.8946 17.2351 16.7356 16.4961 12.4756 16.4961ZM12.4756 22.3701C10.5166 22.3701 4.55457 22.3701 4.55457 18.6731C4.55457 15.3771 9.07557 14.9961 12.4756 14.9961C14.4346 14.9961 20.3946 14.9961 20.3946 18.6931C20.3946 21.9891 15.8746 22.3701 12.4756 22.3701Z" fill="#3BCD84"/>
</g>
<mask id="mask1_938_3318" style="mask-type:luminance" maskUnits="userSpaceOnUse" x="7" y="2" width="11" height="12">
<path fill-rule="evenodd" clip-rule="evenodd" d="M7.16455 2.5H17.7846V13.1186H7.16455V2.5Z" fill="white"/>
</mask>
<g mask="url(#mask1_938_3318)">
<path fill-rule="evenodd" clip-rule="evenodd" d="M12.4756 3.928C10.3346 3.928 8.59258 5.669 8.59258 7.81C8.58558 9.944 10.3146 11.684 12.4466 11.692L12.4756 12.406V11.692C14.6156 11.692 16.3566 9.95 16.3566 7.81C16.3566 5.669 14.6156 3.928 12.4756 3.928ZM12.4756 13.119H12.4436C9.52158 13.11 7.15458 10.727 7.16458 7.807C7.16458 4.882 9.54658 2.5 12.4756 2.5C15.4036 2.5 17.7846 4.882 17.7846 7.81C17.7846 10.738 15.4036 13.119 12.4756 13.119Z" fill="#3BCD84"/>
</g>
</svg>
