<svg width="25" height="25" viewBox="0 0 25 25" fill="none" xmlns="http://www.w3.org/2000/svg">
<path fill-rule="evenodd" clip-rule="evenodd" d="M11.7661 11.7115L10.7191 15.0585L14.0651 14.0105L15.1131 10.6635L11.7661 11.7115ZM9.57508 16.9515C9.37908 16.9515 9.18708 16.8745 9.04408 16.7325C8.84708 16.5345 8.77508 16.2435 8.85908 15.9785L10.4521 10.8895C10.5251 10.6535 10.7091 10.4705 10.9431 10.3975L16.0321 8.80452C16.2991 8.71952 16.5891 8.79252 16.7871 8.98952C16.9841 9.18752 17.0561 9.47852 16.9721 9.74352L15.3801 14.8325C15.3071 15.0675 15.1221 15.2515 14.8881 15.3245L9.79908 16.9175C9.72508 16.9405 9.64908 16.9515 9.57508 16.9515Z" fill="#3BCD84"/>
<mask id="mask0_938_3290" style="mask-type:luminance" maskUnits="userSpaceOnUse" x="2" y="2" width="22" height="22">
<path fill-rule="evenodd" clip-rule="evenodd" d="M2.55469 2.5H23.2765V23.2217H2.55469V2.5Z" fill="white"/>
</mask>
<g mask="url(#mask0_938_3290)">
<path fill-rule="evenodd" clip-rule="evenodd" d="M12.9155 4C8.0295 4 4.0545 7.976 4.0545 12.861C4.0545 17.747 8.0295 21.722 12.9155 21.722C17.8015 21.722 21.7765 17.747 21.7765 12.861C21.7765 7.976 17.8015 4 12.9155 4ZM12.9155 23.222C7.2025 23.222 2.5545 18.574 2.5545 12.861C2.5545 7.148 7.2025 2.5 12.9155 2.5C18.6285 2.5 23.2765 7.148 23.2765 12.861C23.2765 18.574 18.6285 23.222 12.9155 23.222Z" fill="#3BCD84"/>
</g>
</svg>
