<svg width="19" height="22" viewBox="0 0 19 22" fill="none" xmlns="http://www.w3.org/2000/svg">
<path fill-rule="evenodd" clip-rule="evenodd" d="M9.5 0.575195C4.52944 0.575195 0.5 4.60464 0.5 9.5752V12.6661C0.5 16.9211 3.45276 20.4864 7.42098 21.4248C7.41312 21.3517 7.40909 21.2775 7.40909 21.2024V12.1025C7.40909 10.9512 8.35785 10.0024 9.50911 10.0024H10.209V11.4025C10.2091 12.1757 10.8359 12.8024 11.6091 12.8025H14.4091C15.1823 12.8024 15.809 12.1757 15.8091 11.4025V10.0024H16.5091C17.4288 10.0024 18.2192 10.6079 18.5 11.4384V9.57519C18.5 4.60463 14.4706 0.575195 9.5 0.575195ZM10.9092 10.0024C10.9092 9.61582 11.2225 9.30258 11.6091 9.30247H14.4091C14.7957 9.30247 15.1091 9.61582 15.1091 10.0024V11.4025C15.1091 11.7891 14.7957 12.1023 14.4091 12.1025H11.6091C11.2225 12.1025 10.9092 11.7891 10.9092 11.4025V10.0024ZM15.6037 15.7932C15.468 15.6613 15.2846 15.5902 15.0955 15.5957L15.0955 15.5957C14.9136 15.601 14.7411 15.6771 14.6143 15.8076V15.8075L12.3092 18.1126L11.404 17.2077C11.2738 17.0718 11.0943 16.994 10.9061 16.992C10.7178 16.99 10.5367 17.0638 10.4035 17.1969C10.2703 17.3301 10.1965 17.5112 10.1985 17.6994C10.2005 17.8878 10.2783 18.0673 10.4142 18.1975H10.4141L11.8142 19.5975C11.9455 19.7287 12.1236 19.8025 12.3092 19.8025C12.4948 19.8025 12.6728 19.7287 12.8041 19.5975V19.5974L15.6041 16.7974C15.7398 16.6656 15.8163 16.4844 15.8162 16.2952C15.8162 16.1061 15.7395 15.9249 15.6037 15.7932Z" fill="#38805D"/>
</svg>
