<svg width="64" height="64" viewBox="0 0 64 64" fill="none" xmlns="http://www.w3.org/2000/svg">
<path d="M48.9381 29.2476C48.7538 29.3296 48.5402 29.3069 48.3802 29.1864C48.2212 29.0659 48.1451 28.8699 48.1839 28.6776C48.5799 26.7227 48.6891 24.7077 48.509 22.6866C48.4587 22.1282 48.3931 21.5924 48.1388 21.1689C47.8654 20.7068 47.3429 20.3291 46.6672 20.1006C46.3669 20.0042 46.0183 19.9148 45.6706 19.836C45.4905 19.7985 45.2889 19.836 45.128 19.9398C44.981 20.0343 44.8823 20.1776 44.8502 20.3416C44.1089 24.2405 41.6727 28.1785 37.991 31.4244C36.1621 33.0436 34.144 34.4317 32.0522 35.6992L32.0479 35.701C30.0278 36.9241 27.9384 38.0349 25.884 39.1258C19.541 42.4979 12.5257 45.3151 5.03375 47.5035C4.40304 47.6884 3.9021 48.1324 3.66175 48.7232C2.32849 51.964 2.05461 55.5831 2.88928 58.9167C3.15747 60.0201 3.59854 60.9336 4.19716 61.6357C6.47675 64.2755 9.80554 63.1678 12.451 61.9054C17.2567 59.6031 21.7871 56.5833 26.1672 53.6617C31.6444 50.0084 37.3089 46.2318 43.5983 43.7955C45.1494 43.1912 46.7552 42.6652 48.3078 42.1545C50.3407 41.4871 52.4421 40.7966 54.4223 39.9318C58.4772 38.161 61.3353 35.8707 62.9175 33.1238C63.736 31.6904 64.2379 29.7165 63.8863 27.9792C63.6129 28.5802 63.2662 29.1554 62.9348 29.7036C61.5948 31.9189 59.5566 33.8342 57.04 35.2431C56.9552 35.2908 56.8628 35.3126 56.7718 35.3126C56.586 35.3126 56.4069 35.2204 56.3073 35.0531C56.1584 34.8052 56.246 34.4872 56.5027 34.344C58.8584 33.0246 60.7625 31.238 62.0081 29.1785C62.9831 27.5652 63.6378 26.3237 63.1752 25.0144C62.8758 24.1672 62.2001 23.5888 61.5799 23.2134C61.5737 23.4595 61.5593 23.72 61.5253 23.992C61.2183 26.2601 58.9838 29.1256 55.8336 31.2963C55.5932 31.4636 55.2575 31.4085 55.086 31.1749C54.9146 30.9413 54.9701 30.6174 55.2115 30.4514C58.5317 28.1644 60.2404 25.4945 60.4626 23.8613C60.5354 23.2884 60.5181 22.7379 60.4913 22.3778C60.4612 21.9356 60.4056 21.6427 60.4022 21.6284C60.3563 21.4416 60.295 21.2233 60.2327 21.0254C60.1652 20.8118 59.9722 20.7557 59.8927 20.7418C59.8271 20.7284 59.5996 20.7075 59.443 20.9036C56.4489 24.6398 52.9156 27.4469 48.9378 29.246L48.9381 29.2476Z" fill="#FDFFFE"/>
<path d="M5.32119 21.0774C7.88541 24.0581 10.8247 26.3842 14.0874 27.9921C13.8208 26.2835 13.7667 24.5382 13.9258 22.7897C13.9844 22.1452 14.0719 21.4649 14.4416 20.8625C14.8446 20.1965 15.5795 19.66 16.5094 19.3532C16.8563 19.2432 17.2409 19.1461 17.6255 19.0609C18.1166 18.9642 18.6193 19.0549 19.0223 19.3083C19.4147 19.5556 19.6788 19.9322 19.7669 20.3673C20.4747 24.0091 22.8164 27.698 26.3628 30.7557C27.8975 32.0878 29.7161 33.3722 31.8932 34.6787C33.8459 33.5046 35.7255 32.2275 37.4223 30.7571C40.9682 27.6971 43.3104 24.0096 44.0167 20.3711C44.1057 19.9332 44.3699 19.5562 44.7623 19.3093C45.1653 19.0559 45.6694 18.9657 46.146 19.0587C46.5427 19.1457 46.9283 19.2433 47.2675 19.351C48.2037 19.6597 48.9386 20.1966 49.3441 20.8644C49.7103 21.4627 49.7994 22.1438 49.8589 22.7893C50.018 24.5377 49.9639 26.2831 49.6973 27.9917C53.0666 26.3316 56.0924 23.9079 58.7132 20.7866C58.7359 20.6684 58.7577 20.5506 58.7761 20.4325L58.8206 20.1627C59.1835 17.7019 60.2871 10.2251 55.0458 4.86496C52.1075 1.85948 48.4263 0.277291 44.7124 0.400541C40.5322 0.540255 37.6303 2.68271 36.2722 3.94792C35.1279 5.03952 34.2044 6.3789 33.5323 7.92309C33.2832 8.50715 32.7176 8.87224 32.0562 8.87315H32.0528C31.3861 8.87315 30.7915 8.49157 30.5356 7.90156C29.8887 6.45904 28.9327 5.12511 27.6942 3.94374C26.3404 2.68264 23.4394 0.540255 19.2592 0.40047C15.5367 0.270373 11.8616 1.85859 8.92585 4.86395C5.42639 8.44111 4.16069 13.5918 5.16319 20.1722C5.20964 20.475 5.26092 20.7778 5.32382 21.0742L5.32119 21.0774ZM55.5044 16.1172C55.4361 16.5552 55.3384 16.9885 55.2126 17.404C55.1454 17.6299 54.9277 17.7765 54.6925 17.7765C54.6437 17.7765 54.5929 17.7705 54.543 17.7568C54.2547 17.6789 54.0887 17.3944 54.17 17.1228C54.2827 16.7504 54.3703 16.3615 54.4313 15.9684C54.4758 15.6881 54.7477 15.487 55.0457 15.5355C55.3418 15.5768 55.5465 15.8374 55.5029 16.1173L55.5044 16.1172ZM46.7303 4.4353C49.6932 4.9598 52.4103 6.72016 53.9968 9.14621C54.529 9.95976 54.9388 10.8517 55.215 11.7967C55.2953 12.0697 55.125 12.3528 54.8367 12.428C54.7888 12.4403 54.7404 12.4463 54.6915 12.4463C54.454 12.4463 54.2363 12.2974 54.1705 12.0697C53.9223 11.2191 53.5536 10.4179 53.0746 9.6859C51.6464 7.5013 49.1992 5.91501 46.531 5.44406C46.2373 5.39184 46.0433 5.12386 46.0975 4.8458C46.1527 4.56775 46.4313 4.38497 46.7294 4.43536L46.7303 4.4353Z" fill="#38805D"/>
<path d="M9.63956 40.1106C11.6428 40.9865 13.7651 41.6861 15.8176 42.3627L16.7727 42.6789C19.9581 41.3662 23.0251 39.9342 25.943 38.3798C27.7598 37.4127 29.6011 36.426 31.3962 35.3663C29.3688 34.0933 27.6416 32.8321 26.1728 31.5259C22.4693 28.2514 20.0178 24.2793 19.2705 20.3402C19.2382 20.1779 19.1389 20.0344 18.991 19.939C18.831 19.8352 18.6281 19.7987 18.4329 19.8361C18.0951 19.9137 17.7443 20.0035 17.4344 20.1031C16.7607 20.3313 16.2349 20.7139 15.9621 21.1759C15.7043 21.6075 15.6383 22.1467 15.5886 22.7094C15.4074 24.7478 15.5173 26.7822 15.9159 28.7546C15.9549 28.9483 15.8783 29.1465 15.7183 29.2681C15.5583 29.3897 15.3424 29.4126 15.1568 29.3299C11.155 27.5145 7.59855 24.6819 4.58565 20.9118C4.42709 20.714 4.20012 20.7345 4.13458 20.7486C4.05459 20.7621 3.86135 20.8187 3.79002 21.0385C3.72978 21.2344 3.66809 21.4543 3.61604 21.6638C3.61604 21.6638 3.56111 21.957 3.53315 22.3938C3.5052 22.7595 3.48785 23.3122 3.56207 23.8991C3.78423 25.5415 5.50413 28.237 8.8452 30.5449C9.08809 30.7123 9.14398 31.0392 8.97145 31.2749C8.79748 31.5096 8.46063 31.5648 8.21919 31.3974C5.04874 29.2069 2.80011 26.316 2.49169 24.031C2.45699 23.7547 2.44205 23.4904 2.43579 23.2421C1.81171 23.6214 1.13277 24.2036 0.831503 25.0585C0.367428 26.3781 1.02571 27.6324 2.00591 29.2603C3.26032 31.3385 5.17537 33.1413 7.54589 34.4727C7.80371 34.6172 7.89239 34.938 7.74252 35.1882C7.64228 35.3556 7.46205 35.4501 7.27506 35.4501C7.1835 35.4501 7.09049 35.4281 7.00519 35.38C4.47281 33.9583 2.42181 32.0246 1.07339 29.7902C0.739915 29.237 0.390042 28.6557 0.114881 28.0482C-0.239322 29.8028 0.264748 31.795 1.08977 33.2437C2.68098 36.0136 5.55658 38.3243 9.63686 40.1111L9.63956 40.1106Z" fill="#FDFFFE"/>
<path d="M44.0625 44.9798C40.0411 46.4886 36.2562 48.541 32.6038 50.7568C34.1997 51.7495 35.7946 52.7734 37.343 53.7726C41.8139 56.6588 46.4382 59.6449 51.3465 61.9221C54.0447 63.1686 57.4407 64.263 59.7679 61.6533C60.3787 60.961 60.8273 60.0585 61.0999 58.9723C61.9535 55.6744 61.6735 52.099 60.3151 48.8986C60.0679 48.313 59.5578 47.8738 58.9143 47.6916C54.8954 46.5551 51.0372 45.2523 47.435 43.8213C46.3043 44.1862 45.1683 44.5617 44.063 44.9793L44.0625 44.9798Z" fill="#FDFFFE"/>
</svg>
