<svg width="26" height="26" viewBox="0 0 26 26" fill="none" xmlns="http://www.w3.org/2000/svg">
<circle cx="13" cy="13" r="13" fill="#E8FBF2"/>
<path d="M11.9141 13.49L11.8511 13.5439L6.59134 18.7004C6.98003 18.9397 7.42783 19.066 7.88444 19.0652H11.6157L11.886 17.9861C12.009 17.4947 12.2634 17.0458 12.6225 16.6879L14.2247 15.0878L12.6491 13.5439L12.5777 13.4847C12.4805 13.4164 12.3643 13.3802 12.2454 13.3811C12.1266 13.3821 12.0102 13.4202 11.9141 13.49ZM15.6696 9.39967C15.6696 9.32478 15.6549 9.25063 15.6262 9.18144C15.5975 9.11226 15.5554 9.04939 15.5024 8.99644C15.4494 8.94349 15.3864 8.90148 15.3171 8.87283C15.2479 8.84417 15.1736 8.82942 15.0986 8.82942C15.0236 8.82942 14.9494 8.84417 14.8801 8.87283C14.8108 8.90148 14.7479 8.94349 14.6949 8.99644C14.6418 9.04939 14.5998 9.11226 14.5711 9.18144C14.5424 9.25063 14.5276 9.32478 14.5276 9.39967C14.5276 9.55091 14.5878 9.69596 14.6949 9.8029C14.8019 9.90984 14.9472 9.96993 15.0986 9.96993C15.2501 9.96993 15.3953 9.90984 15.5024 9.8029C15.6095 9.69596 15.6696 9.55091 15.6696 9.39967ZM15.0295 14.284L13.4464 12.7325L13.3492 12.6438C13.0423 12.3862 12.6545 12.2446 12.2536 12.2437C11.8527 12.2429 11.4643 12.3829 11.1563 12.6392L11.053 12.7325L5.78495 17.8966C5.54374 17.5079 5.41619 17.0595 5.41669 16.6022V7.88152C5.41669 7.22789 5.67668 6.60102 6.13948 6.13884C6.60227 5.67665 7.22995 5.41699 7.88444 5.41699H16.6157C17.2702 5.41699 17.8979 5.67665 18.3607 6.13884C18.8235 6.60102 19.0835 7.22789 19.0835 7.88152V11.4919C18.7207 11.46 18.3554 11.508 18.0132 11.6325C17.6711 11.757 17.3604 11.9549 17.1032 12.2123L15.0295 14.284ZM13.3894 9.39967C13.3846 9.62691 13.4253 9.85282 13.5091 10.0642C13.5928 10.2755 13.718 10.468 13.8772 10.6304C14.0364 10.7928 14.2265 10.9218 14.4363 11.0099C14.6461 11.098 14.8714 11.1434 15.099 11.1434C15.3266 11.1434 15.5519 11.098 15.7617 11.0099C15.9715 10.9218 16.1616 10.7928 16.3208 10.6304C16.48 10.468 16.6052 10.2755 16.6889 10.0642C16.7727 9.85282 16.8134 9.62691 16.8086 9.39967C16.8086 8.94675 16.6284 8.51239 16.3077 8.19212C15.9871 7.87186 15.5521 7.69194 15.0986 7.69194C14.6451 7.69194 14.2102 7.87186 13.8895 8.19212C13.5688 8.51239 13.3887 8.94675 13.3887 9.39967H13.3894ZM17.64 12.7492L13.1594 17.224C12.8978 17.485 12.7122 17.8121 12.6225 18.1704L12.2755 19.5581C12.1237 20.1625 12.6719 20.7092 13.2763 20.5583L14.6658 20.211C15.0244 20.1216 15.352 19.9366 15.6134 19.6756L20.0941 15.1993C20.4112 14.8725 20.5869 14.4342 20.5833 13.9792C20.5797 13.5241 20.397 13.0887 20.0748 12.767C19.7525 12.4452 19.3165 12.2629 18.8608 12.2595C18.4052 12.256 17.9664 12.4316 17.6393 12.7484L17.64 12.7492Z" fill="#D7B31B"/>
</svg>
