<svg width="36" height="36" viewBox="0 0 36 36" fill="none" xmlns="http://www.w3.org/2000/svg">
<circle cx="17.9898" cy="17.9898" r="17.9898" fill="#71C19A"/>
<path d="M13.0314 26.2725V27.779C13.0314 29.0056 14.0263 30.0001 15.2526 30.0001H20.3429C21.5694 30.0001 22.564 29.0053 22.564 27.779V26.2725H13.0314Z" fill="white"/>
<path d="M17.7973 6.00001C12.9461 5.99265 9 9.93777 9 14.7973C9 17.0494 9.85048 19.1049 11.2522 20.6567C12.2758 21.7956 12.9102 23.2125 13.0111 24.7243H22.5816C22.6825 23.2125 23.3169 21.7956 24.3405 20.6567C25.7419 19.1049 26.5926 17.0494 26.5926 14.7973C26.5947 9.93777 22.6485 5.99295 17.7971 6.00001H17.7973ZM20.3945 16.236L18.3225 19.6157C18.1474 19.901 17.8426 20.0584 17.5306 20.0584C17.3658 20.0584 17.198 20.0152 17.0477 19.9226C16.611 19.6548 16.4742 19.0843 16.7418 18.6478L17.9488 16.6788H15.9913C15.6557 16.6788 15.3467 16.4976 15.1828 16.2062C15.0192 15.9138 15.0263 15.5554 15.2003 15.269L17.2682 11.8852C17.5348 11.4485 18.1054 11.3106 18.542 11.5772C18.9787 11.8438 19.1167 12.4144 18.8501 12.8511L17.6442 14.8251H19.6049C19.9405 14.8251 20.2494 15.0062 20.4133 15.2989C20.5767 15.5924 20.5694 15.9496 20.3945 16.236H20.3945Z" fill="white"/>
</svg>
