<svg width="53" height="49" viewBox="0 0 53 49" fill="none" xmlns="http://www.w3.org/2000/svg">
<path d="M13.8429 0.557809C14.3852 0.606596 14.9064 0.854893 15.2853 1.29266L25.2054 12.6983C25.3802 12.9017 25.2169 13.136 24.7885 12.9722C23.0798 12.3341 20.8631 11.4881 18.2552 10.5765C17.7339 10.3975 17.5678 10.2807 17.226 9.88693L12.0023 3.87658C11.2422 3.00669 11.3676 1.74913 12.2828 1.02686C12.7423 0.664003 13.3033 0.511977 13.8428 0.55772L13.8429 0.557809Z" fill="#E4BF71"/>
<path d="M14.9292 10.6292L26.5192 14.8928C27.6124 15.2953 28.0412 15.5 28.8123 16.2519L31.4664 18.8281L42.4601 32.4996C43.5996 33.9171 43.7401 35.9874 42.6198 37.0569C41.4323 38.193 40.1071 38.0108 39.0202 37.1083L23.8201 24.4113C23.3602 24.025 23.0495 23.8411 22.495 23.6647L17.545 22.0891C16.6833 21.8117 16.2393 22.6776 17.0741 23.0174L22.2332 25.1101L37.8796 38.1694C38.6502 38.8132 39.5956 39.1817 40.4907 39.1573C40.9895 39.1447 41.06 39.2031 41.3991 39.5437C42.5609 40.7137 42.1056 41.6141 41.2586 42.0807C40.4999 42.4958 39.2313 42.3394 38.074 41.94L25.2837 37.3391C24.082 36.9262 23.494 36.7167 22.2599 35.9875L12.3668 30.4109C11.4438 29.8904 10.8745 30.9341 11.6264 31.3893L21.5012 37.3496C22.7994 38.1192 23.554 38.3946 24.759 38.8102L36.349 42.7889C36.5773 42.8674 36.8272 43.0194 36.7704 43.4315C36.6267 44.4765 35.8369 44.6284 34.8072 44.5631L23.7825 43.9019C22.4696 43.8221 21.2624 43.8548 20.0214 43.373L9.37554 39.6721C8.60492 39.3724 8.08186 40.3007 8.85157 40.6017L19.5505 44.9098C21.0698 45.4939 22.4706 45.4473 23.7033 45.524L33.4409 46.1025C33.8664 46.1308 34.1895 46.3342 34.0669 46.9005C33.8367 48.0025 32.5266 48.3819 31.5011 48.3819L11.2918 48.3845C9.07787 48.3845 7.46474 48.1106 6.28458 47.5299C5.10302 46.9444 4.30266 46.0553 3.66478 44.6283L0.665188 37.9284C-0.0340498 36.3546 0.000274325 34.715 0.000274325 32.807V25.4588C0.000274325 23.043 1.16216 20.7469 3.22046 18.4195L8.94107 11.9574C10.5249 10.1693 12.823 9.85486 14.9294 10.6289L14.9292 10.6292Z" fill="#38805D"/>
<path d="M32.2034 15.0256C33.2967 15.2491 34.0413 15.4691 35.1876 15.9386L40.2172 17.9916C42.3624 18.8658 43.4558 19.5672 43.9302 20.2724C44.4057 20.9733 44.4126 21.8192 44.144 23.2997L43.042 29.412C42.9285 30.0393 42.3474 30.214 41.9305 29.6925C40.7956 28.2803 38.5204 25.4537 38.5204 25.4537C37.3242 23.9696 37.6523 23.7122 38.1676 22.0468C38.4495 21.1425 37.7617 20.9875 37.4089 21.6374C36.6845 22.9725 35.8869 22.151 35.491 21.6304C33.8051 19.4079 32.1239 17.4373 30.0395 15.5877C29.7137 15.2693 29.7507 15.0646 30.3356 14.9452C30.9803 14.8111 31.6269 14.9086 32.2035 15.0254L32.2034 15.0256Z" fill="#38805D"/>
<path d="M45.2363 35.7343L52.1115 43.6383C52.2369 43.7821 52.2639 43.8827 52.2786 44.0208L52.5266 46.3155C52.5865 46.9114 52.1353 47.2808 51.5468 47.1135L49.2259 46.4627C49.0524 46.4139 48.9527 46.3664 48.8703 46.2719L42.7085 39.1856C42.4834 38.9294 42.3891 38.7195 42.7456 38.5104C43.0343 38.3357 43.2924 38.1162 43.5286 37.8762C44.1097 37.2946 44.577 36.5537 44.7248 35.7448C44.7769 35.473 44.9774 35.436 45.2364 35.7344L45.2363 35.7343Z" fill="#E4BF71"/>
</svg>
