<svg width="196" height="196" viewBox="0 0 196 196" fill="none" xmlns="http://www.w3.org/2000/svg">
<rect width="196" height="196" fill="#1E1E1E"/>
<rect x="-97" y="-324" width="390" height="844" rx="25" fill="white"/>
<circle cx="98" cy="98" r="98" fill="#3BCD84"/>
<path d="M67 87.6C66.7867 87.7067 66.68 87.5467 66.68 87.12C66.68 86.9067 66.8667 86.64 67.24 86.32C68.4133 85.5733 69.5067 84.56 70.52 83.28C71.5867 82 72.12 80.6133 72.12 79.12C72.12 77.8933 71.6667 76.9333 70.76 76.24C69.8533 75.5467 68.7067 75.04 67.32 74.72C65.9867 74.3467 64.6267 74.1067 63.24 74C61.9067 73.8933 60.8133 73.84 59.96 73.84C55.2667 73.84 50.6 74.3733 45.96 75.44C41.3733 76.5067 36.8133 77.76 32.28 79.2C27.8 80.64 23.3733 81.9733 19 83.2C14.6267 84.4267 10.3067 85.2267 6.04 85.6C4.49333 85.7067 3.24 85.3867 2.28 84.64C1.32 83.8933 0.626667 82.9067 0.2 81.68C-0.173333 80.4 -0.36 79.1467 -0.36 77.92C-0.36 76.9067 0.306667 75.84 1.64 74.72C3.02667 73.6 4.73333 72.56 6.76 71.6C8.84 70.5867 10.9467 69.7333 13.08 69.04C15.2667 68.2933 17.16 67.8133 18.76 67.6C19.1333 67.5467 19.5067 67.52 19.88 67.52C20.2533 67.4667 20.6 67.44 20.92 67.44C21.5067 67.44 22.0133 67.4933 22.44 67.6C22.92 67.7067 23.2133 67.92 23.32 68.24C20.7067 69.0933 18.3333 69.8933 16.2 70.64C14.12 71.3867 12.0667 72.16 10.04 72.96C7.42667 73.9733 5.56 74.88 4.44 75.68C3.32 76.48 2.76 77.1467 2.76 77.68C2.76 78.3733 3.64 78.8533 5.4 79.12C7.16 79.3867 9.32 79.4667 11.88 79.36C13.7467 79.2533 15.6933 79.04 17.72 78.72C19.8 78.3467 21.72 77.9733 23.48 77.6C25.24 77.1733 26.5733 76.8533 27.48 76.64C29.08 76.2667 31.1867 75.7333 33.8 75.04C36.4667 74.3467 39.4 73.6267 42.6 72.88C45.8533 72.1333 49.1333 71.52 52.44 71.04C55.7467 70.5067 58.84 70.24 61.72 70.24C62.6267 70.24 63.48 70.2667 64.28 70.32C65.08 70.3733 65.8267 70.4533 66.52 70.56C67.4267 70.72 68.4933 70.96 69.72 71.28C70.9467 71.5467 71.9867 72.08 72.84 72.88C73.6933 73.6267 74.0133 74.8 73.8 76.4C74.3867 77.5733 74.84 78.4533 75.16 79.04C75.48 79.6267 75.64 80.2133 75.64 80.8C75.64 80.96 75.64 81.12 75.64 81.28C75.64 81.44 75.6133 81.6 75.56 81.76C75.3467 83.04 74.7067 83.8933 73.64 84.32C72.6267 84.7467 71.5333 85.2267 70.36 85.76C69.88 85.9733 69.3733 86.2933 68.84 86.72C68.36 87.1467 67.7467 87.44 67 87.6ZM28.2 124.96C27.2933 124.96 26.4933 124.587 25.8 123.84C25.1067 123.147 24.5733 122.32 24.2 121.36C23.8267 120.4 23.64 119.52 23.64 118.72C23.64 116.693 24.2 114.32 25.32 111.6C26.4933 108.88 27.9867 106.053 29.8 103.12C31.6667 100.133 33.64 97.2533 35.72 94.48C37.8533 91.6533 39.88 89.12 41.8 86.88C43.7733 84.64 45.4 82.9067 46.68 81.68C46.36 81.36 46.2 80.9867 46.2 80.56C46.2 79.92 46.5467 79.28 47.24 78.64C47.9867 77.9467 48.7867 77.3067 49.64 76.72C50.4933 76.1333 51.16 75.6533 51.64 75.28C52.12 75.28 52.7867 75.4133 53.64 75.68C54.4933 75.8933 55.24 76.2133 55.88 76.64C56.5733 77.0667 56.92 77.6 56.92 78.24C56.92 78.4 56.8933 78.56 56.84 78.72C56.84 78.88 56.8133 79.04 56.76 79.2C56.5467 79.7867 55.9333 80.56 54.92 81.52C53.9067 82.48 52.84 83.4133 51.72 84.32C50.6533 85.2267 49.8267 85.9733 49.24 86.56C47.8533 87.9467 46.2 89.68 44.28 91.76C42.36 93.84 40.36 96.1067 38.28 98.56C36.2 100.96 34.28 103.467 32.52 106.08C30.76 108.64 29.32 111.147 28.2 113.6C27.08 116.053 26.52 118.32 26.52 120.4C26.52 121.413 26.68 122.267 27 122.96C27.32 123.707 28.0667 124.08 29.24 124.08V124.72C28.92 124.88 28.5733 124.96 28.2 124.96ZM49.0631 121.04C47.5698 121.04 46.5565 120.56 46.0231 119.6C45.5431 118.587 45.3831 117.573 45.5431 116.56C45.7565 115.173 46.2098 113.92 46.9031 112.8C47.6498 111.68 48.3965 110.613 49.1431 109.6C49.6765 108.907 50.0498 108.32 50.2631 107.84C50.5298 107.36 50.4498 107.093 50.0231 107.04C49.7565 107.253 49.3298 107.467 48.7431 107.68C48.1565 107.893 47.5698 108 46.9831 108C46.5031 108 46.0498 107.893 45.6231 107.68C45.1965 107.467 44.9031 107.093 44.7431 106.56C44.2098 107.413 43.7031 108.213 43.2231 108.96C42.7431 109.653 42.2898 110.32 41.8631 110.96C41.0631 112.08 40.3165 113.147 39.6231 114.16C38.9298 115.12 38.0231 116.24 36.9031 117.52C36.5298 117.947 36.1831 118.16 35.8631 118.16C35.5431 118.16 35.3831 117.973 35.3831 117.6C35.3831 117.387 35.4631 117.173 35.6231 116.96C36.8498 115.467 37.8631 114.187 38.6631 113.12C39.4631 112 40.3965 110.693 41.4631 109.2C42.5298 107.6 43.4631 105.813 44.2631 103.84C45.0631 101.867 45.7031 100.107 46.1831 98.56C46.6631 96.96 46.9298 96 46.9831 95.68C48.3698 96.2133 49.3298 96.8 49.8631 97.44C50.4498 98.08 50.7431 98.7733 50.7431 99.52C50.7431 100.533 50.2631 101.573 49.3031 102.64C48.3965 103.707 47.3298 104.693 46.1031 105.6C46.5831 106.293 47.1431 106.64 47.7831 106.64C48.4765 106.64 49.1698 106.347 49.8631 105.76C50.6098 105.173 51.1698 104.693 51.5431 104.32C52.3965 103.253 53.3298 102.72 54.3431 102.72C54.9298 102.72 55.4365 102.907 55.8631 103.28C56.3431 103.6 56.5831 104.027 56.5831 104.56C56.5831 104.827 56.5031 105.093 56.3431 105.36C55.5431 106.427 54.6365 107.733 53.6231 109.28C52.6098 110.827 51.6765 112.373 50.8231 113.92C50.0231 115.413 49.4365 116.693 49.0631 117.76C49.0098 117.973 48.9565 118.16 48.9031 118.32C48.9031 118.427 48.9031 118.533 48.9031 118.64C48.9031 119.067 49.0898 119.28 49.4631 119.28C49.7298 119.28 50.0498 119.173 50.4231 118.96C50.7965 118.747 51.0898 118.533 51.3031 118.32C52.2631 117.467 53.4631 116.133 54.9031 114.32C56.3431 112.507 57.6765 110.773 58.9031 109.12C59.6498 108.053 60.1565 107.52 60.4231 107.52C60.6898 107.52 60.6898 107.867 60.4231 108.56C60.2098 109.253 59.8098 110.053 59.2231 110.96C58.4231 112.08 57.4898 113.44 56.4231 115.04C55.4098 116.587 54.2631 117.973 52.9831 119.2C51.7565 120.427 50.4498 121.04 49.0631 121.04ZM60.0888 120.88C59.2354 120.88 58.5154 120.587 57.9288 120C57.3954 119.467 56.9954 118.827 56.7288 118.08C56.4621 117.333 56.3288 116.693 56.3288 116.16C56.3288 114.347 56.8888 112.427 58.0088 110.4C59.1288 108.373 60.5688 106.48 62.3288 104.72C64.1421 102.96 66.0354 101.52 68.0088 100.4C69.9821 99.28 71.8221 98.72 73.5288 98.72C74.7554 98.72 75.9821 99.5467 77.2088 101.2C77.3154 101.36 77.4221 101.573 77.5288 101.84C77.6888 102.107 77.7688 102.373 77.7688 102.64C77.7688 103.12 77.5821 103.44 77.2088 103.6C77.1554 103.653 77.0221 103.493 76.8088 103.12C76.6488 102.693 76.0888 102.48 75.1288 102.48C74.2221 102.48 73.0221 102.907 71.5288 103.76C70.0354 104.613 68.4621 105.733 66.8088 107.12C65.2088 108.507 63.7421 110 62.4088 111.6C61.1288 113.2 60.1954 114.747 59.6088 116.24C59.5021 116.613 59.3954 116.987 59.2888 117.36C59.1821 117.733 59.1288 118.053 59.1288 118.32C59.1288 118.8 59.2888 119.04 59.6088 119.04C59.9288 119.04 60.3554 118.853 60.8888 118.48C62.0088 117.68 63.1821 116.693 64.4088 115.52C65.6354 114.293 66.8088 113.04 67.9288 111.76C69.1021 110.427 70.0888 109.173 70.8888 108C71.6888 106.827 72.1954 105.867 72.4088 105.12C72.5154 104.693 73.1288 104.48 74.2488 104.48C75.1554 104.48 75.9288 104.693 76.5688 105.12C77.2088 105.493 77.3688 105.92 77.0488 106.4C76.0888 107.84 75.1554 109.36 74.2488 110.96C73.3421 112.507 72.6754 114.08 72.2488 115.68C72.1954 115.893 72.1421 116.08 72.0888 116.24C72.0888 116.4 72.0888 116.533 72.0888 116.64C72.0888 117.173 72.3021 117.44 72.7288 117.44C73.2088 117.44 73.7421 117.2 74.3288 116.72C75.4488 115.653 76.6221 114.293 77.8488 112.64C79.1288 110.933 80.4354 109.253 81.7688 107.6C82.2488 107.067 82.5688 106.8 82.7288 106.8C82.8888 106.8 82.9688 106.933 82.9688 107.2C82.9688 107.413 82.9154 107.627 82.8088 107.84C82.5954 108.373 82.3021 108.933 81.9288 109.52C81.5554 110.053 81.2088 110.533 80.8888 110.96C80.6221 111.333 80.1688 112 79.5288 112.96C78.8888 113.92 78.1421 114.933 77.2888 116C76.4354 117.067 75.5554 118 74.6488 118.8C73.7421 119.547 72.8888 119.92 72.0888 119.92C70.9688 119.92 70.0621 119.573 69.3688 118.88C68.7288 118.133 68.4088 117.467 68.4088 116.88C68.4088 116.133 68.4354 115.627 68.4888 115.36C68.5954 114.827 68.7554 114.187 68.9688 113.44C69.2354 112.693 69.4754 111.973 69.6888 111.28C69.2621 111.867 68.6221 112.693 67.7688 113.76C66.9154 114.827 65.9821 115.92 64.9688 117.04C64.0088 118.107 63.0754 119.013 62.1688 119.76C61.2621 120.507 60.5688 120.88 60.0888 120.88ZM92.6913 120.96C91.5179 120.96 90.5313 120.613 89.7313 119.92C88.9846 119.227 88.6113 118.133 88.6113 116.64C88.6113 115.36 88.8246 114.08 89.2513 112.8C89.6779 111.467 90.1313 110.267 90.6113 109.2C91.1446 108.133 91.5713 107.333 91.8913 106.8C93.0646 104.613 93.4379 103.52 93.0113 103.52C92.6379 103.52 91.7846 104.213 90.4513 105.6C89.1713 106.933 87.5979 108.827 85.7313 111.28C84.0779 113.413 82.9846 115.093 82.4513 116.32C81.9179 117.493 81.5713 118.453 81.4113 119.2C81.3579 119.68 80.9579 119.92 80.2113 119.92C79.6246 119.92 79.0379 119.68 78.4513 119.2C77.8646 118.667 77.5713 117.947 77.5713 117.04C77.5713 116.773 77.8113 116.08 78.2913 114.96C78.7713 113.84 79.3313 112.533 79.9713 111.04C80.6646 109.547 81.3313 108.133 81.9713 106.8C82.6113 105.467 83.0913 104.453 83.4113 103.76C82.7713 103.387 82.6379 102.907 83.0113 102.32L85.3313 98.08C85.4913 97.9733 85.9713 97.7867 86.7713 97.52C87.6246 97.2 88.3979 97.04 89.0913 97.04C90.0513 97.04 90.5313 97.36 90.5313 98C90.5313 98.32 90.3179 98.8533 89.8913 99.6C89.7313 99.8667 89.3579 100.533 88.7713 101.6C88.1846 102.613 87.5179 103.813 86.7713 105.2C86.0779 106.533 85.4113 107.813 84.7713 109.04C84.1846 110.213 83.7579 111.093 83.4913 111.68C83.4913 111.733 83.4646 111.787 83.4113 111.84C83.4113 111.84 83.4113 111.867 83.4113 111.92C83.4113 112.133 83.5979 111.947 83.9713 111.36C84.3979 110.773 84.7179 110.347 84.9313 110.08C86.5313 107.893 88.1846 105.867 89.8913 104C91.6513 102.133 93.4913 100.293 95.4113 98.48C95.7846 98.6933 96.3179 98.8267 97.0113 98.88C97.7579 98.9333 98.4513 99.0667 99.0913 99.28C99.7313 99.44 100.051 99.8667 100.051 100.56C100.051 101.627 99.5979 102.827 98.6913 104.16C97.8379 105.493 96.8779 106.853 95.8113 108.24C94.7979 109.573 93.8379 111.173 92.9313 113.04C92.0246 114.907 91.5713 116.48 91.5713 117.76C91.5713 118.827 91.9179 119.36 92.6113 119.36C92.9313 119.36 93.3579 119.2 93.8913 118.88C94.3179 118.613 95.1446 117.947 96.3713 116.88C97.5979 115.76 98.9046 114.213 100.291 112.24C100.718 111.6 101.145 111.28 101.571 111.28C101.785 111.28 101.918 111.387 101.971 111.6C102.025 111.76 101.998 111.973 101.891 112.24C98.1579 118.053 95.0913 120.96 92.6913 120.96ZM104.401 143.6C103.974 143.6 103.574 143.547 103.201 143.44C102.827 143.333 102.507 143.12 102.241 142.8C102.027 142.587 101.921 142.16 101.921 141.52C101.921 140.4 102.241 138.8 102.881 136.72C103.521 134.693 104.347 132.427 105.361 129.92C106.427 127.413 107.547 124.88 108.721 122.32C109.894 119.813 110.987 117.52 112.001 115.44C113.067 113.307 113.921 111.653 114.561 110.48C114.134 111.067 113.441 111.947 112.481 113.12C111.521 114.24 110.454 115.413 109.281 116.64C108.107 117.813 107.014 118.827 106.001 119.68C104.987 120.48 104.241 120.88 103.761 120.88C102.907 120.88 102.187 120.587 101.601 120C101.067 119.467 100.667 118.827 100.401 118.08C100.134 117.333 100.001 116.693 100.001 116.16C100.001 114.347 100.561 112.427 101.681 110.4C102.801 108.373 104.241 106.48 106.001 104.72C107.814 102.96 109.707 101.52 111.681 100.4C113.654 99.28 115.494 98.72 117.201 98.72C118.427 98.72 119.654 99.5467 120.881 101.2C120.987 101.36 121.094 101.573 121.201 101.84C121.361 102.107 121.441 102.373 121.441 102.64C121.441 103.12 121.254 103.44 120.881 103.6C120.827 103.653 120.694 103.493 120.481 103.12C120.321 102.693 119.761 102.48 118.801 102.48C117.894 102.48 116.694 102.907 115.201 103.76C113.707 104.613 112.134 105.733 110.481 107.12C108.881 108.507 107.414 110 106.081 111.6C104.801 113.2 103.867 114.747 103.281 116.24C103.174 116.613 103.067 116.987 102.961 117.36C102.854 117.733 102.801 118.053 102.801 118.32C102.801 118.8 102.961 119.04 103.281 119.04C103.601 119.04 104.027 118.853 104.561 118.48C105.681 117.68 106.854 116.693 108.081 115.52C109.307 114.293 110.481 113.04 111.601 111.76C112.774 110.427 113.761 109.173 114.561 108C115.361 106.827 115.867 105.867 116.081 105.12C116.241 104.853 116.427 104.693 116.641 104.64C116.854 104.533 117.281 104.48 117.921 104.48C118.294 104.48 118.827 104.56 119.521 104.72C120.267 104.827 120.907 105.013 121.441 105.28C121.974 105.547 122.161 105.84 122.001 106.16C119.921 108.667 117.974 111.573 116.161 114.88C114.347 118.133 112.694 121.493 111.201 124.96C109.707 128.48 108.374 131.867 107.201 135.12C106.721 136.613 106.481 137.84 106.481 138.8C106.481 139.653 106.721 140.08 107.201 140.08C107.521 140.08 107.894 139.76 108.321 139.12C108.747 138.48 108.987 137.6 109.041 136.48C109.147 135.413 109.521 133.92 110.161 132C110.801 130.08 111.601 128.027 112.561 125.84C113.574 123.707 114.587 121.813 115.601 120.16C116.774 118.293 117.974 116.587 119.201 115.04C120.427 113.493 121.467 112.267 122.321 111.36C122.641 111.04 122.881 110.88 123.041 110.88C123.147 110.88 123.201 110.987 123.201 111.2C123.201 111.787 122.961 112.453 122.481 113.2C121.841 114.107 121.041 115.2 120.081 116.48C119.121 117.76 118.161 119.173 117.201 120.72C115.387 123.6 114.107 126.107 113.361 128.24C112.667 130.373 112.241 132.24 112.081 133.84C111.921 135.44 111.761 136.933 111.601 138.32C111.387 139.973 110.827 141.147 109.921 141.84C109.014 142.587 108.294 143.173 107.761 143.6C107.654 143.493 107.494 143.44 107.281 143.44C107.121 143.44 106.934 143.44 106.721 143.44C106.347 143.44 105.974 143.467 105.601 143.52C105.227 143.573 104.827 143.6 104.401 143.6ZM125.651 120.24C124.531 120.24 123.597 120 122.851 119.52C122.157 119.04 121.811 118.373 121.811 117.52C121.811 116.293 122.184 114.853 122.931 113.2C123.677 111.493 124.371 109.973 125.011 108.64C124.957 108.48 124.877 108.32 124.771 108.16C124.717 107.947 124.797 107.707 125.011 107.44C126.344 105.467 127.624 103.76 128.851 102.32C130.077 100.827 130.957 100.08 131.491 100.08C131.971 100.08 132.584 100.347 133.331 100.88C134.077 101.36 134.691 101.84 135.171 102.32C134.264 103.44 133.251 104.72 132.131 106.16C131.064 107.547 130.077 108.987 129.171 110.48C128.264 111.92 127.571 113.28 127.091 114.56C126.824 115.467 126.691 116.027 126.691 116.24C126.691 116.613 126.797 116.8 127.011 116.8C127.384 116.8 127.997 116.373 128.851 115.52C130.077 114.293 131.411 112.747 132.851 110.88C134.291 108.96 135.677 107.067 137.011 105.2C138.344 103.333 139.437 101.893 140.291 100.88C140.931 100.08 141.597 99.68 142.291 99.68C142.877 99.68 143.437 99.8933 143.971 100.32C144.557 100.747 145.117 101.28 145.651 101.92C144.904 102.88 143.971 104.187 142.851 105.84C141.784 107.44 140.797 109.093 139.891 110.8C138.984 112.507 138.397 114 138.131 115.28C138.077 115.493 138.024 115.733 137.971 116C137.971 116.267 137.971 116.507 137.971 116.72C137.971 117.52 138.184 117.92 138.611 117.92C138.984 117.92 139.491 117.627 140.131 117.04C140.931 116.293 141.757 115.333 142.611 114.16C143.464 112.987 144.397 111.76 145.411 110.48C145.837 110 146.211 109.547 146.531 109.12C146.904 108.64 147.277 108.16 147.651 107.68C148.451 106.667 148.957 106.16 149.171 106.16C149.331 106.16 149.277 106.453 149.011 107.04C148.797 107.627 148.477 108.293 148.051 109.04C147.624 109.787 147.197 110.453 146.771 111.04C146.291 111.787 145.757 112.613 145.171 113.52C144.584 114.373 143.944 115.2 143.251 116C142.451 116.96 141.677 117.84 140.931 118.64C140.184 119.44 139.331 119.84 138.371 119.84C136.824 119.84 135.651 119.467 134.851 118.72C134.104 117.973 133.731 117.12 133.731 116.16C133.731 115.253 133.971 114.16 134.451 112.88C134.984 111.6 135.437 110.48 135.811 109.52C135.437 109.84 134.824 110.587 133.971 111.76C133.171 112.88 132.237 114.107 131.171 115.44C130.157 116.72 129.144 117.84 128.131 118.8C127.117 119.76 126.291 120.24 125.651 120.24ZM161.903 97.68C160.89 97.4667 159.956 96.9333 159.103 96.08C158.303 95.2267 158.01 94.2667 158.223 93.2C158.33 92.6133 158.543 92.24 158.863 92.08C159.183 91.92 159.77 91.7867 160.623 91.68C161.583 91.5733 162.223 91.4933 162.543 91.44C162.916 91.3867 163.263 91.3333 163.583 91.28C163.956 91.1733 164.623 91.04 165.583 90.88C165.796 90.8267 166.063 90.6933 166.383 90.48C166.703 90.2667 166.81 90.4 166.703 90.88C166.703 91.0933 166.516 91.36 166.143 91.68C165.823 91.9467 165.53 92.1333 165.263 92.24C164.676 92.5067 164.01 92.8267 163.263 93.2C162.57 93.5733 162.036 94.08 161.663 94.72C161.503 95.04 161.423 95.3333 161.423 95.6C161.423 96.3467 161.69 96.7733 162.223 96.88C162.33 96.88 162.383 96.96 162.383 97.12C162.383 97.2267 162.33 97.36 162.223 97.52C162.116 97.68 162.01 97.7333 161.903 97.68ZM151.983 121.12C150.01 121.12 148.623 120.507 147.823 119.28C147.076 118.053 146.703 116.613 146.703 114.96C146.703 112.453 147.156 110.373 148.063 108.72C147.53 108.453 147.396 108.133 147.663 107.76C148.303 106.907 149.05 105.893 149.903 104.72C150.756 103.547 151.583 102.48 152.383 101.52C153.236 100.56 153.93 100 154.463 99.84C154.623 99.7867 154.836 99.76 155.103 99.76C155.956 99.76 156.73 100.053 157.423 100.64C158.17 101.227 158.65 101.6 158.863 101.76C157.583 103.04 156.303 104.507 155.023 106.16C153.796 107.813 152.756 109.573 151.903 111.44C151.05 113.307 150.623 115.2 150.623 117.12C150.623 117.813 150.756 118.32 151.023 118.64C151.29 118.907 151.61 119.04 151.983 119.04C152.783 119.04 153.61 118.667 154.463 117.92C155.423 117.067 156.623 115.813 158.063 114.16C159.556 112.453 160.916 110.773 162.143 109.12C162.89 108.053 163.396 107.52 163.663 107.52C163.93 107.52 163.93 107.867 163.663 108.56C163.45 109.253 163.05 110.053 162.463 110.96C161.716 111.973 160.81 113.28 159.743 114.88C158.676 116.427 157.53 117.813 156.303 119.04C155.61 119.733 154.863 120.24 154.063 120.56C153.316 120.933 152.623 121.12 151.983 121.12ZM167.53 121.36C165.61 121.36 164.223 120.8 163.37 119.68C162.57 118.56 162.17 117.067 162.17 115.2C162.17 112.853 162.677 110.107 163.69 106.96C164.757 103.813 166.143 100.507 167.85 97.04C169.557 93.5733 171.423 90.2133 173.45 86.96C175.53 83.6533 177.583 80.6667 179.61 78C181.69 75.3333 183.61 73.2533 185.37 71.76C187.183 70.2133 188.623 69.4933 189.69 69.6C190.65 69.7067 191.343 70.0267 191.77 70.56C192.25 71.04 192.677 71.5733 193.05 72.16C193.423 72.6933 193.93 73.12 194.57 73.44C194.57 74.7733 193.93 76.4 192.65 78.32C191.423 80.24 189.903 82.2933 188.09 84.48C187.183 85.5467 185.983 86.96 184.49 88.72C183.05 90.48 181.477 92.3733 179.77 94.4C178.063 96.4267 176.437 98.4267 174.89 100.4C173.343 102.373 172.01 104.133 170.89 105.68C169.823 107.173 169.183 108.267 168.97 108.96C168.917 109.333 168.783 109.52 168.57 109.52C168.25 109.52 168.143 109.253 168.25 108.72C168.357 108.027 168.917 106.88 169.93 105.28C170.997 103.627 172.277 101.76 173.77 99.68C175.317 97.6 176.89 95.5467 178.49 93.52C180.09 91.44 181.503 89.6533 182.73 88.16C183.957 86.6133 184.757 85.6 185.13 85.12C185.93 84.16 186.703 83.2267 187.45 82.32C188.197 81.36 188.863 80.4533 189.45 79.6C190.837 77.68 191.53 76.2933 191.53 75.44C191.53 74.96 191.157 74.96 190.41 75.44C189.717 75.8667 188.677 76.9067 187.29 78.56C185.957 80.1067 184.383 82.0533 182.57 84.4C180.757 86.6933 178.89 89.2 176.97 91.92C175.05 94.64 173.263 97.44 171.61 100.32C169.957 103.2 168.623 106 167.61 108.72C166.597 111.387 166.09 113.813 166.09 116C166.09 117.333 166.303 118.267 166.73 118.8C167.157 119.333 167.69 119.6 168.33 119.6C169.717 119.6 171.237 118.693 172.89 116.88C173.957 115.813 175.05 114.48 176.17 112.88C177.343 111.28 178.25 109.92 178.89 108.8C180.117 106.72 180.917 105.68 181.29 105.68C181.397 105.68 181.45 105.76 181.45 105.92C181.45 105.973 181.423 106.053 181.37 106.16C181.37 106.267 181.343 106.4 181.29 106.56C180.757 108.48 179.823 110.427 178.49 112.4C177.157 114.373 175.77 116.187 174.33 117.84C173.263 119.12 172.117 120.027 170.89 120.56C169.717 121.093 168.597 121.36 167.53 121.36Z" fill="white"/>
</svg>
