<svg width="18" height="18" viewBox="0 0 18 18" fill="none" xmlns="http://www.w3.org/2000/svg">
<g clip-path="url(#clip0_710_4341)">
<rect width="18" height="18" fill="white"/>
<path d="M4 8.1H6V9.9H4V8.1ZM18 3.6V16.2C18 17.19 17.1 18 16 18H2C1.46957 18 0.960859 17.8104 0.585786 17.4728C0.210714 17.1352 0 16.6774 0 16.2L0.00999999 3.6C0.00999999 2.61 0.89 1.8 2 1.8H3V0H5V1.8H13V0H15V1.8H16C17.1 1.8 18 2.61 18 3.6ZM2 5.4H16V3.6H2V5.4ZM16 16.2V7.2H2V16.2H16ZM12 9.9H14V8.1H12V9.9ZM8 9.9H10V8.1H8V9.9Z" fill="#38805D"/>
</g>
<defs>
<clipPath id="clip0_710_4341">
<rect width="18" height="18" fill="white"/>
</clipPath>
</defs>
</svg>
