<svg width="382" height="216" viewBox="0 0 382 216" fill="none" xmlns="http://www.w3.org/2000/svg">
<g clip-path="url(#clip0_189_2627)">
<path d="M60.2107 98.0738C52.5883 98.0738 45.2782 95.0411 39.8884 89.6427C34.4985 84.2444 31.4706 76.9227 31.4706 69.2883C31.4706 61.6539 34.4985 54.3321 39.8884 48.9338C45.2782 43.5354 52.5883 40.5027 60.2107 40.5027H321.788C329.41 40.5027 336.72 43.5354 342.11 48.9338C347.5 54.3321 350.528 61.6539 350.528 69.2883C350.528 76.9227 347.5 84.2444 342.11 89.6427C336.72 95.0411 329.41 98.0738 321.788 98.0738H60.2107Z" fill="#E6E6E6"/>
<path d="M60.2106 44.2573C53.5825 44.2573 47.2259 46.8945 42.5391 51.5887C37.8523 56.2829 35.2192 62.6496 35.2192 69.2883C35.2192 75.9269 37.8523 82.2936 42.5391 86.9878C47.2259 91.682 53.5825 94.3192 60.2106 94.3192H321.787C328.416 94.3192 334.772 91.682 339.459 86.9878C344.146 82.2936 346.779 75.9269 346.779 69.2883C346.779 62.6496 344.146 56.2829 339.459 51.5887C334.772 46.8945 328.416 44.2573 321.787 44.2573H60.2106Z" fill="white"/>
<path d="M87.5624 44.2574H86.7294V94.3193H87.5624V44.2574Z" fill="#E6E6E6"/>
<path d="M139.558 44.2574H138.725V94.3193H139.558V44.2574Z" fill="#E6E6E6"/>
<path d="M191.624 44.2574H190.791V94.3193H191.624V44.2574Z" fill="#E6E6E6"/>
<path d="M243.273 44.2574H242.44V94.3193H243.273V44.2574Z" fill="#E6E6E6"/>
<path d="M295.338 44.2574H294.505V94.3193H295.338V44.2574Z" fill="#E6E6E6"/>
<path d="M101.104 61.779C100.945 61.7787 100.788 61.8097 100.642 61.8703C100.495 61.9309 100.362 62.0198 100.25 62.132C100.137 62.2442 100.048 62.3775 99.9875 62.5242C99.9268 62.6709 99.8955 62.8282 99.8955 62.987C99.8955 63.1458 99.9268 63.3031 99.9875 63.4498C100.048 63.5965 100.137 63.7298 100.25 63.842C100.362 63.9542 100.495 64.0431 100.642 64.1037C100.788 64.1643 100.945 64.1953 101.104 64.195H125.57C125.729 64.1953 125.886 64.1644 126.032 64.1039C126.178 64.0435 126.312 63.9548 126.424 63.8428C126.536 63.7309 126.625 63.5979 126.686 63.4515C126.747 63.305 126.778 63.148 126.779 62.9894C126.779 62.8307 126.748 62.6736 126.688 62.5269C126.627 62.3802 126.539 62.2469 126.427 62.1345C126.315 62.0221 126.183 61.9328 126.036 61.8718C125.89 61.8109 125.733 61.7793 125.575 61.779H101.104Z" fill="#E6E6E6"/>
<path d="M101.104 68.0367C100.945 68.0365 100.788 68.0675 100.642 68.1281C100.495 68.1886 100.362 68.2776 100.25 68.3898C100.137 68.502 100.048 68.6352 99.9875 68.7819C99.9268 68.9286 99.8955 69.0859 99.8955 69.2448C99.8955 69.4036 99.9268 69.5608 99.9875 69.7075C100.048 69.8543 100.137 69.9875 100.25 70.0997C100.362 70.2119 100.495 70.3009 100.642 70.3614C100.788 70.422 100.945 70.453 101.104 70.4527H125.57C125.729 70.4531 125.886 70.4221 126.032 70.3617C126.178 70.3013 126.312 70.2125 126.424 70.1006C126.536 69.9886 126.625 69.8556 126.686 69.7092C126.747 69.5628 126.778 69.4057 126.779 69.2471C126.779 69.0885 126.748 68.9313 126.688 68.7846C126.627 68.638 126.539 68.5046 126.427 68.3922C126.315 68.2798 126.183 68.1906 126.036 68.1296C125.89 68.0686 125.733 68.0371 125.575 68.0367H101.104Z" fill="#E6E6E6"/>
<path d="M101.104 74.2945C100.945 74.2942 100.788 74.3252 100.642 74.3858C100.495 74.4464 100.362 74.5353 100.25 74.6475C100.137 74.7597 100.048 74.893 99.9875 75.0397C99.9268 75.1864 99.8955 75.3437 99.8955 75.5025C99.8955 75.6613 99.9268 75.8186 99.9875 75.9653C100.048 76.112 100.137 76.2453 100.25 76.3575C100.362 76.4697 100.495 76.5586 100.642 76.6192C100.788 76.6798 100.945 76.7108 101.104 76.7105H125.57C125.729 76.7108 125.886 76.6799 126.032 76.6194C126.178 76.559 126.312 76.4703 126.424 76.3583C126.536 76.2464 126.625 76.1134 126.686 75.967C126.747 75.8205 126.778 75.6635 126.779 75.5049C126.779 75.3462 126.748 75.1891 126.688 75.0424C126.627 74.8957 126.539 74.7624 126.427 74.65C126.315 74.5376 126.183 74.4483 126.036 74.3873C125.89 74.3264 125.733 74.2948 125.575 74.2945H101.104Z" fill="#E6E6E6"/>
<path d="M152.753 61.779C152.594 61.7787 152.437 61.8097 152.291 61.8703C152.144 61.9309 152.011 62.0198 151.898 62.132C151.786 62.2442 151.697 62.3775 151.636 62.5242C151.576 62.6709 151.544 62.8282 151.544 62.987C151.544 63.1458 151.576 63.3031 151.636 63.4498C151.697 63.5965 151.786 63.7298 151.898 63.842C152.011 63.9542 152.144 64.0431 152.291 64.1037C152.437 64.1643 152.594 64.1953 152.753 64.195H177.219C177.378 64.1953 177.535 64.1643 177.681 64.1037C177.828 64.0431 177.961 63.9542 178.073 63.842C178.186 63.7298 178.275 63.5965 178.336 63.4498C178.396 63.3031 178.428 63.1458 178.428 62.987C178.428 62.8282 178.396 62.6709 178.336 62.5242C178.275 62.3775 178.186 62.2442 178.073 62.132C177.961 62.0198 177.828 61.9309 177.681 61.8703C177.535 61.8097 177.378 61.7787 177.219 61.779H152.753Z" fill="#3BCD84"/>
<path d="M152.753 68.0367C152.594 68.0365 152.437 68.0675 152.291 68.1281C152.144 68.1886 152.011 68.2776 151.898 68.3898C151.786 68.502 151.697 68.6352 151.636 68.7819C151.576 68.9286 151.544 69.0859 151.544 69.2448C151.544 69.4036 151.576 69.5608 151.636 69.7075C151.697 69.8543 151.786 69.9875 151.898 70.0997C152.011 70.2119 152.144 70.3009 152.291 70.3614C152.437 70.422 152.594 70.453 152.753 70.4527H177.219C177.378 70.453 177.535 70.422 177.681 70.3614C177.828 70.3009 177.961 70.2119 178.073 70.0997C178.186 69.9875 178.275 69.8543 178.336 69.7075C178.396 69.5608 178.428 69.4036 178.428 69.2448C178.428 69.0859 178.396 68.9286 178.336 68.7819C178.275 68.6352 178.186 68.502 178.073 68.3898C177.961 68.2776 177.828 68.1886 177.681 68.1281C177.535 68.0675 177.378 68.0365 177.219 68.0367H152.753Z" fill="#3BCD84"/>
<path d="M152.753 74.2945C152.594 74.2942 152.437 74.3252 152.291 74.3858C152.144 74.4464 152.011 74.5353 151.898 74.6475C151.786 74.7597 151.697 74.893 151.636 75.0397C151.576 75.1864 151.544 75.3437 151.544 75.5025C151.544 75.6613 151.576 75.8186 151.636 75.9653C151.697 76.112 151.786 76.2453 151.898 76.3575C152.011 76.4697 152.144 76.5586 152.291 76.6192C152.437 76.6798 152.594 76.7108 152.753 76.7105H177.219C177.378 76.7108 177.535 76.6798 177.681 76.6192C177.828 76.5586 177.961 76.4697 178.073 76.3575C178.186 76.2453 178.275 76.112 178.336 75.9653C178.396 75.8186 178.428 75.6613 178.428 75.5025C178.428 75.3437 178.396 75.1864 178.336 75.0397C178.275 74.893 178.186 74.7597 178.073 74.6475C177.961 74.5353 177.828 74.4464 177.681 74.3858C177.535 74.3252 177.378 74.2942 177.219 74.2945H152.753Z" fill="#3BCD84"/>
<path d="M204.818 61.779C204.499 61.7796 204.193 61.9071 203.967 62.1336C203.741 62.3601 203.614 62.667 203.614 62.987C203.614 63.307 203.741 63.6139 203.967 63.8404C204.193 64.0669 204.499 64.1944 204.818 64.195H229.285C229.443 64.1953 229.6 64.1643 229.747 64.1037C229.893 64.0431 230.027 63.9542 230.139 63.842C230.251 63.7298 230.34 63.5965 230.401 63.4498C230.462 63.3031 230.493 63.1458 230.493 62.987C230.493 62.8282 230.462 62.6709 230.401 62.5242C230.34 62.3775 230.251 62.2442 230.139 62.132C230.027 62.0198 229.893 61.9309 229.747 61.8703C229.6 61.8097 229.443 61.7787 229.285 61.779H204.818Z" fill="#E6E6E6"/>
<path d="M204.818 68.0367C204.499 68.0373 204.193 68.1649 203.967 68.3914C203.741 68.6178 203.614 68.9248 203.614 69.2448C203.614 69.5647 203.741 69.8717 203.967 70.0981C204.193 70.3246 204.499 70.4521 204.818 70.4527H229.285C229.443 70.453 229.6 70.422 229.747 70.3614C229.893 70.3009 230.027 70.2119 230.139 70.0997C230.251 69.9875 230.34 69.8543 230.401 69.7075C230.462 69.5608 230.493 69.4036 230.493 69.2448C230.493 69.0859 230.462 68.9286 230.401 68.7819C230.34 68.6352 230.251 68.502 230.139 68.3898C230.027 68.2776 229.893 68.1886 229.747 68.1281C229.6 68.0675 229.443 68.0365 229.285 68.0367H204.818Z" fill="#E6E6E6"/>
<path d="M204.818 74.2945C204.499 74.2951 204.193 74.4226 203.967 74.6491C203.741 74.8756 203.614 75.1825 203.614 75.5025C203.614 75.8225 203.741 76.1294 203.967 76.3559C204.193 76.5824 204.499 76.7099 204.818 76.7105H229.285C229.443 76.7108 229.6 76.6798 229.747 76.6192C229.893 76.5586 230.027 76.4697 230.139 76.3575C230.251 76.2453 230.34 76.112 230.401 75.9653C230.462 75.8186 230.493 75.6613 230.493 75.5025C230.493 75.3437 230.462 75.1864 230.401 75.0397C230.34 74.893 230.251 74.7597 230.139 74.6475C230.027 74.5353 229.893 74.4464 229.747 74.3858C229.6 74.3252 229.443 74.2942 229.285 74.2945H204.818Z" fill="#E6E6E6"/>
<path d="M256.676 61.779C256.356 61.7796 256.05 61.9071 255.824 62.1336C255.598 62.3601 255.472 62.667 255.472 62.987C255.472 63.307 255.598 63.6139 255.824 63.8404C256.05 64.0669 256.356 64.1944 256.676 64.195H281.142C281.301 64.1953 281.458 64.1643 281.604 64.1037C281.751 64.0431 281.884 63.9542 281.996 63.842C282.108 63.7298 282.198 63.5965 282.258 63.4498C282.319 63.3031 282.35 63.1458 282.35 62.987C282.35 62.8282 282.319 62.6709 282.258 62.5242C282.198 62.3775 282.108 62.2442 281.996 62.132C281.884 62.0198 281.751 61.9309 281.604 61.8703C281.458 61.8097 281.301 61.7787 281.142 61.779H256.676Z" fill="#E6E6E6"/>
<path d="M256.676 68.0367C256.356 68.0373 256.05 68.1649 255.824 68.3914C255.598 68.6178 255.472 68.9248 255.472 69.2448C255.472 69.5647 255.598 69.8717 255.824 70.0981C256.05 70.3246 256.356 70.4521 256.676 70.4527H281.142C281.301 70.453 281.458 70.422 281.604 70.3614C281.751 70.3009 281.884 70.2119 281.996 70.0997C282.108 69.9875 282.198 69.8543 282.258 69.7075C282.319 69.5608 282.35 69.4036 282.35 69.2448C282.35 69.0859 282.319 68.9286 282.258 68.7819C282.198 68.6352 282.108 68.502 281.996 68.3898C281.884 68.2776 281.751 68.1886 281.604 68.1281C281.458 68.0675 281.301 68.0365 281.142 68.0367H256.676Z" fill="#E6E6E6"/>
<path d="M256.676 74.2945C256.356 74.2951 256.05 74.4226 255.824 74.6491C255.598 74.8756 255.472 75.1825 255.472 75.5025C255.472 75.8225 255.598 76.1294 255.824 76.3559C256.05 76.5824 256.356 76.7099 256.676 76.7105H281.142C281.301 76.7108 281.458 76.6798 281.604 76.6192C281.751 76.5586 281.884 76.4697 281.996 76.3575C282.108 76.2453 282.198 76.112 282.258 75.9653C282.319 75.8186 282.35 75.6613 282.35 75.5025C282.35 75.3437 282.319 75.1864 282.258 75.0397C282.198 74.893 282.108 74.7597 281.996 74.6475C281.884 74.5353 281.751 74.4464 281.604 74.3858C281.458 74.3252 281.301 74.2942 281.142 74.2945H256.676Z" fill="#E6E6E6"/>
<path d="M307.283 61.779C306.964 61.7796 306.657 61.9071 306.432 62.1336C306.206 62.3601 306.079 62.667 306.079 62.987C306.079 63.307 306.206 63.6139 306.432 63.8404C306.657 64.0669 306.964 64.1944 307.283 64.195H331.749C331.908 64.1953 332.065 64.1643 332.212 64.1037C332.358 64.0431 332.492 63.9542 332.604 63.842C332.716 63.7298 332.805 63.5965 332.866 63.4498C332.927 63.3031 332.958 63.1458 332.958 62.987C332.958 62.8282 332.927 62.6709 332.866 62.5242C332.805 62.3775 332.716 62.2442 332.604 62.132C332.492 62.0198 332.358 61.9309 332.212 61.8703C332.065 61.8097 331.908 61.7787 331.749 61.779H307.283Z" fill="#E6E6E6"/>
<path d="M307.283 68.0367C306.964 68.0373 306.657 68.1649 306.432 68.3914C306.206 68.6178 306.079 68.9248 306.079 69.2448C306.079 69.5647 306.206 69.8717 306.432 70.0981C306.657 70.3246 306.964 70.4521 307.283 70.4527H331.749C331.908 70.453 332.065 70.422 332.212 70.3614C332.358 70.3009 332.492 70.2119 332.604 70.0997C332.716 69.9875 332.805 69.8543 332.866 69.7075C332.927 69.5608 332.958 69.4036 332.958 69.2448C332.958 69.0859 332.927 68.9286 332.866 68.7819C332.805 68.6352 332.716 68.502 332.604 68.3898C332.492 68.2776 332.358 68.1886 332.212 68.1281C332.065 68.0675 331.908 68.0365 331.749 68.0367H307.283Z" fill="#E6E6E6"/>
<path d="M307.283 74.2945C306.964 74.2951 306.657 74.4226 306.432 74.6491C306.206 74.8756 306.079 75.1825 306.079 75.5025C306.079 75.8225 306.206 76.1294 306.432 76.3559C306.657 76.5824 306.964 76.7099 307.283 76.7105H331.749C331.908 76.7108 332.065 76.6798 332.212 76.6192C332.358 76.5586 332.492 76.4697 332.604 76.3575C332.716 76.2453 332.805 76.112 332.866 75.9653C332.927 75.8186 332.958 75.6613 332.958 75.5025C332.958 75.3437 332.927 75.1864 332.866 75.0397C332.805 74.893 332.716 74.7597 332.604 74.6475C332.492 74.5353 332.358 74.4464 332.212 74.3858C332.065 74.3252 331.908 74.2942 331.749 74.2945H307.283Z" fill="#E6E6E6"/>
<path d="M49.0384 61.779C48.719 61.7796 48.4128 61.9071 48.1871 62.1336C47.9614 62.3601 47.8346 62.667 47.8346 62.987C47.8346 63.307 47.9614 63.6139 48.1871 63.8404C48.4128 64.0669 48.719 64.1944 49.0384 64.195H73.5049C73.6633 64.1953 73.8201 64.1644 73.9666 64.1039C74.113 64.0435 74.2462 63.9548 74.3584 63.8428C74.4706 63.7309 74.5597 63.5979 74.6206 63.4515C74.6815 63.305 74.713 63.148 74.7133 62.9894C74.7136 62.8307 74.6827 62.6736 74.6224 62.5269C74.5621 62.3802 74.4735 62.2469 74.3617 62.1345C74.2499 62.0221 74.1172 61.9328 73.9709 61.8718C73.8247 61.8108 73.668 61.7793 73.5096 61.779H49.0384Z" fill="#E6E6E6"/>
<path d="M49.0384 68.0367C48.719 68.0373 48.4128 68.1649 48.1871 68.3914C47.9614 68.6178 47.8346 68.9248 47.8346 69.2447C47.8346 69.5647 47.9614 69.8717 48.1871 70.0981C48.4128 70.3246 48.719 70.4521 49.0384 70.4527H73.5049C73.6633 70.4531 73.8201 70.4221 73.9666 70.3617C74.113 70.3013 74.2462 70.2125 74.3584 70.1006C74.4706 69.9886 74.5597 69.8556 74.6206 69.7092C74.6815 69.5628 74.713 69.4057 74.7133 69.2471C74.7136 69.0885 74.6827 68.9313 74.6224 68.7846C74.5621 68.638 74.4735 68.5046 74.3617 68.3922C74.2499 68.2798 74.1172 68.1906 73.9709 68.1296C73.8247 68.0686 73.668 68.0371 73.5096 68.0367H49.0384Z" fill="#E6E6E6"/>
<path d="M49.0384 74.2945C48.719 74.2951 48.4128 74.4226 48.1871 74.6491C47.9614 74.8756 47.8346 75.1825 47.8346 75.5025C47.8346 75.8225 47.9614 76.1294 48.1871 76.3559C48.4128 76.5824 48.719 76.7099 49.0384 76.7105H73.5049C73.6633 76.7108 73.8201 76.6799 73.9666 76.6194C74.113 76.559 74.2462 76.4703 74.3584 76.3583C74.4706 76.2464 74.5597 76.1134 74.6206 75.967C74.6815 75.8205 74.713 75.6635 74.7133 75.5049C74.7136 75.3462 74.6827 75.1891 74.6224 75.0424C74.5621 74.8957 74.4735 74.7624 74.3617 74.65C74.2499 74.5376 74.1172 74.4483 73.9709 74.3873C73.8247 74.3264 73.668 74.2948 73.5096 74.2945H49.0384Z" fill="#E6E6E6"/>
<path d="M165.015 39.534C175.915 39.534 184.751 30.684 184.751 19.767C184.751 8.84998 175.915 0 165.015 0C154.116 0 145.28 8.84998 145.28 19.767C145.28 30.684 154.116 39.534 165.015 39.534Z" fill="#3BCD84"/>
<path d="M165.015 51.9008L158.844 41.1955L152.673 30.4902H165.015H177.357L171.186 41.1955L165.015 51.9008Z" fill="#3BCD84"/>
<path d="M165.175 26.7357C169.085 26.7357 172.256 23.5605 172.256 19.6436C172.256 15.7268 169.085 12.5515 165.175 12.5515C161.264 12.5515 158.094 15.7268 158.094 19.6436C158.094 23.5605 161.264 26.7357 165.175 26.7357Z" fill="white"/>
<path d="M369.526 73.3532C369.443 73.3532 369.361 73.3368 369.284 73.3049C369.207 73.273 369.138 73.2263 369.079 73.1675L365.662 69.7447C365.543 69.6258 365.476 69.4646 365.476 69.2965C365.476 69.1284 365.543 68.9672 365.662 68.8484C365.78 68.7295 365.941 68.6627 366.109 68.6627C366.277 68.6627 366.438 68.7295 366.556 68.8484L369.452 71.7487L374.585 64.7382C374.684 64.603 374.833 64.5128 374.999 64.4874C375.165 64.462 375.334 64.5035 375.469 64.6028C375.604 64.7021 375.695 64.8511 375.72 65.0171C375.746 65.183 375.705 65.3524 375.606 65.488L370.037 73.0942C369.983 73.1679 369.914 73.229 369.834 73.2734C369.754 73.3178 369.666 73.3444 369.575 73.3514C369.559 73.3527 369.542 73.3532 369.526 73.3532Z" fill="#3BCD84"/>
<path d="M8.49835 73.2564C8.3732 73.2564 8.25086 73.2192 8.14681 73.1495C8.04275 73.0799 7.96166 72.9809 7.91377 72.8651C7.86588 72.7493 7.85334 72.6219 7.87775 72.4989C7.90216 72.376 7.96242 72.263 8.05091 72.1744L14.796 65.4189C14.9147 65.3004 15.0756 65.2339 15.2432 65.2341C15.4108 65.2342 15.5715 65.301 15.6901 65.4197C15.8086 65.5384 15.8753 65.6994 15.8754 65.8673C15.8756 66.0352 15.8092 66.1963 15.6909 66.3152L8.94578 73.0707C8.88709 73.1297 8.81736 73.1764 8.74057 73.2083C8.66379 73.2401 8.58147 73.2565 8.49835 73.2564Z" fill="#3BCD84"/>
<path d="M15.2433 73.2564C15.1602 73.2565 15.0779 73.2401 15.0011 73.2083C14.9243 73.1764 14.8546 73.1297 14.7959 73.0707L8.05106 66.3152C7.93239 66.1964 7.86572 66.0351 7.86572 65.8671C7.86572 65.699 7.9324 65.5378 8.05107 65.4189C8.16974 65.3001 8.33068 65.2333 8.49851 65.2333C8.66633 65.2333 8.82728 65.3001 8.94595 65.4189L15.6908 72.1744C15.7792 72.2631 15.8395 72.376 15.8639 72.4989C15.8883 72.6219 15.8758 72.7493 15.8279 72.8651C15.78 72.9809 15.6989 73.0799 15.5948 73.1496C15.4908 73.2192 15.3685 73.2564 15.2433 73.2564Z" fill="#3BCD84"/>
<path d="M244.896 140.614C244.323 140.298 243.826 139.861 243.44 139.332C243.054 138.803 242.788 138.196 242.661 137.553C242.535 136.91 242.55 136.247 242.707 135.611C242.864 134.975 243.158 134.381 243.569 133.871L237.784 93.4657L247.511 93.734L250.139 133.367C250.949 134.115 251.456 135.135 251.565 136.232C251.674 137.33 251.378 138.43 250.731 139.323C250.085 140.216 249.134 140.841 248.059 141.079C246.983 141.317 245.858 141.151 244.896 140.614Z" fill="#A0616A"/>
<path d="M236.516 100.058C236.295 99.8727 236.116 99.6421 235.991 99.3815C235.867 99.121 235.8 98.8367 235.796 98.5479L235.632 88.4636C235.392 87.0059 235.738 85.5121 236.596 84.3099C237.453 83.1077 238.752 82.2951 240.207 82.0503C241.661 81.8055 243.154 82.1485 244.356 83.004C245.559 83.8596 246.374 85.1578 246.622 86.6142L249.71 96.2484C249.798 96.5234 249.826 96.8141 249.792 97.1009C249.758 97.3876 249.662 97.6636 249.512 97.91C249.361 98.1564 249.16 98.3675 248.921 98.5289C248.682 98.6903 248.411 98.7982 248.126 98.8452L238.128 100.497C237.844 100.545 237.553 100.53 237.274 100.454C236.996 100.378 236.737 100.243 236.516 100.058Z" fill="#3BCD84"/>
<path d="M217.989 210.61H212.883L210.454 190.883H217.991L217.989 210.61Z" fill="#A0616A"/>
<path d="M219.292 215.568L202.826 215.568V215.359C202.826 214.516 202.992 213.681 203.314 212.903C203.636 212.124 204.108 211.416 204.703 210.82C205.298 210.224 206.005 209.751 206.783 209.429C207.56 209.106 208.394 208.94 209.235 208.94L219.292 208.941L219.292 215.568Z" fill="#2F2E41"/>
<path d="M246.729 210.61H241.623L239.194 190.883H246.731L246.729 210.61Z" fill="#A0616A"/>
<path d="M248.032 215.568L231.566 215.568V215.359C231.566 214.516 231.732 213.681 232.054 212.903C232.376 212.124 232.848 211.416 233.443 210.82C234.039 210.224 234.745 209.751 235.523 209.429C236.3 209.106 237.134 208.94 237.975 208.94L248.032 208.941L248.032 215.568Z" fill="#2F2E41"/>
<path d="M239.537 201.155L230.606 154.014C230.581 153.87 230.506 153.74 230.394 153.647C230.282 153.555 230.14 153.505 229.995 153.509H229.992C229.848 153.505 229.706 153.553 229.594 153.645C229.482 153.737 229.406 153.866 229.381 154.009L220.096 201.057C220.004 201.506 219.751 201.906 219.386 202.181C219.02 202.456 218.567 202.588 218.111 202.552L210.852 201.97C210.604 201.95 210.363 201.881 210.142 201.767C209.922 201.653 209.726 201.496 209.566 201.306C209.406 201.115 209.286 200.894 209.212 200.657C209.138 200.419 209.112 200.169 209.136 199.921L215.242 133.83L246.448 134.645L246.641 134.65L249.711 200.704C249.723 200.957 249.683 201.211 249.595 201.449C249.506 201.687 249.37 201.904 249.195 202.088C249.02 202.272 248.809 202.419 248.576 202.519C248.343 202.619 248.092 202.67 247.838 202.67H241.376C240.942 202.669 240.522 202.518 240.186 202.242C239.851 201.966 239.622 201.582 239.537 201.155Z" fill="#2F2E41"/>
<path d="M229.539 75.7392C235.189 75.7392 239.769 71.1517 239.769 65.4928C239.769 59.8338 235.189 55.2463 229.539 55.2463C223.889 55.2463 219.308 59.8338 219.308 65.4928C219.308 71.1517 223.889 75.7392 229.539 75.7392Z" fill="#A0616A"/>
<path d="M214.534 137.51C214.186 137.333 213.902 137.051 213.722 136.704C213.541 136.357 213.474 135.963 213.529 135.576C214.851 126.11 214.009 109.373 213.069 96.9996C212.425 88.5195 218.116 80.9275 226.306 79.3398C226.434 79.3154 226.561 79.2914 226.689 79.2685C229.203 78.8079 231.789 78.9387 234.244 79.6507C236.699 80.3626 238.955 81.6363 240.835 83.3711C242.748 85.1099 244.231 87.2702 245.167 89.6814C246.104 92.0926 246.468 94.6889 246.231 97.2652C245.017 111.058 247.173 131.707 247.617 135.706C247.648 136.003 247.609 136.303 247.503 136.582C247.397 136.861 247.226 137.111 247.005 137.312C242.853 141.107 237.845 142.391 232.969 142.391C225.083 142.391 217.544 139.033 214.534 137.51Z" fill="#3BCD84"/>
<path d="M206.928 140.726C207.532 140.474 208.074 140.093 208.514 139.609C208.955 139.125 209.285 138.55 209.48 137.924C209.674 137.299 209.73 136.638 209.643 135.989C209.555 135.34 209.326 134.717 208.973 134.166L219.068 94.6193L209.369 93.837L202.495 132.956C201.61 133.613 200.996 134.572 200.769 135.651C200.543 136.731 200.72 137.856 201.266 138.813C201.813 139.771 202.691 140.495 203.734 140.847C204.778 141.2 205.914 141.157 206.928 140.726Z" fill="#A0616A"/>
<path d="M217.97 101.573L208.208 98.8522C207.93 98.7748 207.672 98.6383 207.452 98.4521C207.231 98.2659 207.054 98.0343 206.931 97.7731C206.808 97.5119 206.742 97.2272 206.739 96.9384C206.736 96.6497 206.795 96.3636 206.912 96.0998L211.018 86.8545C211.421 85.4334 212.371 84.2306 213.658 83.5098C214.946 82.7889 216.467 82.6089 217.887 83.0091C219.306 83.4094 220.51 84.3573 221.233 85.645C221.957 86.9326 222.14 88.455 221.745 89.8783L220.498 99.8865C220.463 100.173 220.366 100.448 220.214 100.694C220.062 100.94 219.86 101.15 219.62 101.31C219.38 101.47 219.108 101.576 218.823 101.622C218.539 101.667 218.247 101.65 217.97 101.573Z" fill="#3BCD84"/>
<path d="M233.11 75.5945C234.078 75.6125 235.041 75.4381 235.941 75.0815C236.337 74.9285 236.749 74.8028 237.144 74.6497C240.638 73.298 242.939 69.5718 243.021 65.822C243.104 62.0721 241.165 58.4325 238.286 56.0339C235.407 53.6353 231.677 52.4038 227.943 52.1191C223.921 51.8123 219.392 52.8339 217.144 56.1889C216.546 57.082 216.128 58.1654 216.482 59.2437C216.588 59.5691 216.778 59.8608 217.032 60.0898C218.036 60.9842 219.037 60.3117 220.06 60.2522C221.466 60.1706 222.729 61.3108 223.183 62.6465C223.637 63.9822 223.438 65.4527 223.071 66.8151C222.792 67.6349 222.616 68.4864 222.547 69.3498C222.517 69.7828 222.599 70.2162 222.783 70.6089C222.968 71.0015 223.249 71.3405 223.601 71.5937C224.48 72.1257 225.634 71.8178 226.513 71.2866C227.393 70.7554 228.153 70.0168 229.102 69.6259C230.052 69.235 231.328 69.3217 231.881 70.1885C232.057 70.5039 232.176 70.8477 232.233 71.2044C232.728 73.4661 232.614 73.3329 233.11 75.5945Z" fill="#2F2E41"/>
<path d="M273.251 216H167.454C167.344 216 167.238 215.956 167.16 215.878C167.082 215.8 167.038 215.693 167.038 215.583C167.038 215.472 167.082 215.366 167.16 215.288C167.238 215.21 167.344 215.166 167.454 215.166H273.251C273.362 215.166 273.468 215.21 273.546 215.288C273.624 215.366 273.668 215.472 273.668 215.583C273.668 215.693 273.624 215.8 273.546 215.878C273.468 215.956 273.362 216 273.251 216Z" fill="#3F3D56"/>
<path d="M11.8709 81.1345C9.52308 81.1345 7.22796 80.4372 5.27579 79.1307C3.32363 77.8243 1.80211 75.9674 0.903625 73.7948C0.00514261 71.6222 -0.22994 69.2316 0.228102 66.9252C0.686144 64.6189 1.81674 62.5003 3.47692 60.8375C5.1371 59.1747 7.25229 58.0423 9.55503 57.5836C11.8578 57.1248 14.2446 57.3603 16.4137 58.2602C18.5829 59.1601 20.4368 60.684 21.7412 62.6392C23.0456 64.5945 23.7418 66.8932 23.7418 69.2448C23.7383 72.3971 22.4864 75.4192 20.261 77.6481C18.0355 79.8771 15.0182 81.1309 11.8709 81.1345ZM11.8709 58.6067C9.77022 58.6067 7.71669 59.2306 5.97002 60.3995C4.22335 61.5684 2.86198 63.2299 2.05808 65.1738C1.25417 67.1176 1.04383 69.2566 1.45366 71.3202C1.86349 73.3838 2.87508 75.2793 4.3605 76.7671C5.84592 78.2549 7.73846 79.2681 9.7988 79.6785C11.8591 80.089 13.9947 79.8784 15.9355 79.0732C17.8763 78.268 19.5352 76.9045 20.7023 75.155C21.8694 73.4056 22.4923 71.3488 22.4923 69.2448C22.4891 66.4244 21.369 63.7204 19.3778 61.7261C17.3866 59.7317 14.6869 58.6099 11.8709 58.6067Z" fill="#E6E6E6"/>
<path d="M370.129 81.0655C367.781 81.0655 365.486 80.3681 363.534 79.0617C361.582 77.7552 360.06 75.8983 359.162 73.7258C358.263 71.5532 358.028 69.1626 358.486 66.8562C358.944 64.5498 360.075 62.4313 361.735 60.7685C363.395 59.1057 365.51 57.9733 367.813 57.5145C370.116 57.0558 372.503 57.2912 374.672 58.1911C376.841 59.091 378.695 60.615 379.999 62.5702C381.304 64.5255 382 66.8242 382 69.1758C381.996 72.328 380.745 75.3501 378.519 77.5791C376.294 79.8081 373.276 81.0619 370.129 81.0655ZM370.129 58.5376C368.028 58.5376 365.975 59.1615 364.228 60.3305C362.482 61.4994 361.12 63.1609 360.316 65.1047C359.512 67.0486 359.302 69.1876 359.712 71.2512C360.122 73.3148 361.133 75.2103 362.619 76.6981C364.104 78.1859 365.997 79.199 368.057 79.6095C370.117 80.02 372.253 79.8093 374.194 79.0041C376.135 78.199 377.793 76.8354 378.96 75.086C380.128 73.3366 380.75 71.2798 380.75 69.1758C380.747 66.3554 379.627 63.6514 377.636 61.657C375.645 59.6627 372.945 58.5408 370.129 58.5376Z" fill="#E6E6E6"/>
</g>
<defs>
<clipPath id="clip0_189_2627">
<rect width="382" height="216" fill="white"/>
</clipPath>
</defs>
</svg>
