<svg width="219" height="186" viewBox="0 0 219 186" fill="none" xmlns="http://www.w3.org/2000/svg">
<path d="M29.5326 145.106H29.4246C28.754 129.249 21.2986 122.744 0.595305 123.101C0.427654 140.205 6.69057 147.732 25.8636 148.22L25.8668 170.271H33.0887L33.0839 148.22C52.264 147.735 58.528 140.208 58.3621 123.101C37.6572 122.744 30.2017 129.249 29.5328 145.106H29.5326Z" fill="#FFCA45"/>
<path d="M213.633 72.7756C188.817 72.3501 179.252 79.838 177.765 97.9237H177.288C175.802 79.8376 166.236 72.35 141.422 72.7756C141.211 94.4171 149.258 103.78 173.917 104.179L173.916 170.273H181.138V104.179C205.795 103.78 213.844 94.4175 213.633 72.7756H213.633Z" fill="#FFCA45"/>
<path d="M90.8649 173.417C86.8768 173.417 83.6431 179.05 83.6431 186H126.974C126.974 179.05 123.741 173.417 119.752 173.417H90.8649Z" fill="#FFCA45"/>
<path d="M43.9227 173.417H15.0352C11.0471 173.417 7.81335 179.05 7.81335 186H51.1446C51.1446 179.05 47.9109 173.417 43.9227 173.417Z" fill="#FFCA45"/>
<path d="M163.084 173.417C159.096 173.417 155.862 179.05 155.862 186H199.193C199.193 179.05 195.959 173.417 191.971 173.417H163.084Z" fill="#FFCA45"/>
<path d="M76.4254 110.519C76.2577 127.625 82.5219 135.152 101.695 135.638L101.699 170.272H108.92L108.917 135.638C128.096 135.153 134.36 127.626 134.192 110.519C120.798 110.289 112.971 112.95 108.916 119.135L108.914 100.751L108.916 100.752C114.812 99.7033 119.723 96.1644 122.007 91.314C124.293 86.4651 123.653 80.9406 120.301 76.5857C116.95 72.2311 111.329 69.6175 105.31 69.6175C99.292 69.6161 93.6692 72.2281 90.3162 76.5828C86.9632 80.936 86.3216 86.4593 88.6043 91.3097C90.8885 96.1615 95.7973 99.7018 101.694 100.751L101.696 119.125C97.6382 112.945 89.8117 110.289 76.4257 110.519L76.4254 110.519Z" fill="#FFCA45"/>
<path d="M177.159 11.6582C170.046 11.6582 163.224 14.1198 158.195 18.5011C153.165 22.8824 150.34 28.8246 150.34 35.0209C150.34 41.2173 153.165 47.1594 158.195 51.5408C163.224 55.9221 170.046 58.3837 177.159 58.3837C184.271 58.3837 191.093 55.9221 196.122 51.5408C201.151 47.1595 203.977 41.2173 203.977 35.0209C203.961 28.8294 201.13 22.8951 196.104 18.5171C191.078 14.1389 184.266 11.673 177.159 11.6585L177.159 11.6582ZM183.289 39.6929H177.159C176.552 39.6862 175.972 39.473 175.542 39.0988C175.113 38.7247 174.868 38.2196 174.86 37.6904V29.6805C174.86 28.9653 175.298 28.3042 176.009 27.9466C176.721 27.5886 177.597 27.5886 178.308 27.9466C179.02 28.3042 179.457 28.9653 179.457 29.6805V35.6879H183.289C184.11 35.6879 184.869 36.0696 185.279 36.6891C185.69 37.3086 185.69 38.0721 185.279 38.6916C184.869 39.3111 184.11 39.6928 183.289 39.6928L183.289 39.6929Z" fill="#FFCA45"/>
<path d="M211.012 15.1533C214.026 18.8915 216.234 23.1579 217.419 27.7615C216.36 27.9975 215.672 29.034 215.876 30.108C216.213 31.8869 216.389 33.7138 216.389 35.5776C216.389 37.4414 216.213 39.2683 215.876 41.0472C215.672 42.1211 216.36 43.1577 217.419 43.3936C216.234 47.9972 214.026 52.2637 211.012 56.0019C210.183 55.2944 208.937 55.3717 208.203 56.1858C205.77 58.8828 202.867 61.2574 199.592 63.2126C198.648 63.7757 198.331 64.9873 198.869 65.9385C194.804 68.1074 190.27 69.6742 185.43 70.4965C185.27 69.4133 184.273 68.6513 183.182 68.7881C181.35 69.0176 179.475 69.1366 177.567 69.1366C175.66 69.1366 173.785 69.0176 171.953 68.7881C170.861 68.6513 169.864 69.4133 169.705 70.4965C164.865 69.6742 160.331 68.1074 156.266 65.9385C156.804 64.9873 156.486 63.7757 155.543 63.2126C152.268 61.2574 149.364 58.8828 146.932 56.1858C146.198 55.3717 144.951 55.2944 144.123 56.0019C141.109 52.2637 138.9 47.9972 137.715 43.3936C138.775 43.1577 139.462 42.1211 139.259 41.0472C138.921 39.2683 138.745 37.4414 138.745 35.5776C138.745 33.7138 138.921 31.8869 139.259 30.108C139.462 29.034 138.775 27.9975 137.715 27.7616C138.9 23.1579 141.109 18.8915 144.123 15.1533C144.951 15.8608 146.198 15.7835 146.932 14.9694C149.364 12.2724 152.268 9.89776 155.543 7.94255C156.486 7.37942 156.804 6.16784 156.266 5.21667C160.331 3.04773 164.865 1.48092 169.705 0.658704C169.864 1.74184 170.861 2.50388 171.953 2.36711C173.785 2.13755 175.66 2.01859 177.567 2.01859C179.475 2.01859 181.35 2.13755 183.182 2.36711C184.273 2.50388 185.27 1.74184 185.43 0.658703C190.27 1.48092 194.804 3.04773 198.869 5.21666C198.331 6.16784 198.648 7.37942 199.592 7.94255C202.867 9.89776 205.77 12.2724 208.203 14.9694C208.937 15.7835 210.183 15.8608 211.012 15.1533Z" stroke="#FFCA45" stroke-width="4.03717" stroke-linecap="round" stroke-dasharray="12.11 18.84"/>
</svg>
