<svg width="22" height="22" viewBox="0 0 22 22" fill="none" xmlns="http://www.w3.org/2000/svg">
<path d="M12.4609 20.333H6.1875C5.4584 20.3322 4.75939 20.051 4.24384 19.5511C3.72828 19.0512 3.4383 18.3733 3.4375 17.6663V4.33301C3.4383 3.626 3.72828 2.94817 4.24384 2.44824C4.75939 1.94831 5.4584 1.66711 6.1875 1.66634H12.4609V20.333ZM15.8125 20.333H15.0391V1.66634H15.8125C16.5416 1.66711 17.2406 1.94831 17.7562 2.44824C18.2717 2.94817 18.5617 3.626 18.5625 4.33301V17.6663C18.5617 18.3733 18.2717 19.0512 17.7562 19.5511C17.2406 20.051 16.5416 20.3322 15.8125 20.333Z" fill="#38805D"/>
</svg>
