<svg width="20" height="25" viewBox="0 0 20 25" fill="none" xmlns="http://www.w3.org/2000/svg">
<path d="M16.7 13.487C16.7047 14.5471 17.0197 15.5827 17.6061 16.4659C18.1926 17.3491 19.0248 18.0413 20 18.457C19.6054 19.6975 19.0328 20.8741 18.3 21.95C17.276 23.45 16.214 24.937 14.54 24.968C12.895 24.998 12.366 23.993 10.486 23.993C8.60599 23.993 8.01899 24.937 6.46199 24.999C4.84599 25.06 3.61599 23.381 2.58399 21.89C0.474995 18.838 -1.13701 13.273 1.02699 9.51499C1.53518 8.60578 2.27083 7.84418 3.16188 7.30478C4.05292 6.76539 5.0688 6.4667 6.10999 6.43799C7.69699 6.40799 9.19399 7.50499 10.164 7.50499C11.134 7.50499 12.953 6.18499 14.864 6.37899C15.75 6.41039 16.6168 6.64669 17.3961 7.06934C18.1755 7.492 18.8463 8.08951 19.356 8.81499C18.5542 9.30544 17.8899 9.99132 17.4254 10.8084C16.9609 11.6255 16.7113 12.5471 16.7 13.487ZM13.612 4.35999C14.5392 3.27274 14.9987 1.8628 14.89 0.437988C13.4905 0.573912 12.196 1.24012 11.272 2.29999C10.8114 2.81373 10.4589 3.41494 10.2356 4.06779C10.0122 4.72064 9.92259 5.41177 9.97199 6.09999C10.6722 6.10974 11.3652 5.95791 11.9972 5.65631C12.6292 5.35471 13.1831 4.91146 13.616 4.36099" fill="black"/>
</svg>
