<svg width="12" height="19" viewBox="0 0 12 19" fill="none" xmlns="http://www.w3.org/2000/svg">
<path fill-rule="evenodd" clip-rule="evenodd" d="M10.8532 0.277861C10.4398 -0.0926208 9.7713 -0.0926208 9.35896 0.277861L0.619193 8.12827C0.423557 8.30131 0.267778 8.50958 0.161331 8.74042C0.054884 8.97125 -8.58307e-06 9.21982 -8.58307e-06 9.47102C-8.58307e-06 9.72222 0.054884 9.97079 0.161331 10.2016C0.267778 10.4325 0.423557 10.6407 0.619193 10.8138L9.42224 18.7221C9.62202 18.8989 9.8866 18.9982 10.1622 19C10.4379 19.0017 10.7039 18.9058 10.9063 18.7316C11.0065 18.6456 11.0867 18.5414 11.1419 18.4253C11.1972 18.3093 11.2262 18.184 11.2272 18.0571C11.2283 17.9302 11.2013 17.8044 11.1481 17.6876C11.0948 17.5708 11.0163 17.4654 10.9175 17.3779L2.86052 10.1422C2.76263 10.0556 2.68467 9.95147 2.6314 9.83601C2.57813 9.72055 2.55066 9.5962 2.55066 9.47055C2.55066 9.34489 2.57813 9.22055 2.6314 9.10509C2.68467 8.98962 2.76263 8.88546 2.86052 8.79893L10.8532 1.62014C10.951 1.5337 11.029 1.42961 11.0822 1.31423C11.1355 1.19885 11.163 1.07458 11.163 0.949003C11.163 0.823423 11.1355 0.699156 11.0822 0.583773C11.029 0.46839 10.951 0.364305 10.8532 0.277861Z" fill="#91A265"/>
</svg>
