<svg width="176" height="129" viewBox="0 0 176 129" fill="none" xmlns="http://www.w3.org/2000/svg">
<g filter="url(#filter0_dd_710_4367)">
<rect x="8.6" y="7.18008" width="158.8" height="109.22" rx="14.4" fill="#FFFBF2" stroke="#FFFBF2" stroke-width="1.2"/>
<path fill-rule="evenodd" clip-rule="evenodd" d="M156.685 13.5787C156.267 13.2393 156.212 12.6362 156.563 12.2319L159.639 8.69241C159.991 8.28815 160.615 8.23547 161.033 8.57459C161.452 8.91401 161.507 9.51709 161.155 9.9214L158.08 13.4609C157.884 13.6862 157.604 13.8025 157.321 13.8025C157.097 13.8025 156.871 13.7289 156.686 13.5787L156.685 13.5787ZM148.003 12.7471C141.808 12.7471 136.768 17.6144 136.768 23.5972C136.768 29.5798 141.808 34.4474 148.003 34.4474C154.198 34.4474 159.239 29.58 159.239 23.5972C159.239 17.6144 154.198 12.7471 148.003 12.7471ZM146.996 9.57666V4.95623C146.996 4.42823 147.439 4 147.986 4C148.533 4 148.976 4.42795 148.976 4.95623V9.57666C148.976 10.1047 148.533 10.5329 147.986 10.5329C147.439 10.5329 146.996 10.1049 146.996 9.57666ZM134.823 9.94289C134.472 9.53832 134.527 8.93552 134.945 8.59608C135.364 8.25634 135.989 8.30933 136.34 8.7139L139.415 12.2534C139.767 12.658 139.712 13.2611 139.293 13.6002C139.108 13.7504 138.882 13.824 138.658 13.824C138.375 13.824 138.095 13.7077 137.899 13.4824L134.823 9.94289ZM133.53 22.1208L128.818 21.3184C128.28 21.2268 127.92 20.7309 128.015 20.2107C128.11 19.6908 128.623 19.3439 129.162 19.4352L133.874 20.2375C134.413 20.3291 134.772 20.825 134.677 21.3449C134.592 21.8087 134.174 22.1351 133.703 22.1351C133.646 22.1357 133.588 22.1307 133.53 22.1207L133.53 22.1208ZM136.295 30.1438C136.569 30.6011 136.406 31.1858 135.933 31.4501L131.79 33.7603C131.634 33.8473 131.463 33.8884 131.295 33.8884C130.953 33.8884 130.62 33.7167 130.437 33.4103C130.164 32.9527 130.326 32.3683 130.8 32.104L134.943 29.7938C135.417 29.5301 136.022 29.6866 136.295 30.1438H136.295ZM143.983 37.1047L142.347 41.4465C142.201 41.8349 141.821 42.0758 141.417 42.0758C141.304 42.0758 141.19 42.0574 141.078 42.0182C140.564 41.8377 140.299 41.2891 140.487 40.793L142.123 36.4512C142.31 35.9549 142.879 35.6997 143.392 35.8798C143.906 36.06 144.17 36.6086 143.983 37.1048L143.983 37.1047ZM155.551 40.7814C155.738 41.2776 155.473 41.8262 154.959 42.0066C154.847 42.0459 154.733 42.0646 154.621 42.0646C154.216 42.0646 153.837 41.8233 153.69 41.4353L152.054 37.0935C151.867 36.5973 152.132 36.0487 152.646 35.8683C153.159 35.6881 153.728 35.9437 153.914 36.4399L155.551 40.7814ZM165.586 33.3813C165.403 33.6883 165.07 33.8594 164.728 33.8594C164.56 33.8594 164.389 33.818 164.233 33.7313L160.09 31.4211C159.616 31.1571 159.454 30.5724 159.728 30.1148C160.001 29.6576 160.606 29.5011 161.08 29.7648L165.224 32.0754C165.697 32.3394 165.859 32.9238 165.586 33.3813H165.586ZM167.182 21.2856L162.47 22.088C162.412 22.0979 162.354 22.1029 162.297 22.1029C161.825 22.1029 161.407 21.7766 161.323 21.3128C161.228 20.7926 161.587 20.297 162.126 20.2054L166.838 19.403C167.377 19.3111 167.89 19.6586 167.985 20.1785C168.079 20.6981 167.72 21.194 167.182 21.2856H167.182Z" fill="#E6D694"/>
<path d="M69.8429 67.5578C70.3852 67.6066 70.9064 67.8549 71.2853 68.2927L81.2054 79.6983C81.3802 79.9017 81.2169 80.136 80.7885 79.9722C79.0798 79.3341 76.8631 78.4881 74.2552 77.5765C73.7339 77.3975 73.5678 77.2807 73.226 76.8869L68.0023 70.8766C67.2422 70.0067 67.3676 68.7491 68.2828 68.0269C68.7423 67.664 69.3033 67.512 69.8428 67.5577L69.8429 67.5578Z" fill="#E4BF71"/>
<path d="M70.9292 77.6292L82.5192 81.8928C83.6124 82.2953 84.0412 82.5 84.8123 83.2519L87.4664 85.8281L98.4601 99.4996C99.5996 100.917 99.7401 102.987 98.6198 104.057C97.4323 105.193 96.1071 105.011 95.0202 104.108L79.8201 91.4113C79.3602 91.025 79.0495 90.8411 78.495 90.6647L73.545 89.0891C72.6833 88.8117 72.2393 89.6776 73.0741 90.0174L78.2332 92.1101L93.8796 105.169C94.6502 105.813 95.5956 106.182 96.4907 106.157C96.9895 106.145 97.06 106.203 97.3991 106.544C98.5609 107.714 98.1056 108.614 97.2586 109.081C96.4999 109.496 95.2313 109.339 94.074 108.94L81.2837 104.339C80.082 103.926 79.494 103.717 78.2599 102.987L68.3668 97.4109C67.4438 96.8904 66.8745 97.9341 67.6264 98.3893L77.5012 104.35C78.7994 105.119 79.554 105.395 80.759 105.81L92.349 109.789C92.5773 109.867 92.8272 110.019 92.7704 110.431C92.6267 111.476 91.8369 111.628 90.8072 111.563L79.7825 110.902C78.4696 110.822 77.2624 110.855 76.0214 110.373L65.3755 106.672C64.6049 106.372 64.0819 107.301 64.8516 107.602L75.5505 111.91C77.0698 112.494 78.4706 112.447 79.7033 112.524L89.4409 113.102C89.8664 113.131 90.1895 113.334 90.0669 113.9C89.8367 115.003 88.5266 115.382 87.5011 115.382L67.2918 115.385C65.0779 115.385 63.4647 115.111 62.2846 114.53C61.103 113.944 60.3027 113.055 59.6648 111.628L56.6652 104.928C55.966 103.355 56.0003 101.715 56.0003 99.807V92.4588C56.0003 90.043 57.1622 87.7469 59.2205 85.4195L64.9411 78.9574C66.5249 77.1693 68.823 76.8549 70.9294 77.6289L70.9292 77.6292Z" fill="#38805D"/>
<path d="M88.2034 82.0256C89.2967 82.2491 90.0413 82.4691 91.1876 82.9386L96.2172 84.9916C98.3624 85.8658 99.4558 86.5672 99.9302 87.2724C100.406 87.9733 100.413 88.8192 100.144 90.2997L99.042 96.412C98.9285 97.0393 98.3474 97.214 97.9305 96.6925C96.7956 95.2803 94.5204 92.4537 94.5204 92.4537C93.3242 90.9696 93.6523 90.7122 94.1676 89.0468C94.4495 88.1425 93.7617 87.9875 93.4089 88.6374C92.6845 89.9725 91.8869 89.151 91.491 88.6304C89.8051 86.4079 88.1239 84.4373 86.0395 82.5877C85.7137 82.2693 85.7507 82.0646 86.3356 81.9452C86.9803 81.8111 87.6269 81.9086 88.2035 82.0254L88.2034 82.0256Z" fill="#38805D"/>
<path d="M101.236 102.734L108.112 110.638C108.237 110.782 108.264 110.883 108.279 111.021L108.527 113.315C108.587 113.911 108.135 114.281 107.547 114.113L105.226 113.463C105.052 113.414 104.953 113.366 104.87 113.272L98.7085 106.186C98.4834 105.929 98.3891 105.719 98.7456 105.51C99.0343 105.336 99.2924 105.116 99.5286 104.876C100.11 104.295 100.577 103.554 100.725 102.745C100.777 102.473 100.977 102.436 101.236 102.734L101.236 102.734Z" fill="#E4BF71"/>
</g>
<defs>
<filter id="filter0_dd_710_4367" x="0" y="0" width="176" height="129" filterUnits="userSpaceOnUse" color-interpolation-filters="sRGB">
<feFlood flood-opacity="0" result="BackgroundImageFix"/>
<feColorMatrix in="SourceAlpha" type="matrix" values="0 0 0 0 0 0 0 0 0 0 0 0 0 0 0 0 0 0 127 0" result="hardAlpha"/>
<feOffset dy="4"/>
<feGaussianBlur stdDeviation="4"/>
<feComposite in2="hardAlpha" operator="out"/>
<feColorMatrix type="matrix" values="0 0 0 0 0.443137 0 0 0 0 0.501961 0 0 0 0 0.588235 0 0 0 0.08 0"/>
<feBlend mode="normal" in2="BackgroundImageFix" result="effect1_dropShadow_710_4367"/>
<feColorMatrix in="SourceAlpha" type="matrix" values="0 0 0 0 0 0 0 0 0 0 0 0 0 0 0 0 0 0 127 0" result="hardAlpha"/>
<feOffset/>
<feGaussianBlur stdDeviation="0.5"/>
<feComposite in2="hardAlpha" operator="out"/>
<feColorMatrix type="matrix" values="0 0 0 0 0.443137 0 0 0 0 0.501961 0 0 0 0 0.588235 0 0 0 0.04 0"/>
<feBlend mode="normal" in2="effect1_dropShadow_710_4367" result="effect2_dropShadow_710_4367"/>
<feBlend mode="normal" in="SourceGraphic" in2="effect2_dropShadow_710_4367" result="shape"/>
</filter>
</defs>
</svg>
