<svg width="159" height="197" viewBox="0 0 159 197" fill="none" xmlns="http://www.w3.org/2000/svg">
<g opacity="0.1">
<path fill-rule="evenodd" clip-rule="evenodd" d="M65.1576 78.5778C59.0731 78.5778 53.1296 76.755 48.1046 73.3476C43.0025 76.7486 36.9809 78.5315 30.8365 78.4609L11.3185 71.4068C5.81859 66.9035 2.04314 60.6608 0.623016 53.724C-0.79657 46.7867 0.226273 39.5758 3.51994 33.2977C6.81361 27.0197 12.1787 22.0555 18.7167 19.2363C20.2097 12.5204 23.97 6.51302 29.3739 2.21154L48.4264 -4.41055H50.5712C54.809 -10.5517 61.1712 -14.9322 68.4482 -16.7193L109.295 -19C116.085 -18.4397 122.488 -15.627 127.472 -11.0147C129.828 -11.5663 132.239 -11.8521 134.658 -11.8669C140.518 -11.8549 146.249 -10.1588 151.159 -6.98343C156.069 -3.80802 159.949 0.711077 162.33 6.02841L177.85 16.9474C181.712 22.144 183.791 28.4359 183.781 34.8944C183.819 37.5957 183.458 40.2871 182.708 42.8837C186.78 48.1312 188.97 54.5799 188.929 61.2049C188.939 68.8883 185.983 76.2836 180.67 81.8695C180.242 87.3703 178.306 92.6502 175.073 97.1373C171.841 101.624 167.434 105.149 162.33 107.327C156.449 110.989 151.469 115.914 147.757 121.738C144.045 127.564 141.694 134.141 140.879 140.987H100.807V109.031C100.814 103.357 99.2206 97.7954 96.2061 92.9752C93.1921 88.1556 88.8782 84.2712 83.7535 81.7625C80.8718 80.6678 80.1628 79.1937 79.2943 77.3876C78.7154 76.1842 78.0652 74.8327 76.6545 73.3476C75.4286 74.1786 74.4787 74.916 73.6553 75.555C71.1016 77.5357 69.7586 78.5778 65.1576 78.5778ZM41.8165 63.9571C39.0182 65.6249 35.7917 66.6294 32.4198 66.8266L16.3855 61.0315C13.4576 58.2238 11.5983 54.7424 10.8625 51.1459C10.0359 47.1082 10.6058 42.8664 12.6069 39.0524C14.6269 35.2021 18.0602 31.9058 22.5415 29.9737L27.6153 27.7859L28.9115 21.9543C29.6709 18.5383 31.493 15.2379 34.3264 12.5841L50.0422 7.1214H55.7757L58.9261 2.55633C61.4231 -1.06206 65.2747 -3.91645 69.9491 -5.25603L109.107 -7.44237C113.577 -6.94549 117.64 -5.04339 120.723 -2.19091L124.645 1.43783L129.654 0.264975C131.295 -0.119307 132.981 -0.321255 134.677 -0.334497C138.719 -0.318884 142.6 0.858431 145.846 2.9579C149.097 5.05975 151.497 7.94086 152.917 11.1123L154.213 14.0067L170.616 25.5467C172.408 28.4417 173.29 31.6606 173.285 34.8407L173.284 34.9407L173.286 35.0413C173.306 36.4807 173.114 37.9282 172.706 39.3445L170.936 45.4757L174.731 50.3664C177.237 53.5962 178.456 57.376 178.433 61.0928L178.433 61.1396L178.433 61.187C178.438 65.5197 176.782 69.9379 173.425 73.4673L170.552 76.4872L170.213 80.8459C169.967 83.9936 168.854 87.1343 166.853 89.9119C164.843 92.7028 161.998 95.0311 158.538 96.5081L157.829 96.8111L157.166 97.2234C156.399 97.7011 155.643 98.1973 154.9 98.7114L154.932 98.738C140.664 108.33 134.61 122.291 132.555 129.429H129.343V87.25L140.906 75.9239L148.755 84.573C150.804 86.8313 154.127 86.8313 156.176 84.573C158.226 82.3148 158.226 78.6529 156.176 76.3947L146.773 66.032L149.594 48.9322L162.378 41.889C164.971 40.4606 166.021 36.9867 164.725 34.1299C163.429 31.2737 160.276 30.1153 157.684 31.5437L145.21 38.4169L129.931 27.7027L134.683 13.7372C135.701 10.7468 134.326 7.41344 131.612 6.29153C128.898 5.1702 125.873 6.68536 124.856 9.67577L119.749 24.6822H114.099L111.401 18.7343L115.679 7.73209C116.821 4.79662 115.587 1.39677 112.923 0.138613C110.259 -1.11949 107.174 0.240396 106.032 3.17604L102.347 12.65L87.7158 15.5814L87.6554 15.5276L78.199 7.1908C75.9355 5.19565 72.6329 5.59988 70.8224 8.0941C69.0118 10.5878 69.3786 14.227 71.6421 16.2222L77.9634 21.7953L70.9567 31.7224L68.266 25.7937C67.3775 23.8344 65.5602 22.5968 63.5722 22.5968H52.2243C49.3259 22.5968 46.9763 25.1859 46.9763 28.3798C46.9763 31.5738 49.3259 34.1629 52.2243 34.1629H60.3289L61.7359 37.2637L52.9769 39.4087C52.5581 39.5116 52.1525 39.6701 51.7683 39.8817L44.2032 44.0501C41.6107 45.478 40.5601 48.9518 41.8558 51.8087C43.1521 54.6655 46.3046 55.8232 48.8971 54.3948L55.8843 50.5451L72.2761 46.5311C73.4679 46.239 74.5306 45.4982 75.28 44.4365L87.2886 27.4228L101.843 24.5069C102.054 24.6984 102.281 24.873 102.522 25.0292L105.608 31.83V35.1015H99.5076C98.6931 35.1015 97.8896 35.3108 97.1607 35.7122L82.0301 44.049C79.4375 45.4774 78.3869 48.9507 79.6831 51.8075C80.9794 54.6643 84.1319 55.8221 86.7239 54.3937L100.747 46.6675H105.608V55.4751C105.608 58.6685 107.957 61.2581 110.856 61.2581C113.754 61.2581 116.104 58.6685 116.104 55.4751V40.929V40.8845V40.8406V36.2482H122.567L139.106 47.8456L136.278 64.983L120.608 80.3306C119.488 81.4282 118.847 83.0012 118.847 84.6528V129.429H111.303V108.807C111.303 93.1822 103.382 83.5922 99.0563 79.052C95.5963 75.4196 90.3986 72.3575 88.2322 71.2807C87.8019 70.219 86.334 67.4633 83.9068 64.9333C81.4795 62.4032 78.9594 59.7679 78.0027 58.7662C71.5062 62.8577 66.4612 66.966 66.4612 66.966C66.4612 66.966 59.7375 66.5595 56.6826 65.2045C54.2391 64.1202 49.9793 61.1078 48.1545 59.7372L41.8165 63.9571Z" fill="#939290"/>
<path d="M141.737 172.883H99.7529V161.317H141.737V172.883Z" fill="#939290"/>
<path d="M99.7529 196.015H141.737V184.449H99.7529V196.015Z" fill="#939290"/>
</g>
</svg>
