<svg width="117" height="59" viewBox="0 0 117 59" fill="none" xmlns="http://www.w3.org/2000/svg">
<path d="M60.5745 17.0583C60.7906 17.1838 61.0066 17.3095 61.1917 17.4665C61.1609 17.2153 61.1609 16.9642 61.1609 16.713C61.1609 15.4573 61.4078 14.2956 61.7474 13.1969C60.4819 12.1922 59.1239 11.533 58.1364 11.1248C57.7661 10.9678 57.3648 11.219 57.334 11.5956C57.2106 12.663 57.087 14.1701 57.3032 15.8024C58.3833 16.0536 59.5251 16.4302 60.5744 17.0583L60.5745 17.0583Z" fill="#3BCD84"/>
<path d="M70.8834 17.4663C71.0996 17.3092 71.2847 17.1838 71.5317 17.0581C72.581 16.4302 73.7231 16.0533 74.8031 15.8024C75.0193 14.1699 74.8957 12.663 74.7723 11.5956C74.7105 11.219 74.3403 10.9678 73.9699 11.1248C72.9822 11.533 71.6552 12.1922 70.3589 13.1969C70.6985 14.2958 70.9454 15.4573 70.9454 16.713C70.9142 16.964 70.8834 17.2151 70.8834 17.4663L70.8834 17.4663Z" fill="#3BCD84"/>
<path d="M65.5127 22.6793C65.7288 23.1188 66.346 23.1188 66.5619 22.6793C67.1792 21.4863 68.0125 20.1049 69.1854 18.8805C69.3398 18.1898 69.4631 17.4362 69.4631 16.6829C69.4631 13.4493 67.6731 10.5925 66.5312 9.08553C66.2843 8.7715 65.8214 8.7715 65.6052 9.08553C64.4324 10.6239 62.6423 13.4806 62.6423 16.6829C62.6423 17.4365 62.7348 18.1898 62.92 18.8805C64.0621 20.1049 64.9262 21.4862 65.5127 22.6793H65.5127Z" fill="#3BCD84"/>
<path d="M54.3709 22.4281C54.803 21.9258 55.3894 21.6433 56.0374 21.6433C56.6857 21.6433 57.3029 21.9258 57.7039 22.4281C58.0742 22.8676 58.6606 23.4013 59.3704 23.4013C60.0802 23.4013 60.6359 22.8676 61.0062 22.4281C61.4075 21.9258 62.0247 21.6433 62.6727 21.6433C62.8578 21.6433 63.043 21.6746 63.2281 21.7061C62.3948 20.4504 61.2529 19.1945 59.8023 18.3155C57.0555 16.7145 53.7223 16.84 51.8396 17.1225C51.4693 17.1853 51.2224 17.5933 51.3768 17.9387C51.8706 19.1943 52.7655 21.0153 54.1854 22.5536C54.2784 22.5223 54.3401 22.491 54.3709 22.4282L54.3709 22.4281Z" fill="#3BCD84"/>
<path d="M80.2036 17.1552C78.3209 16.9041 74.9876 16.7471 72.2409 18.3483C70.7595 19.1958 69.6484 20.4515 68.8151 21.7074C69.0002 21.6445 69.1854 21.6445 69.3705 21.6445C70.0187 21.6445 70.6359 21.927 71.037 22.4294C71.4073 22.8689 71.9937 23.4025 72.6727 23.4025C73.3825 23.4025 73.969 22.8689 74.3085 22.4294C74.7098 21.927 75.327 21.6445 75.975 21.6445C76.6232 21.6445 77.2404 21.927 77.6415 22.4294C77.6723 22.4922 77.7341 22.5548 77.7648 22.5864C79.1847 21.048 80.0796 19.1958 80.5735 17.9401C80.79 17.5947 80.5741 17.1866 80.2036 17.1552L80.2036 17.1552Z" fill="#3BCD84"/>
<path d="M79.3394 24.8768C78.074 24.8768 77.148 24.0606 76.5618 23.37C76.2841 23.0246 75.7285 23.0246 75.4508 23.37C74.8953 24.0606 73.9384 24.8768 72.6732 24.8768C71.4078 24.8768 70.4818 24.0606 69.8956 23.37C69.7413 23.2129 69.5561 23.0875 69.3402 23.0875C69.1241 23.0875 68.9081 23.1816 68.7848 23.37C68.2293 24.0606 67.2724 24.8768 66.0072 24.8768C64.7418 24.8768 63.8158 24.0606 63.2296 23.37C62.9519 23.0246 62.3963 23.0246 62.1186 23.37C61.5631 24.0606 60.6062 24.8768 59.341 24.8768C58.0755 24.8768 57.1496 24.0606 56.5634 23.37C56.409 23.2129 56.2239 23.1188 56.008 23.0875C55.7918 23.0875 55.5759 23.1816 55.4525 23.3386C54.8971 24.0293 53.9402 24.8455 52.675 24.8455C52.2737 24.8455 51.9342 25.1909 51.9342 25.599C51.9342 26.0072 52.2737 26.3526 52.675 26.3526C53.8786 26.3526 55.0205 25.8502 56.0082 24.9083C56.9959 25.8502 58.1378 26.3526 59.3414 26.3526C60.545 26.3526 61.687 25.8502 62.6746 24.9083C63.6624 25.8502 64.8043 26.3526 66.0079 26.3526C67.2115 26.3526 68.3534 25.8502 69.3411 24.9083C70.3288 25.8502 71.4707 26.3526 72.6743 26.3526C73.8779 26.3526 75.0198 25.8502 76.0075 24.9083C76.9953 25.8502 78.1371 26.3526 79.3407 26.3526C79.742 26.3526 80.0815 26.0072 80.0815 25.599C80.0802 25.2222 79.7407 24.8768 79.3394 24.8768V24.8768Z" fill="#FAFBCE"/>
<path d="M41.0508 24.994C40.9249 25.0569 40.862 24.9625 40.862 24.7108C40.862 24.5849 40.9721 24.4276 41.1924 24.2388C41.8847 23.7982 42.5297 23.2004 43.1276 22.4452C43.7569 21.69 44.0716 20.8718 44.0716 19.9908C44.0716 19.267 43.8041 18.7006 43.2692 18.2916C42.7343 17.8825 42.0577 17.5836 41.2396 17.3948C40.4529 17.1745 39.6505 17.0329 38.8324 16.97C38.0457 16.907 37.4007 16.8756 36.8972 16.8756C34.1281 16.8756 31.3748 17.1902 28.6372 17.8196C25.9311 18.4489 23.2407 19.1884 20.566 20.038C17.9228 20.8876 15.3111 21.6742 12.7308 22.398C10.1505 23.1217 7.60173 23.5937 5.08439 23.814C4.17186 23.8769 3.43239 23.6881 2.86599 23.2476C2.29959 22.807 1.89053 22.2249 1.63879 21.5012C1.41853 20.746 1.30839 20.0065 1.30839 19.2828C1.30839 18.6849 1.70173 18.0556 2.48839 17.3948C3.30653 16.734 4.31346 16.1204 5.50919 15.554C6.73639 14.9561 7.97933 14.4526 9.23799 14.0436C10.5281 13.603 11.6452 13.3198 12.5892 13.194C12.8095 13.1625 13.0297 13.1468 13.25 13.1468C13.4703 13.1153 13.6748 13.0996 13.8636 13.0996C14.2097 13.0996 14.5087 13.131 14.7604 13.194C15.0436 13.2569 15.2167 13.3828 15.2796 13.5716C13.7377 14.075 12.3375 14.547 11.0788 14.9876C9.85159 15.4281 8.64013 15.8844 7.44439 16.3564C5.90253 16.9542 4.80119 17.4892 4.14039 17.9612C3.47959 18.4332 3.14919 18.8265 3.14919 19.1412C3.14919 19.5502 3.66839 19.8334 4.70679 19.9908C5.74519 20.1481 7.01959 20.1953 8.52999 20.1324C9.63133 20.0694 10.7799 19.9436 11.9756 19.7548C13.2028 19.5345 14.3356 19.3142 15.374 19.094C16.4124 18.8422 17.1991 18.6534 17.734 18.5276C18.678 18.3073 19.9209 17.9926 21.4628 17.5836C23.0361 17.1745 24.7668 16.7497 26.6548 16.3092C28.5743 15.8686 30.5095 15.5068 32.4604 15.2236C34.4113 14.9089 36.2364 14.7516 37.9356 14.7516C38.4705 14.7516 38.974 14.7673 39.446 14.7988C39.918 14.8302 40.3585 14.8774 40.7676 14.9404C41.3025 15.0348 41.9319 15.1764 42.6556 15.3652C43.3793 15.5225 43.9929 15.8372 44.4964 16.3092C44.9999 16.7497 45.1887 17.442 45.0628 18.386C45.4089 19.0782 45.6764 19.5974 45.8652 19.9436C46.054 20.2897 46.1484 20.6358 46.1484 20.982C46.1484 21.0764 46.1484 21.1708 46.1484 21.2652C46.1484 21.3596 46.1327 21.454 46.1012 21.5484C45.9753 22.3036 45.5977 22.807 44.9684 23.0588C44.3705 23.3105 43.7255 23.5937 43.0332 23.9084C42.75 24.0342 42.4511 24.223 42.1364 24.4748C41.8532 24.7265 41.4913 24.8996 41.0508 24.994ZM18.1588 47.0364C17.6239 47.0364 17.1519 46.8161 16.7428 46.3756C16.3337 45.9665 16.0191 45.4788 15.7988 44.9124C15.5785 44.346 15.4684 43.8268 15.4684 43.3548C15.4684 42.1591 15.7988 40.7588 16.4596 39.154C17.1519 37.5492 18.0329 35.8815 19.1028 34.1508C20.2041 32.3887 21.3684 30.6895 22.5956 29.0532C23.8543 27.3855 25.05 25.8908 26.1828 24.5692C27.3471 23.2476 28.3068 22.2249 29.062 21.5012C28.8732 21.3124 28.7788 21.0921 28.7788 20.8404C28.7788 20.4628 28.9833 20.0852 29.3924 19.7076C29.8329 19.2985 30.3049 18.9209 30.8084 18.5748C31.3119 18.2286 31.7052 17.9454 31.9884 17.7252C32.2716 17.7252 32.6649 17.8038 33.1684 17.9612C33.6719 18.087 34.1124 18.2758 34.49 18.5276C34.8991 18.7793 35.1036 19.094 35.1036 19.4716C35.1036 19.566 35.0879 19.6604 35.0564 19.7548C35.0564 19.8492 35.0407 19.9436 35.0092 20.038C34.8833 20.3841 34.5215 20.8404 33.9236 21.4068C33.3257 21.9732 32.6964 22.5238 32.0356 23.0588C31.4063 23.5937 30.9185 24.0342 30.5724 24.3804C29.7543 25.1985 28.7788 26.2212 27.646 27.4484C26.5132 28.6756 25.3332 30.0129 24.106 31.4604C22.8788 32.8764 21.746 34.3553 20.7076 35.8972C19.6692 37.4076 18.8196 38.8865 18.1588 40.334C17.498 41.7815 17.1676 43.1188 17.1676 44.346C17.1676 44.9439 17.262 45.4473 17.4508 45.8564C17.6396 46.2969 18.0801 46.5172 18.7724 46.5172V46.8948C18.5836 46.9892 18.3791 47.0364 18.1588 47.0364ZM30.468 44.7236C29.587 44.7236 28.9891 44.4404 28.6744 43.874C28.3912 43.2761 28.2968 42.6783 28.3912 42.0804C28.5171 41.2623 28.7846 40.5228 29.1936 39.862C29.6342 39.2012 30.0747 38.5719 30.5152 37.974C30.8299 37.5649 31.0502 37.2188 31.176 36.9356C31.3334 36.6524 31.2862 36.4951 31.0344 36.4636C30.8771 36.5895 30.6254 36.7153 30.2792 36.8412C29.9331 36.9671 29.587 37.03 29.2408 37.03C28.9576 37.03 28.6902 36.9671 28.4384 36.8412C28.1867 36.7153 28.0136 36.4951 27.9192 36.1804C27.6046 36.6839 27.3056 37.1559 27.0224 37.5964C26.7392 38.0055 26.4718 38.3988 26.22 38.7764C25.748 39.4372 25.3075 40.0665 24.8984 40.6644C24.4894 41.2308 23.9544 41.8916 23.2936 42.6468C23.0734 42.8985 22.8688 43.0244 22.68 43.0244C22.4912 43.0244 22.3968 42.9143 22.3968 42.694C22.3968 42.5681 22.444 42.4423 22.5384 42.3164C23.2622 41.4353 23.86 40.6801 24.332 40.0508C24.804 39.39 25.3547 38.6191 25.984 37.738C26.6134 36.794 27.164 35.7399 27.636 34.5756C28.108 33.4113 28.4856 32.3729 28.7688 31.4604C29.052 30.5164 29.2094 29.95 29.2408 29.7612C30.059 30.0759 30.6254 30.422 30.94 30.7996C31.2862 31.1772 31.4592 31.5863 31.4592 32.0268C31.4592 32.6247 31.176 33.2383 30.6096 33.8676C30.0747 34.4969 29.4454 35.0791 28.7216 35.614C29.0048 36.0231 29.3352 36.2276 29.7128 36.2276C30.1219 36.2276 30.531 36.0545 30.94 35.7084C31.3806 35.3623 31.711 35.0791 31.9312 34.8588C32.4347 34.2295 32.9854 33.9148 33.5832 33.9148C33.9294 33.9148 34.2283 34.0249 34.48 34.2452C34.7632 34.434 34.9048 34.6857 34.9048 35.0004C34.9048 35.1577 34.8576 35.3151 34.7632 35.4724C34.2912 36.1017 33.7563 36.8727 33.1584 37.7852C32.5606 38.6977 32.0099 39.6103 31.5064 40.5228C31.0344 41.4039 30.6883 42.1591 30.468 42.7884C30.4366 42.9143 30.4051 43.0244 30.3736 43.1188C30.3736 43.1817 30.3736 43.2447 30.3736 43.3076C30.3736 43.5593 30.4838 43.6852 30.704 43.6852C30.8614 43.6852 31.0502 43.6223 31.2704 43.4964C31.4907 43.3705 31.6638 43.2447 31.7896 43.1188C32.356 42.6153 33.064 41.8287 33.9136 40.7588C34.7632 39.6889 35.5499 38.6663 36.2736 37.6908C36.7142 37.0615 37.0131 36.7468 37.1704 36.7468C37.3278 36.7468 37.3278 36.9513 37.1704 37.3604C37.0446 37.7695 36.8086 38.2415 36.4624 38.7764C35.9904 39.4372 35.4398 40.2396 34.8104 41.1836C34.2126 42.0961 33.536 42.9143 32.7808 43.638C32.0571 44.3617 31.2862 44.7236 30.468 44.7236ZM36.9732 44.6292C36.4697 44.6292 36.0449 44.4561 35.6988 44.11C35.3841 43.7953 35.1481 43.4177 34.9908 42.9772C34.8334 42.5367 34.7548 42.1591 34.7548 41.8444C34.7548 40.7745 35.0852 39.6417 35.746 38.446C36.4068 37.2503 37.2564 36.1332 38.2948 35.0948C39.3646 34.0564 40.4817 33.2068 41.646 32.546C42.8102 31.8852 43.8958 31.5548 44.9028 31.5548C45.6265 31.5548 46.3502 32.0425 47.074 33.018C47.1369 33.1124 47.1998 33.2383 47.2628 33.3956C47.3572 33.5529 47.4044 33.7103 47.4044 33.8676C47.4044 34.1508 47.2942 34.3396 47.074 34.434C47.0425 34.4655 46.9638 34.3711 46.838 34.1508C46.7436 33.8991 46.4132 33.7732 45.8468 33.7732C45.3118 33.7732 44.6038 34.0249 43.7228 34.5284C42.8417 35.0319 41.9134 35.6927 40.938 36.5108C39.994 37.3289 39.1286 38.21 38.342 39.154C37.5868 40.098 37.0361 41.0105 36.69 41.8916C36.627 42.1119 36.5641 42.3321 36.5012 42.5524C36.4382 42.7727 36.4068 42.9615 36.4068 43.1188C36.4068 43.402 36.5012 43.5436 36.69 43.5436C36.8788 43.5436 37.1305 43.4335 37.4452 43.2132C38.106 42.7412 38.7982 42.1591 39.522 41.4668C40.2457 40.7431 40.938 40.0036 41.5988 39.2484C42.291 38.4617 42.8732 37.7223 43.3452 37.03C43.8172 36.3377 44.1161 35.7713 44.242 35.3308C44.3049 35.0791 44.6668 34.9532 45.3276 34.9532C45.8625 34.9532 46.3188 35.0791 46.6964 35.3308C47.074 35.5511 47.1684 35.8028 46.9796 36.086C46.4132 36.9356 45.8625 37.8324 45.3276 38.7764C44.7926 39.6889 44.3993 40.6172 44.1476 41.5612C44.1161 41.6871 44.0846 41.7972 44.0532 41.8916C44.0532 41.986 44.0532 42.0647 44.0532 42.1276C44.0532 42.4423 44.179 42.5996 44.4308 42.5996C44.714 42.5996 45.0286 42.458 45.3748 42.1748C46.0356 41.5455 46.7278 40.7431 47.4516 39.7676C48.2068 38.7607 48.9777 37.7695 49.7644 36.794C50.0476 36.4793 50.2364 36.322 50.3308 36.322C50.4252 36.322 50.4724 36.4007 50.4724 36.558C50.4724 36.6839 50.4409 36.8097 50.378 36.9356C50.2521 37.2503 50.079 37.5807 49.8588 37.9268C49.6385 38.2415 49.434 38.5247 49.2452 38.7764C49.0878 38.9967 48.8204 39.39 48.4428 39.9564C48.0652 40.5228 47.6246 41.1207 47.1212 41.75C46.6177 42.3793 46.0985 42.93 45.5636 43.402C45.0286 43.8425 44.5252 44.0628 44.0532 44.0628C43.3924 44.0628 42.8574 43.8583 42.4484 43.4492C42.0708 43.0087 41.882 42.6153 41.882 42.2692C41.882 41.8287 41.8977 41.5297 41.9292 41.3724C41.9921 41.0577 42.0865 40.6801 42.2124 40.2396C42.3697 39.7991 42.5113 39.3743 42.6372 38.9652C42.3854 39.3113 42.0078 39.7991 41.5044 40.4284C41.0009 41.0577 40.4502 41.7028 39.8524 42.3636C39.286 42.9929 38.7353 43.5279 38.2004 43.9684C37.6654 44.4089 37.2564 44.6292 36.9732 44.6292ZM56.2086 44.6764C55.5164 44.6764 54.9342 44.4719 54.4622 44.0628C54.0217 43.6537 53.8014 43.0087 53.8014 42.1276C53.8014 41.3724 53.9273 40.6172 54.179 39.862C54.4308 39.0753 54.6982 38.3673 54.9814 37.738C55.2961 37.1087 55.5478 36.6367 55.7366 36.322C56.4289 35.0319 56.6492 34.3868 56.3974 34.3868C56.1772 34.3868 55.6737 34.7959 54.887 35.614C54.1318 36.4007 53.2036 37.5177 52.1022 38.9652C51.1268 40.2239 50.4817 41.2151 50.167 41.9388C49.8524 42.6311 49.6478 43.1975 49.5534 43.638C49.522 43.9212 49.286 44.0628 48.8454 44.0628C48.4993 44.0628 48.1532 43.9212 47.807 43.638C47.4609 43.3233 47.2878 42.8985 47.2878 42.3636C47.2878 42.2063 47.4294 41.7972 47.7126 41.1364C47.9958 40.4756 48.3262 39.7047 48.7038 38.8236C49.1129 37.9425 49.5062 37.1087 49.8838 36.322C50.2614 35.5353 50.5446 34.9375 50.7334 34.5284C50.3558 34.3081 50.2772 34.0249 50.4974 33.6788L51.8662 31.1772C51.9606 31.1142 52.2438 31.0041 52.7158 30.8468C53.2193 30.658 53.6756 30.5636 54.0846 30.5636C54.651 30.5636 54.9342 30.7524 54.9342 31.13C54.9342 31.3188 54.8084 31.6334 54.5566 32.074C54.4622 32.2313 54.242 32.6247 53.8958 33.254C53.5497 33.8519 53.1564 34.5599 52.7158 35.378C52.3068 36.1647 51.9134 36.9199 51.5358 37.6436C51.1897 38.3359 50.938 38.8551 50.7806 39.2012C50.7806 39.2327 50.7649 39.2641 50.7334 39.2956C50.7334 39.2956 50.7334 39.3113 50.7334 39.3428C50.7334 39.4687 50.8436 39.3585 51.0638 39.0124C51.3156 38.6663 51.5044 38.4145 51.6302 38.2572C52.5742 36.9671 53.5497 35.7713 54.5566 34.67C55.595 33.5687 56.6806 32.4831 57.8134 31.4132C58.0337 31.539 58.3484 31.6177 58.7574 31.6492C59.198 31.6807 59.607 31.7593 59.9846 31.8852C60.3622 31.9796 60.551 32.2313 60.551 32.6404C60.551 33.2697 60.2836 33.9777 59.7486 34.7644C59.2452 35.5511 58.6788 36.3535 58.0494 37.1716C57.4516 37.9583 56.8852 38.9023 56.3502 40.0036C55.8153 41.1049 55.5478 42.0332 55.5478 42.7884C55.5478 43.4177 55.7524 43.7324 56.1614 43.7324C56.3502 43.7324 56.602 43.638 56.9166 43.4492C57.1684 43.2919 57.6561 42.8985 58.3798 42.2692C59.1036 41.6084 59.8745 40.6959 60.6926 39.5316C60.9444 39.154 61.1961 38.9652 61.4478 38.9652C61.5737 38.9652 61.6524 39.0281 61.6838 39.154C61.7153 39.2484 61.6996 39.3743 61.6366 39.5316C59.434 42.9615 57.6246 44.6764 56.2086 44.6764ZM63.1172 58.034C62.8654 58.034 62.6294 58.0025 62.4092 57.9396C62.1889 57.8767 62.0001 57.7508 61.8428 57.562C61.7169 57.4361 61.654 57.1844 61.654 56.8068C61.654 56.146 61.8428 55.202 62.2204 53.9748C62.598 52.7791 63.0857 51.4417 63.6836 49.9628C64.3129 48.4839 64.9737 46.9892 65.666 45.4788C66.3582 43.9999 67.0033 42.6468 67.6012 41.4196C68.2305 40.1609 68.734 39.1855 69.1116 38.4932C68.8598 38.8393 68.4508 39.3585 67.8844 40.0508C67.318 40.7116 66.6886 41.4039 65.9964 42.1276C65.3041 42.8199 64.659 43.4177 64.0612 43.9212C63.4633 44.3932 63.0228 44.6292 62.7396 44.6292C62.2361 44.6292 61.8113 44.4561 61.4652 44.11C61.1505 43.7953 60.9145 43.4177 60.7572 42.9772C60.5998 42.5367 60.5212 42.1591 60.5212 41.8444C60.5212 40.7745 60.8516 39.6417 61.5124 38.446C62.1732 37.2503 63.0228 36.1332 64.0612 35.0948C65.131 34.0564 66.2481 33.2068 67.4124 32.546C68.5766 31.8852 69.6622 31.5548 70.6692 31.5548C71.3929 31.5548 72.1166 32.0425 72.8404 33.018C72.9033 33.1124 72.9662 33.2383 73.0292 33.3956C73.1236 33.5529 73.1708 33.7103 73.1708 33.8676C73.1708 34.1508 73.0606 34.3396 72.8404 34.434C72.8089 34.4655 72.7302 34.3711 72.6044 34.1508C72.51 33.8991 72.1796 33.7732 71.6132 33.7732C71.0782 33.7732 70.3702 34.0249 69.4892 34.5284C68.6081 35.0319 67.6798 35.6927 66.7044 36.5108C65.7604 37.3289 64.895 38.21 64.1084 39.154C63.3532 40.098 62.8025 41.0105 62.4564 41.8916C62.3934 42.1119 62.3305 42.3321 62.2676 42.5524C62.2046 42.7727 62.1732 42.9615 62.1732 43.1188C62.1732 43.402 62.2676 43.5436 62.4564 43.5436C62.6452 43.5436 62.8969 43.4335 63.2116 43.2132C63.8724 42.7412 64.5646 42.1591 65.2884 41.4668C66.0121 40.7431 66.7044 40.0036 67.3652 39.2484C68.0574 38.4617 68.6396 37.7223 69.1116 37.03C69.5836 36.3377 69.8825 35.7713 70.0084 35.3308C70.1028 35.1735 70.2129 35.0791 70.3388 35.0476C70.4646 34.9847 70.7164 34.9532 71.094 34.9532C71.3142 34.9532 71.6289 35.0004 72.038 35.0948C72.4785 35.1577 72.8561 35.2679 73.1708 35.4252C73.4854 35.5825 73.5956 35.7556 73.5012 35.9444C72.274 37.4233 71.1254 39.1383 70.0556 41.0892C68.9857 43.0087 68.0102 44.9911 67.1292 47.0364C66.2481 49.1132 65.4614 51.1113 64.7692 53.0308C64.486 53.9119 64.3444 54.6356 64.3444 55.202C64.3444 55.7055 64.486 55.9572 64.7692 55.9572C64.958 55.9572 65.1782 55.7684 65.43 55.3908C65.6817 55.0132 65.8233 54.494 65.8548 53.8332C65.9177 53.2039 66.138 52.3228 66.5156 51.19C66.8932 50.0572 67.3652 48.8457 67.9316 47.5556C68.5294 46.2969 69.1273 45.1799 69.7252 44.2044C70.4174 43.1031 71.1254 42.0961 71.8492 41.1836C72.5729 40.2711 73.1865 39.5473 73.69 39.0124C73.8788 38.8236 74.0204 38.7292 74.1148 38.7292C74.1777 38.7292 74.2092 38.7921 74.2092 38.918C74.2092 39.2641 74.0676 39.6575 73.7844 40.098C73.4068 40.6329 72.9348 41.278 72.3684 42.0332C71.802 42.7884 71.2356 43.6223 70.6692 44.5348C69.5993 46.234 68.8441 47.7129 68.4036 48.9716C67.9945 50.2303 67.7428 51.3316 67.6484 52.2756C67.554 53.2196 67.4596 54.1007 67.3652 54.9188C67.2393 55.8943 66.9089 56.5865 66.374 56.9956C65.839 57.4361 65.4142 57.7823 65.0996 58.034C65.0366 57.9711 64.9422 57.9396 64.8164 57.9396C64.722 57.9396 64.6118 57.9396 64.486 57.9396C64.2657 57.9396 64.0454 57.9553 63.8252 57.9868C63.6049 58.0183 63.3689 58.034 63.1172 58.034ZM75.6547 44.2516C74.9939 44.2516 74.4432 44.11 74.0027 43.8268C73.5936 43.5436 73.3891 43.1503 73.3891 42.6468C73.3891 41.9231 73.6093 41.0735 74.0499 40.098C74.4904 39.0911 74.8995 38.1943 75.2771 37.4076C75.2456 37.3132 75.1984 37.2188 75.1355 37.1244C75.104 36.9985 75.1512 36.8569 75.2771 36.6996C76.0637 35.5353 76.8189 34.5284 77.5427 33.6788C78.2664 32.7977 78.7856 32.3572 79.1003 32.3572C79.3835 32.3572 79.7453 32.5145 80.1859 32.8292C80.6264 33.1124 80.9883 33.3956 81.2715 33.6788C80.7365 34.3396 80.1387 35.0948 79.4779 35.9444C78.8485 36.7625 78.2664 37.6121 77.7315 38.4932C77.1965 39.3428 76.7875 40.1452 76.5043 40.9004C76.3469 41.4353 76.2683 41.7657 76.2683 41.8916C76.2683 42.1119 76.3312 42.222 76.4571 42.222C76.6773 42.222 77.0392 41.9703 77.5427 41.4668C78.2664 40.7431 79.0531 39.8305 79.9027 38.7292C80.7523 37.5964 81.5704 36.4793 82.3571 35.378C83.1437 34.2767 83.7888 33.4271 84.2923 32.8292C84.6699 32.3572 85.0632 32.1212 85.4723 32.1212C85.8184 32.1212 86.1488 32.2471 86.4635 32.4988C86.8096 32.7505 87.14 33.0652 87.4547 33.4428C87.0141 34.0092 86.4635 34.7801 85.8027 35.7556C85.1733 36.6996 84.5912 37.6751 84.0563 38.682C83.5213 39.6889 83.1752 40.57 83.0179 41.3252C82.9864 41.4511 82.9549 41.5927 82.9235 41.75C82.9235 41.9073 82.9235 42.0489 82.9235 42.1748C82.9235 42.6468 83.0493 42.8828 83.3011 42.8828C83.5213 42.8828 83.8203 42.7097 84.1979 42.3636C84.6699 41.9231 85.1576 41.3567 85.6611 40.6644C86.1645 39.9721 86.7152 39.2484 87.3131 38.4932C87.5648 38.21 87.7851 37.9425 87.9739 37.6908C88.1941 37.4076 88.4144 37.1244 88.6347 36.8412C89.1067 36.2433 89.4056 35.9444 89.5315 35.9444C89.6259 35.9444 89.5944 36.1175 89.4371 36.4636C89.3112 36.8097 89.1224 37.2031 88.8707 37.6436C88.6189 38.0841 88.3672 38.4775 88.1155 38.8236C87.8323 39.2641 87.5176 39.7519 87.1715 40.2868C86.8253 40.7903 86.4477 41.278 86.0387 41.75C85.5667 42.3164 85.1104 42.8356 84.6699 43.3076C84.2293 43.7796 83.7259 44.0156 83.1595 44.0156C82.2469 44.0156 81.5547 43.7953 81.0827 43.3548C80.6421 42.9143 80.4219 42.4108 80.4219 41.8444C80.4219 41.3095 80.5635 40.6644 80.8467 39.9092C81.1613 39.154 81.4288 38.4932 81.6491 37.9268C81.4288 38.1156 81.0669 38.5561 80.5635 39.2484C80.0915 39.9092 79.5408 40.6329 78.9115 41.4196C78.3136 42.1748 77.7157 42.8356 77.1179 43.402C76.52 43.9684 76.0323 44.2516 75.6547 44.2516ZM97.0436 30.9412C96.4458 30.8153 95.8951 30.5006 95.3916 29.9972C94.9196 29.4937 94.7466 28.9273 94.8724 28.298C94.9354 27.9518 95.0612 27.7316 95.25 27.6372C95.4388 27.5428 95.785 27.4641 96.2884 27.4012C96.8548 27.3383 97.2324 27.291 97.4212 27.2596C97.6415 27.2281 97.846 27.1966 98.0348 27.1652C98.2551 27.1022 98.6484 27.0236 99.2148 26.9292C99.3407 26.8977 99.498 26.819 99.6868 26.6932C99.8756 26.5673 99.9386 26.646 99.8756 26.9292C99.8756 27.055 99.7655 27.2124 99.5452 27.4012C99.3564 27.5585 99.1834 27.6687 99.026 27.7316C98.6799 27.8889 98.2866 28.0777 97.846 28.298C97.437 28.5183 97.1223 28.8172 96.902 29.1948C96.8076 29.3836 96.7604 29.5567 96.7604 29.714C96.7604 30.1545 96.9178 30.4063 97.2324 30.4692C97.2954 30.4692 97.3268 30.5164 97.3268 30.6108C97.3268 30.6737 97.2954 30.7524 97.2324 30.8468C97.1695 30.9412 97.1066 30.9726 97.0436 30.9412ZM91.1908 44.7708C90.0266 44.7708 89.2084 44.4089 88.7364 43.6852C88.2959 42.9615 88.0756 42.1119 88.0756 41.1364C88.0756 39.6575 88.3431 38.4303 88.878 37.4548C88.5634 37.2975 88.4847 37.1087 88.642 36.8884C89.0196 36.3849 89.4602 35.7871 89.9636 35.0948C90.4671 34.4025 90.9548 33.7732 91.4268 33.2068C91.9303 32.6404 92.3394 32.31 92.654 32.2156C92.7484 32.1841 92.8743 32.1684 93.0316 32.1684C93.5351 32.1684 93.9914 32.3415 94.4004 32.6876C94.841 33.0337 95.1242 33.254 95.25 33.3484C94.4948 34.1036 93.7396 34.9689 92.9844 35.9444C92.2607 36.9199 91.6471 37.9583 91.1436 39.0596C90.6402 40.1609 90.3884 41.278 90.3884 42.4108C90.3884 42.8199 90.4671 43.1188 90.6244 43.3076C90.7818 43.4649 90.9706 43.5436 91.1908 43.5436C91.6628 43.5436 92.1506 43.3233 92.654 42.8828C93.2204 42.3793 93.9284 41.6399 94.778 40.6644C95.6591 39.6575 96.4615 38.6663 97.1852 37.6908C97.6258 37.0615 97.9247 36.7468 98.082 36.7468C98.2394 36.7468 98.2394 36.9513 98.082 37.3604C97.9562 37.7695 97.7202 38.2415 97.374 38.7764C96.9335 39.3743 96.3986 40.1452 95.7692 41.0892C95.1399 42.0017 94.4634 42.8199 93.7396 43.5436C93.3306 43.9527 92.89 44.2516 92.418 44.4404C91.9775 44.6607 91.5684 44.7708 91.1908 44.7708ZM100.364 44.9124C99.2307 44.9124 98.4126 44.582 97.9091 43.9212C97.4371 43.2604 97.2011 42.3793 97.2011 41.278C97.2011 39.8935 97.5 38.2729 98.0979 36.4164C98.7272 34.5599 99.5454 32.6089 100.552 30.5636C101.559 28.5182 102.661 26.5358 103.856 24.6164C105.084 22.6654 106.295 20.9033 107.491 19.33C108.718 17.7566 109.851 16.5294 110.889 15.6484C111.959 14.7358 112.809 14.311 113.438 14.374C114.004 14.4369 114.413 14.6257 114.665 14.9404C114.948 15.2236 115.2 15.5382 115.42 15.8844C115.641 16.199 115.94 16.4508 116.317 16.6396C116.317 17.4262 115.94 18.386 115.184 19.5188C114.461 20.6516 113.564 21.863 112.494 23.1532C111.959 23.7825 111.251 24.6164 110.37 25.6548C109.52 26.6932 108.592 27.8102 107.585 29.006C106.578 30.2017 105.618 31.3817 104.706 32.546C103.793 33.7103 103.007 34.7487 102.346 35.6612C101.717 36.5423 101.339 37.1873 101.213 37.5964C101.182 37.8167 101.103 37.9268 100.977 37.9268C100.788 37.9268 100.725 37.7695 100.788 37.4548C100.851 37.0457 101.182 36.3692 101.78 35.4252C102.409 34.4497 103.164 33.3484 104.045 32.1212C104.958 30.894 105.886 29.6825 106.83 28.4868C107.774 27.2596 108.608 26.2054 109.332 25.3244C110.055 24.4118 110.527 23.814 110.748 23.5308C111.22 22.9644 111.676 22.4137 112.116 21.8788C112.557 21.3124 112.95 20.7774 113.296 20.274C114.114 19.1412 114.524 18.323 114.524 17.8196C114.524 17.5364 114.303 17.5364 113.863 17.8196C113.454 18.0713 112.84 18.6849 112.022 19.6604C111.235 20.5729 110.307 21.7214 109.237 23.106C108.167 24.459 107.066 25.938 105.933 27.5428C104.8 29.1476 103.746 30.7996 102.771 32.4988C101.795 34.198 101.009 35.85 100.411 37.4548C99.8128 39.0281 99.5139 40.4599 99.5139 41.75C99.5139 42.5367 99.6398 43.0873 99.8915 43.402C100.143 43.7167 100.458 43.874 100.836 43.874C101.654 43.874 102.55 43.3391 103.526 42.2692C104.155 41.6399 104.8 40.8532 105.461 39.9092C106.153 38.9652 106.688 38.1628 107.066 37.502C107.79 36.2748 108.262 35.6612 108.482 35.6612C108.545 35.6612 108.576 35.7084 108.576 35.8028C108.576 35.8343 108.561 35.8815 108.529 35.9444C108.529 36.0073 108.513 36.086 108.482 36.1804C108.167 37.3132 107.617 38.4617 106.83 39.626C106.043 40.7903 105.225 41.8601 104.376 42.8356C103.746 43.5908 103.07 44.1257 102.346 44.4404C101.654 44.7551 100.993 44.9124 100.364 44.9124Z" fill="#D7B31B"/>
</svg>
