<svg width="20" height="11" viewBox="0 0 20 11" fill="none" xmlns="http://www.w3.org/2000/svg">
<path d="M3.78817 5.67761C4.62573 4.26269 5.90506 3.16221 7.42928 2.54554C8.95349 1.92886 10.6381 1.83016 12.2239 2.26463C13.8097 2.69909 15.2088 3.64264 16.2059 4.95008C17.2029 6.25751 17.7427 7.85637 17.7422 9.50061C17.7422 9.76583 17.8475 10.0202 18.0351 10.2077C18.2226 10.3953 18.477 10.5006 18.7422 10.5006C19.0074 10.5006 19.2617 10.3953 19.4493 10.2077C19.6368 10.0202 19.7422 9.76583 19.7422 9.50061C19.7423 7.48934 19.1041 5.52993 17.9195 3.90455C16.7348 2.27917 15.0649 1.0717 13.1502 0.456035C11.2355 -0.159633 9.17477 -0.151729 7.26483 0.47861C5.3549 1.10895 3.69429 2.32919 2.52217 3.96361L1.98517 0.918612C1.93915 0.657373 1.79125 0.425114 1.57398 0.272928C1.35672 0.120743 1.08791 0.0610965 0.826668 0.107112C0.56543 0.153127 0.33317 0.301033 0.180985 0.518294C0.0287989 0.735555 -0.0308472 1.00437 0.0151678 1.26561L1.05717 7.17461C1.10354 7.43574 1.25174 7.66775 1.46917 7.81961C1.61086 7.91463 1.77271 7.97538 1.94193 7.99708C2.11114 8.01877 2.28309 8.00081 2.44417 7.94461L8.12417 6.94361C8.38541 6.8976 8.61767 6.74969 8.76985 6.53243C8.92204 6.31517 8.98168 6.04635 8.93567 5.78511C8.88965 5.52387 8.74175 5.29161 8.52448 5.13943C8.30722 4.98724 8.03841 4.9276 7.77717 4.97361L3.78817 5.67761Z" fill="black" fill-opacity="0.7"/>
</svg>
