<svg width="36" height="15" viewBox="0 0 36 15" fill="none" xmlns="http://www.w3.org/2000/svg">
<rect x="0.506958" y="0.75" width="34.6557" height="14" rx="7" fill="#8D99AE" fill-opacity="0.5"/>
<circle cx="7.50694" cy="7.74992" r="5.85246" fill="#EDF2F4"/>
<path d="M6.68716 7.87524C6.6825 8.30509 6.74132 8.45365 6.75882 8.48826C6.7929 8.50606 6.94445 8.56934 7.39213 8.56934C7.83362 8.56934 7.98413 8.50777 8.01857 8.48998C8.03595 8.45603 8.09705 8.30623 8.09705 7.86442C8.09705 7.42261 8.03595 7.2728 8.01857 7.23886C7.98413 7.22106 7.83362 7.1595 7.39213 7.1595C6.95704 7.1595 6.80747 7.21932 6.77258 7.23713C6.75529 7.27052 6.69207 7.42153 6.68716 7.87524Z" stroke="#8D99AE" stroke-width="2" stroke-linecap="round" stroke-linejoin="round"/>
<path d="M7.39209 5.09375V5.51998" stroke="#8D99AE" stroke-width="2" stroke-linecap="round"/>
<path d="M7.39209 10.209V10.6352" stroke="#8D99AE" stroke-width="2" stroke-linecap="round"/>
<path d="M10.1626 7.86426L9.73637 7.86426" stroke="#8D99AE" stroke-width="2" stroke-linecap="round"/>
<path d="M5.04785 7.86426L4.62162 7.86426" stroke="#8D99AE" stroke-width="2" stroke-linecap="round"/>
<path d="M5.26099 5.7334L5.56238 6.03479" stroke="#8D99AE" stroke-width="2" stroke-linecap="round"/>
<path d="M5.26099 10.084L5.56238 9.78259" stroke="#8D99AE" stroke-width="2" stroke-linecap="round"/>
<path d="M9.61151 5.7334L9.31012 6.03479" stroke="#8D99AE" stroke-width="2" stroke-linecap="round"/>
<path d="M9.61151 10.084L9.31012 9.7826" stroke="#8D99AE" stroke-width="2" stroke-linecap="round"/>
</svg>
