<svg width="19" height="18" viewBox="0 0 19 18" fill="none" xmlns="http://www.w3.org/2000/svg">
<path d="M1.16266 15C1.16266 13.9391 1.58409 12.9217 2.33423 12.1716C3.08438 11.4214 4.10179 11 5.16266 11H13.1627C14.2235 11 15.2409 11.4214 15.9911 12.1716C16.7412 12.9217 17.1627 13.9391 17.1627 15C17.1627 15.5304 16.9519 16.0391 16.5769 16.4142C16.2018 16.7893 15.6931 17 15.1627 17H3.16266C2.63223 17 2.12352 16.7893 1.74845 16.4142C1.37337 16.0391 1.16266 15.5304 1.16266 15Z" stroke="#3BCD84" stroke-width="2" stroke-linejoin="round"/>
<path d="M9.16266 7C10.8195 7 12.1627 5.65685 12.1627 4C12.1627 2.34315 10.8195 1 9.16266 1C7.5058 1 6.16266 2.34315 6.16266 4C6.16266 5.65685 7.5058 7 9.16266 7Z" stroke="#3BCD84" stroke-width="2"/>
</svg>
