<svg width="25" height="24" viewBox="0 0 25 24" fill="none" xmlns="http://www.w3.org/2000/svg">
<path d="M20.2267 6.75028H18.3657L13.7997 11.3143C13.9569 11.7151 13.9714 12.1578 13.8406 12.568C13.7099 12.9782 13.4418 13.3308 13.0816 13.5667C12.7214 13.8025 12.291 13.9071 11.8627 13.8629C11.4345 13.8187 11.0345 13.6283 10.73 13.3239C10.4256 13.0195 10.2353 12.6195 10.1911 12.1912C10.1469 11.763 10.2515 11.3325 10.4873 10.9723C10.7231 10.6121 11.0758 10.3441 11.486 10.2133C11.8962 10.0826 12.3389 10.097 12.7397 10.2543L17.3047 5.68928V3.82828C17.3048 3.57925 17.4037 3.34045 17.5797 3.16428L19.3097 1.43428C19.3416 1.40196 19.3818 1.37901 19.4259 1.3679C19.4699 1.35679 19.5162 1.35796 19.5597 1.37128C19.6487 1.39728 19.7147 1.47128 19.7327 1.56228L20.1927 3.86328L22.4927 4.32328C22.5827 4.34127 22.6567 4.40727 22.6827 4.49627C22.6958 4.53951 22.697 4.58549 22.6861 4.62934C22.6751 4.67318 22.6525 4.71325 22.6207 4.74528L20.8897 6.47528C20.8027 6.56244 20.6993 6.63159 20.5855 6.67878C20.4718 6.72596 20.3498 6.75026 20.2267 6.75028Z" fill="black"/>
<path d="M2.67969 12C2.67969 14.4864 3.66741 16.871 5.42556 18.6291C7.18371 20.3873 9.56828 21.375 12.0547 21.375C13.2858 21.375 14.5049 21.1325 15.6423 20.6614C16.7798 20.1902 17.8133 19.4997 18.6838 18.6291C19.5544 17.7586 20.2449 16.7251 20.7161 15.5877C21.1872 14.4502 21.4297 13.2311 21.4297 12C21.4297 11.102 21.3037 10.234 21.0687 9.41301C21.022 9.2245 21.0502 9.02522 21.1474 8.8571C21.2447 8.68899 21.4033 8.56515 21.59 8.51164C21.7767 8.45813 21.9769 8.47913 22.1484 8.57021C22.32 8.6613 22.4495 8.81537 22.5097 9.00001C22.7837 9.95401 22.9297 10.96 22.9297 12C22.9297 18.006 18.0607 22.875 12.0547 22.875C6.04869 22.875 1.17969 18.006 1.17969 12C1.17969 5.99401 6.04869 1.12501 12.0547 1.12501C13.0697 1.12401 14.0787 1.26501 15.0547 1.54401C15.1498 1.5707 15.2388 1.61594 15.3164 1.67713C15.394 1.73831 15.4588 1.81423 15.507 1.90053C15.5552 1.98683 15.5858 2.0818 15.5972 2.17998C15.6085 2.27816 15.6003 2.37762 15.5731 2.47264C15.5459 2.56765 15.5002 2.65635 15.4386 2.73364C15.377 2.81092 15.3007 2.87527 15.2141 2.92297C15.1276 2.97068 15.0324 3.00081 14.9342 3.01163C14.836 3.02244 14.7366 3.01374 14.6417 2.98601C13.8004 2.74573 12.9296 2.62423 12.0547 2.62501C9.56828 2.62501 7.18371 3.61273 5.42556 5.37088C3.66741 7.12903 2.67969 9.5136 2.67969 12Z" fill="black"/>
<path d="M7.17967 11.9998C7.18246 12.6621 7.32022 13.3169 7.58452 13.9242C7.84882 14.5315 8.23413 15.0786 8.71692 15.532C9.19971 15.9855 9.76985 16.3357 10.3925 16.5615C11.0152 16.7872 11.6774 16.8836 12.3385 16.8449C12.9997 16.8062 13.6461 16.6331 14.2382 16.3363C14.8303 16.0394 15.3556 15.625 15.7822 15.1183C16.2088 14.6116 16.5276 14.0233 16.7192 13.3893C16.9108 12.7553 16.9712 12.0889 16.8967 11.4308C16.8757 11.2975 16.8911 11.161 16.9414 11.0358C16.9916 10.9106 17.0748 10.8013 17.1821 10.7195C17.2895 10.6377 17.4169 10.5864 17.551 10.5712C17.685 10.5559 17.8207 10.5772 17.9437 10.6328C18.1947 10.7448 18.3637 10.9838 18.3857 11.2578C18.5409 12.573 18.2826 13.904 17.6466 15.0656C17.0105 16.2273 16.0284 17.1619 14.8366 17.7396C13.6449 18.3174 12.3028 18.5095 10.9969 18.2892C9.69092 18.069 8.48603 17.4474 7.54967 16.5108C6.61357 15.5752 5.9918 14.3715 5.7706 13.0667C5.5494 11.7618 5.73973 10.4204 6.3152 9.22863C6.89066 8.03681 7.82274 7.05361 8.98216 6.41538C10.1416 5.77714 11.4709 5.51552 12.7857 5.66679C12.8851 5.67601 12.9816 5.70498 13.0697 5.75201C13.1577 5.79903 13.2355 5.86315 13.2985 5.94063C13.3614 6.0181 13.4083 6.10736 13.4363 6.20317C13.4643 6.29898 13.4729 6.39942 13.4615 6.4986C13.4502 6.59778 13.4192 6.6937 13.3704 6.78075C13.3215 6.86779 13.2557 6.9442 13.177 7.0055C13.0982 7.0668 13.008 7.11176 12.9116 7.13774C12.8152 7.16372 12.7146 7.17019 12.6157 7.15679C11.9327 7.07783 11.2408 7.14419 10.5852 7.35153C9.92972 7.55886 9.32547 7.90247 8.81212 8.35982C8.29878 8.81716 7.88795 9.3779 7.60661 10.0052C7.32527 10.6325 7.17978 11.3123 7.17967 11.9998Z" fill="black"/>
</svg>
