<svg width="22" height="22" viewBox="0 0 22 22" fill="none" xmlns="http://www.w3.org/2000/svg">
<path d="M21 11.135C21.0124 10.4272 20.9395 9.72045 20.783 9.03003H11.114V12.852H16.789C16.6816 13.5221 16.4397 14.1635 16.0779 14.7376C15.7162 15.3118 15.242 15.8069 14.684 16.193L14.665 16.321L17.722 18.689L17.934 18.71C18.9461 17.7318 19.7419 16.5523 20.27 15.2476C20.7981 13.9428 21.0468 12.5418 21 11.135Z" fill="#4285F4"/>
<path d="M11.297 21.204C13.8052 21.2749 16.2454 20.3824 18.116 18.71L14.866 16.193C13.8121 16.8992 12.5642 17.2593 11.296 17.223C9.99392 17.2153 8.72733 16.7978 7.67586 16.0297C6.62439 15.2617 5.84143 14.1821 5.43801 12.944L5.31701 12.954L2.13801 15.414L2.09601 15.53C2.95217 17.2362 4.26608 18.6707 5.89081 19.6729C7.51554 20.6751 9.38703 21.2056 11.296 21.205" fill="#34A853"/>
<path d="M5.43903 13.037C5.21557 12.3814 5.10105 11.6937 5.10003 11.001C5.1042 10.3089 5.21622 9.62166 5.43203 8.96403L5.42603 8.82802L2.20003 6.32802L2.09503 6.37803C1.37282 7.8119 0.996643 9.39504 0.996643 11.0005C0.996643 12.606 1.37282 14.1892 2.09503 15.623L5.43603 13.037" fill="#FBBC05"/>
<path d="M11.192 4.77803C12.6537 4.75661 14.0659 5.30666 15.128 6.31103L18.001 3.47303C16.1666 1.72795 13.7237 0.767504 11.192 0.796028C9.29793 0.800454 7.44277 1.33416 5.83589 2.33692C4.229 3.33967 2.93435 4.77157 2.09802 6.47103L5.39002 9.05703C5.78513 7.82516 6.55798 6.74892 7.59901 5.98089C8.64004 5.21286 9.89642 4.79202 11.19 4.77803" fill="#EB4335"/>
</svg>
