<svg width="50" height="43" viewBox="0 0 50 43" fill="none" xmlns="http://www.w3.org/2000/svg">
<path d="M43.5799 26.6617H40.788V24.0376C40.788 21.6699 38.747 19.7524 36.2291 19.7524C33.7111 19.7524 31.6698 21.6699 31.6698 24.0376V26.6617H28.8782C26.3611 26.6617 24.3194 28.5799 24.3194 30.9464C24.3194 33.313 26.3603 35.2304 28.8782 35.2304H31.6698V37.8545C31.6698 40.2203 33.711 42.1385 36.2291 42.1385C38.7471 42.1385 40.788 40.2203 40.788 37.8545V35.2304H43.5799C46.0983 35.2304 48.1388 33.3122 48.1388 30.9464C48.1388 28.5803 46.0987 26.6617 43.5799 26.6617Z" fill="#7AA60B"/>
<path d="M23.0329 30.9418C23.0329 27.6916 25.767 25.0453 29.1294 25.0453H30.1988V24.0113C30.1988 20.7602 32.9337 18.1155 36.2965 18.1155C39.658 18.1155 42.3937 20.7602 42.3937 24.0113V25.0453H42.6791L45.5491 22.2703C50.817 17.1769 50.817 8.91686 45.5491 3.82077C40.2793 -1.27378 31.7364 -1.2734 26.4678 3.82077L25.0016 5.23964L23.5341 3.82077C18.2643 -1.2734 9.7214 -1.27378 4.4528 3.82077C-0.817404 8.91609 -0.817404 17.1761 4.45163 22.2703L25.0022 42.1385L30.1985 37.1123V36.8363H29.1291C25.7667 36.8367 23.0326 34.1924 23.0326 30.9413L23.0329 30.9418Z" fill="#7AA60B"/>
</svg>
