<svg width="198" height="100" viewBox="0 0 198 100" fill="none" xmlns="http://www.w3.org/2000/svg">
<path d="M102.669 28.9124C103.035 29.1251 103.401 29.3381 103.715 29.6043C103.663 29.1785 103.663 28.7528 103.663 28.3271C103.663 26.1989 104.081 24.2298 104.656 22.3676C102.512 20.6647 100.21 19.5474 98.5362 18.8556C97.9086 18.5895 97.2284 19.0152 97.1762 19.6536C96.9671 21.4627 96.7577 24.0171 97.124 26.7837C98.9547 27.2095 100.89 27.8479 102.668 28.9124L102.669 28.9124Z" fill="#D7B31B"/>
<path d="M120.141 29.6038C120.508 29.3377 120.822 29.125 121.24 28.912C123.019 27.8479 124.954 27.209 126.785 26.7837C127.151 24.0167 126.942 21.4627 126.733 19.6536C126.628 19.0152 126 18.5895 125.373 18.8556C123.699 19.5475 121.449 20.6647 119.252 22.3676C119.828 24.2302 120.246 26.1988 120.246 28.3271C120.194 28.7525 120.141 29.1782 120.141 29.604L120.141 29.6038Z" fill="#D7B31B"/>
<path d="M111.038 38.4395C111.405 39.1844 112.451 39.1844 112.817 38.4395C113.863 36.4174 115.275 34.076 117.263 32.0008C117.525 30.8302 117.734 29.5529 117.734 28.2762C117.734 22.7955 114.7 17.9533 112.765 15.3992C112.346 14.8669 111.562 14.8669 111.195 15.3992C109.207 18.0066 106.173 22.8485 106.173 28.2762C106.173 29.5533 106.33 30.8302 106.644 32.0008C108.58 34.076 110.044 36.4173 111.038 38.4395H111.038Z" fill="#D7B31B"/>
<path d="M92.1541 38.0138C92.8864 37.1623 93.8804 36.6835 94.9787 36.6835C96.0774 36.6835 97.1235 37.1623 97.8033 38.0138C98.4309 38.7587 99.4248 39.6632 100.628 39.6632C101.831 39.6632 102.773 38.7587 103.4 38.0138C104.08 37.1623 105.127 36.6835 106.225 36.6835C106.539 36.6835 106.852 36.7366 107.166 36.79C105.754 34.6618 103.818 32.5331 101.36 31.0433C96.7042 28.3296 91.0547 28.5424 87.8637 29.0212C87.2361 29.1277 86.8176 29.8192 87.0792 30.4046C87.9163 32.5328 89.4331 35.6191 91.8396 38.2265C91.9972 38.1734 92.1019 38.1204 92.1541 38.0138L92.1541 38.0138Z" fill="#D7B31B"/>
<path d="M135.938 29.0767C132.747 28.6509 127.098 28.3848 122.442 31.0988C119.931 32.5352 118.048 34.6635 116.636 36.7921C116.949 36.6856 117.263 36.6856 117.577 36.6856C118.676 36.6856 119.722 37.1644 120.402 38.0159C121.029 38.7608 122.023 39.6653 123.174 39.6653C124.377 39.6653 125.371 38.7608 125.947 38.0159C126.627 37.1644 127.673 36.6856 128.771 36.6856C129.87 36.6856 130.916 37.1644 131.596 38.0159C131.648 38.1224 131.753 38.2285 131.805 38.282C134.211 35.6746 135.728 32.5352 136.565 30.4069C136.932 29.8216 136.566 29.1298 135.938 29.0766L135.938 29.0767Z" fill="#D7B31B"/>
<path d="M134.474 42.1641C132.329 42.1641 130.759 40.7807 129.766 39.6101C129.295 39.0248 128.353 39.0248 127.883 39.6101C126.941 40.7807 125.319 42.1641 123.175 42.1641C121.03 42.1641 119.461 40.7807 118.467 39.6101C118.205 39.344 117.892 39.1313 117.526 39.1313C117.159 39.1313 116.793 39.2909 116.584 39.6101C115.643 40.7807 114.021 42.1641 111.877 42.1641C109.732 42.1641 108.162 40.7807 107.169 39.6101C106.698 39.0248 105.756 39.0248 105.286 39.6101C104.344 40.7807 102.722 42.1641 100.578 42.1641C98.433 42.1641 96.8636 40.7807 95.8701 39.6101C95.6085 39.344 95.2947 39.1844 94.9287 39.1313C94.5623 39.1313 94.1964 39.2909 93.9873 39.557C93.0459 40.7277 91.424 42.111 89.2795 42.111C88.5994 42.111 88.024 42.6964 88.024 43.3882C88.024 44.08 88.5994 44.6653 89.2795 44.6653C91.3196 44.6653 93.255 43.8139 94.9291 42.2175C96.6032 43.8139 98.5386 44.6653 100.579 44.6653C102.619 44.6653 104.554 43.8139 106.228 42.2175C107.902 43.8139 109.838 44.6653 111.878 44.6653C113.918 44.6653 115.853 43.8139 117.527 42.2175C119.201 43.8139 121.137 44.6653 123.177 44.6653C125.217 44.6653 127.152 43.8139 128.826 42.2175C130.5 43.8139 132.436 44.6653 134.476 44.6653C135.156 44.6653 135.731 44.08 135.731 43.3882C135.729 42.7494 135.154 42.1641 134.474 42.1641V42.1641Z" fill="#FAFBCE"/>
<path d="M69.5776 42.6C69.3642 42.7067 69.2576 42.5467 69.2576 42.12C69.2576 41.9067 69.4442 41.64 69.8176 41.32C70.9909 40.5733 72.0842 39.56 73.0976 38.28C74.1642 37 74.6976 35.6133 74.6976 34.12C74.6976 32.8933 74.2442 31.9333 73.3376 31.24C72.4309 30.5467 71.2842 30.04 69.8976 29.72C68.5642 29.3467 67.2042 29.1067 65.8176 29C64.4842 28.8933 63.3909 28.84 62.5376 28.84C57.8442 28.84 53.1776 29.3733 48.5376 30.44C43.9509 31.5067 39.3909 32.76 34.8576 34.2C30.3776 35.64 25.9509 36.9733 21.5776 38.2C17.2042 39.4267 12.8842 40.2267 8.61758 40.6C7.07091 40.7067 5.81758 40.3867 4.85758 39.64C3.89758 38.8933 3.20424 37.9067 2.77758 36.68C2.40424 35.4 2.21758 34.1467 2.21758 32.92C2.21758 31.9067 2.88424 30.84 4.21758 29.72C5.60424 28.6 7.31091 27.56 9.33758 26.6C11.4176 25.5867 13.5242 24.7333 15.6576 24.04C17.8442 23.2933 19.7376 22.8133 21.3376 22.6C21.7109 22.5467 22.0842 22.52 22.4576 22.52C22.8309 22.4667 23.1776 22.44 23.4976 22.44C24.0842 22.44 24.5909 22.4933 25.0176 22.6C25.4976 22.7067 25.7909 22.92 25.8976 23.24C23.2842 24.0933 20.9109 24.8933 18.7776 25.64C16.6976 26.3867 14.6442 27.16 12.6176 27.96C10.0042 28.9733 8.13758 29.88 7.01758 30.68C5.89758 31.48 5.33758 32.1467 5.33758 32.68C5.33758 33.3733 6.21758 33.8533 7.97758 34.12C9.73758 34.3867 11.8976 34.4667 14.4576 34.36C16.3242 34.2533 18.2709 34.04 20.2976 33.72C22.3776 33.3467 24.2976 32.9733 26.0576 32.6C27.8176 32.1733 29.1509 31.8533 30.0576 31.64C31.6576 31.2667 33.7642 30.7333 36.3776 30.04C39.0442 29.3467 41.9776 28.6267 45.1776 27.88C48.4309 27.1333 51.7109 26.52 55.0176 26.04C58.3242 25.5067 61.4176 25.24 64.2976 25.24C65.2042 25.24 66.0576 25.2667 66.8576 25.32C67.6576 25.3733 68.4042 25.4533 69.0976 25.56C70.0042 25.72 71.0709 25.96 72.2976 26.28C73.5242 26.5467 74.5642 27.08 75.4176 27.88C76.2709 28.6267 76.5909 29.8 76.3776 31.4C76.9642 32.5733 77.4176 33.4533 77.7376 34.04C78.0576 34.6267 78.2176 35.2133 78.2176 35.8C78.2176 35.96 78.2176 36.12 78.2176 36.28C78.2176 36.44 78.1909 36.6 78.1376 36.76C77.9242 38.04 77.2842 38.8933 76.2176 39.32C75.2042 39.7467 74.1109 40.2267 72.9376 40.76C72.4576 40.9733 71.9509 41.2933 71.4176 41.72C70.9376 42.1467 70.3242 42.44 69.5776 42.6ZM30.7776 79.96C29.8709 79.96 29.0709 79.5867 28.3776 78.84C27.6842 78.1467 27.1509 77.32 26.7776 76.36C26.4042 75.4 26.2176 74.52 26.2176 73.72C26.2176 71.6933 26.7776 69.32 27.8976 66.6C29.0709 63.88 30.5642 61.0533 32.3776 58.12C34.2442 55.1333 36.2176 52.2533 38.2976 49.48C40.4309 46.6533 42.4576 44.12 44.3776 41.88C46.3509 39.64 47.9776 37.9067 49.2576 36.68C48.9376 36.36 48.7776 35.9867 48.7776 35.56C48.7776 34.92 49.1242 34.28 49.8176 33.64C50.5642 32.9467 51.3642 32.3067 52.2176 31.72C53.0709 31.1333 53.7376 30.6533 54.2176 30.28C54.6976 30.28 55.3642 30.4133 56.2176 30.68C57.0709 30.8933 57.8176 31.2133 58.4576 31.64C59.1509 32.0667 59.4976 32.6 59.4976 33.24C59.4976 33.4 59.4709 33.56 59.4176 33.72C59.4176 33.88 59.3909 34.04 59.3376 34.2C59.1242 34.7867 58.5109 35.56 57.4976 36.52C56.4842 37.48 55.4176 38.4133 54.2976 39.32C53.2309 40.2267 52.4042 40.9733 51.8176 41.56C50.4309 42.9467 48.7776 44.68 46.8576 46.76C44.9376 48.84 42.9376 51.1067 40.8576 53.56C38.7776 55.96 36.8576 58.4667 35.0976 61.08C33.3376 63.64 31.8976 66.1467 30.7776 68.6C29.6576 71.0533 29.0976 73.32 29.0976 75.4C29.0976 76.4133 29.2576 77.2667 29.5776 77.96C29.8976 78.7067 30.6442 79.08 31.8176 79.08V79.72C31.4976 79.88 31.1509 79.96 30.7776 79.96ZM51.6407 76.04C50.1474 76.04 49.134 75.56 48.6007 74.6C48.1207 73.5867 47.9607 72.5733 48.1207 71.56C48.334 70.1733 48.7874 68.92 49.4807 67.8C50.2274 66.68 50.974 65.6133 51.7207 64.6C52.254 63.9067 52.6274 63.32 52.8407 62.84C53.1074 62.36 53.0274 62.0933 52.6007 62.04C52.334 62.2533 51.9074 62.4667 51.3207 62.68C50.734 62.8933 50.1474 63 49.5607 63C49.0807 63 48.6274 62.8933 48.2007 62.68C47.774 62.4667 47.4807 62.0933 47.3207 61.56C46.7874 62.4133 46.2807 63.2133 45.8007 63.96C45.3207 64.6533 44.8674 65.32 44.4407 65.96C43.6407 67.08 42.894 68.1467 42.2007 69.16C41.5074 70.12 40.6007 71.24 39.4807 72.52C39.1074 72.9467 38.7607 73.16 38.4407 73.16C38.1207 73.16 37.9607 72.9733 37.9607 72.6C37.9607 72.3867 38.0407 72.1733 38.2007 71.96C39.4274 70.4667 40.4407 69.1867 41.2407 68.12C42.0407 67 42.974 65.6933 44.0407 64.2C45.1074 62.6 46.0407 60.8133 46.8407 58.84C47.6407 56.8667 48.2807 55.1067 48.7607 53.56C49.2407 51.96 49.5074 51 49.5607 50.68C50.9474 51.2133 51.9074 51.8 52.4407 52.44C53.0274 53.08 53.3207 53.7733 53.3207 54.52C53.3207 55.5333 52.8407 56.5733 51.8807 57.64C50.974 58.7067 49.9074 59.6933 48.6807 60.6C49.1607 61.2933 49.7207 61.64 50.3607 61.64C51.054 61.64 51.7474 61.3467 52.4407 60.76C53.1874 60.1733 53.7474 59.6933 54.1207 59.32C54.974 58.2533 55.9074 57.72 56.9207 57.72C57.5074 57.72 58.014 57.9067 58.4407 58.28C58.9207 58.6 59.1607 59.0267 59.1607 59.56C59.1607 59.8267 59.0807 60.0933 58.9207 60.36C58.1207 61.4267 57.214 62.7333 56.2007 64.28C55.1874 65.8267 54.254 67.3733 53.4007 68.92C52.6007 70.4133 52.014 71.6933 51.6407 72.76C51.5874 72.9733 51.534 73.16 51.4807 73.32C51.4807 73.4267 51.4807 73.5333 51.4807 73.64C51.4807 74.0667 51.6674 74.28 52.0407 74.28C52.3074 74.28 52.6274 74.1733 53.0007 73.96C53.374 73.7467 53.6674 73.5333 53.8807 73.32C54.8407 72.4667 56.0407 71.1333 57.4807 69.32C58.9207 67.5067 60.254 65.7733 61.4807 64.12C62.2274 63.0533 62.734 62.52 63.0007 62.52C63.2674 62.52 63.2674 62.8667 63.0007 63.56C62.7874 64.2533 62.3874 65.0533 61.8007 65.96C61.0007 67.08 60.0674 68.44 59.0007 70.04C57.9874 71.5867 56.8407 72.9733 55.5607 74.2C54.334 75.4267 53.0274 76.04 51.6407 76.04ZM62.6663 75.88C61.813 75.88 61.093 75.5867 60.5063 75C59.973 74.4667 59.573 73.8267 59.3063 73.08C59.0397 72.3333 58.9063 71.6933 58.9063 71.16C58.9063 69.3467 59.4663 67.4267 60.5863 65.4C61.7063 63.3733 63.1463 61.48 64.9063 59.72C66.7197 57.96 68.613 56.52 70.5863 55.4C72.5597 54.28 74.3997 53.72 76.1063 53.72C77.333 53.72 78.5597 54.5467 79.7863 56.2C79.893 56.36 79.9997 56.5733 80.1063 56.84C80.2663 57.1067 80.3463 57.3733 80.3463 57.64C80.3463 58.12 80.1597 58.44 79.7863 58.6C79.733 58.6533 79.5997 58.4933 79.3863 58.12C79.2263 57.6933 78.6663 57.48 77.7063 57.48C76.7997 57.48 75.5997 57.9067 74.1063 58.76C72.613 59.6133 71.0397 60.7333 69.3863 62.12C67.7863 63.5067 66.3197 65 64.9863 66.6C63.7063 68.2 62.773 69.7467 62.1863 71.24C62.0797 71.6133 61.973 71.9867 61.8663 72.36C61.7597 72.7333 61.7063 73.0533 61.7063 73.32C61.7063 73.8 61.8663 74.04 62.1863 74.04C62.5063 74.04 62.933 73.8533 63.4663 73.48C64.5863 72.68 65.7597 71.6933 66.9863 70.52C68.213 69.2933 69.3863 68.04 70.5063 66.76C71.6797 65.4267 72.6663 64.1733 73.4663 63C74.2663 61.8267 74.773 60.8667 74.9863 60.12C75.093 59.6933 75.7063 59.48 76.8263 59.48C77.733 59.48 78.5063 59.6933 79.1463 60.12C79.7863 60.4933 79.9463 60.92 79.6263 61.4C78.6663 62.84 77.733 64.36 76.8263 65.96C75.9197 67.5067 75.253 69.08 74.8263 70.68C74.773 70.8933 74.7197 71.08 74.6663 71.24C74.6663 71.4 74.6663 71.5333 74.6663 71.64C74.6663 72.1733 74.8797 72.44 75.3063 72.44C75.7863 72.44 76.3197 72.2 76.9063 71.72C78.0263 70.6533 79.1997 69.2933 80.4263 67.64C81.7063 65.9333 83.013 64.2533 84.3463 62.6C84.8263 62.0667 85.1463 61.8 85.3063 61.8C85.4663 61.8 85.5463 61.9333 85.5463 62.2C85.5463 62.4133 85.493 62.6267 85.3863 62.84C85.173 63.3733 84.8797 63.9333 84.5063 64.52C84.133 65.0533 83.7863 65.5333 83.4663 65.96C83.1997 66.3333 82.7463 67 82.1063 67.96C81.4663 68.92 80.7197 69.9333 79.8663 71C79.013 72.0667 78.133 73 77.2263 73.8C76.3197 74.5467 75.4663 74.92 74.6663 74.92C73.5463 74.92 72.6397 74.5733 71.9463 73.88C71.3063 73.1333 70.9863 72.4667 70.9863 71.88C70.9863 71.1333 71.013 70.6267 71.0663 70.36C71.173 69.8267 71.333 69.1867 71.5463 68.44C71.813 67.6933 72.053 66.9733 72.2663 66.28C71.8397 66.8667 71.1997 67.6933 70.3463 68.76C69.493 69.8267 68.5597 70.92 67.5463 72.04C66.5863 73.1067 65.653 74.0133 64.7463 74.76C63.8397 75.5067 63.1463 75.88 62.6663 75.88ZM95.2688 75.96C94.0955 75.96 93.1088 75.6133 92.3088 74.92C91.5622 74.2267 91.1888 73.1333 91.1888 71.64C91.1888 70.36 91.4022 69.08 91.8288 67.8C92.2555 66.4667 92.7088 65.2667 93.1888 64.2C93.7222 63.1333 94.1488 62.3333 94.4688 61.8C95.6422 59.6133 96.0155 58.52 95.5888 58.52C95.2155 58.52 94.3622 59.2133 93.0288 60.6C91.7488 61.9333 90.1755 63.8267 88.3088 66.28C86.6555 68.4133 85.5622 70.0933 85.0288 71.32C84.4955 72.4933 84.1488 73.4533 83.9888 74.2C83.9355 74.68 83.5355 74.92 82.7888 74.92C82.2022 74.92 81.6155 74.68 81.0288 74.2C80.4422 73.6667 80.1488 72.9467 80.1488 72.04C80.1488 71.7733 80.3888 71.08 80.8688 69.96C81.3488 68.84 81.9088 67.5333 82.5488 66.04C83.2422 64.5467 83.9088 63.1333 84.5488 61.8C85.1888 60.4667 85.6688 59.4533 85.9888 58.76C85.3488 58.3867 85.2155 57.9067 85.5888 57.32L87.9088 53.08C88.0688 52.9733 88.5488 52.7867 89.3488 52.52C90.2022 52.2 90.9755 52.04 91.6688 52.04C92.6288 52.04 93.1088 52.36 93.1088 53C93.1088 53.32 92.8955 53.8533 92.4688 54.6C92.3088 54.8667 91.9355 55.5333 91.3488 56.6C90.7622 57.6133 90.0955 58.8133 89.3488 60.2C88.6555 61.5333 87.9888 62.8133 87.3488 64.04C86.7622 65.2133 86.3355 66.0933 86.0688 66.68C86.0688 66.7333 86.0422 66.7867 85.9888 66.84C85.9888 66.84 85.9888 66.8667 85.9888 66.92C85.9888 67.1333 86.1755 66.9467 86.5488 66.36C86.9755 65.7733 87.2955 65.3467 87.5088 65.08C89.1088 62.8933 90.7622 60.8667 92.4688 59C94.2288 57.1333 96.0688 55.2933 97.9888 53.48C98.3622 53.6933 98.8955 53.8267 99.5888 53.88C100.335 53.9333 101.029 54.0667 101.669 54.28C102.309 54.44 102.629 54.8667 102.629 55.56C102.629 56.6267 102.175 57.8267 101.269 59.16C100.415 60.4933 99.4555 61.8533 98.3888 63.24C97.3755 64.5733 96.4155 66.1733 95.5088 68.04C94.6022 69.9067 94.1488 71.48 94.1488 72.76C94.1488 73.8267 94.4955 74.36 95.1888 74.36C95.5088 74.36 95.9355 74.2 96.4688 73.88C96.8955 73.6133 97.7222 72.9467 98.9488 71.88C100.175 70.76 101.482 69.2133 102.869 67.24C103.295 66.6 103.722 66.28 104.149 66.28C104.362 66.28 104.495 66.3867 104.549 66.6C104.602 66.76 104.575 66.9733 104.469 67.24C100.735 73.0533 97.6688 75.96 95.2688 75.96ZM106.978 98.6C106.552 98.6 106.152 98.5467 105.778 98.44C105.405 98.3333 105.085 98.12 104.818 97.8C104.605 97.5867 104.498 97.16 104.498 96.52C104.498 95.4 104.818 93.8 105.458 91.72C106.098 89.6933 106.925 87.4267 107.938 84.92C109.005 82.4133 110.125 79.88 111.298 77.32C112.472 74.8133 113.565 72.52 114.578 70.44C115.645 68.3067 116.498 66.6533 117.138 65.48C116.712 66.0667 116.018 66.9467 115.058 68.12C114.098 69.24 113.032 70.4133 111.858 71.64C110.685 72.8133 109.592 73.8267 108.578 74.68C107.565 75.48 106.818 75.88 106.338 75.88C105.485 75.88 104.765 75.5867 104.178 75C103.645 74.4667 103.245 73.8267 102.978 73.08C102.712 72.3333 102.578 71.6933 102.578 71.16C102.578 69.3467 103.138 67.4267 104.258 65.4C105.378 63.3733 106.818 61.48 108.578 59.72C110.392 57.96 112.285 56.52 114.258 55.4C116.232 54.28 118.072 53.72 119.778 53.72C121.005 53.72 122.232 54.5467 123.458 56.2C123.565 56.36 123.672 56.5733 123.778 56.84C123.938 57.1067 124.018 57.3733 124.018 57.64C124.018 58.12 123.832 58.44 123.458 58.6C123.405 58.6533 123.272 58.4933 123.058 58.12C122.898 57.6933 122.338 57.48 121.378 57.48C120.472 57.48 119.272 57.9067 117.778 58.76C116.285 59.6133 114.712 60.7333 113.058 62.12C111.458 63.5067 109.992 65 108.658 66.6C107.378 68.2 106.445 69.7467 105.858 71.24C105.752 71.6133 105.645 71.9867 105.538 72.36C105.432 72.7333 105.378 73.0533 105.378 73.32C105.378 73.8 105.538 74.04 105.858 74.04C106.178 74.04 106.605 73.8533 107.138 73.48C108.258 72.68 109.432 71.6933 110.658 70.52C111.885 69.2933 113.058 68.04 114.178 66.76C115.352 65.4267 116.338 64.1733 117.138 63C117.938 61.8267 118.445 60.8667 118.658 60.12C118.818 59.8533 119.005 59.6933 119.218 59.64C119.432 59.5333 119.858 59.48 120.498 59.48C120.872 59.48 121.405 59.56 122.098 59.72C122.845 59.8267 123.485 60.0133 124.018 60.28C124.552 60.5467 124.738 60.84 124.578 61.16C122.498 63.6667 120.552 66.5733 118.738 69.88C116.925 73.1333 115.272 76.4933 113.778 79.96C112.285 83.48 110.952 86.8667 109.778 90.12C109.298 91.6133 109.058 92.84 109.058 93.8C109.058 94.6533 109.298 95.08 109.778 95.08C110.098 95.08 110.472 94.76 110.898 94.12C111.325 93.48 111.565 92.6 111.618 91.48C111.725 90.4133 112.098 88.92 112.738 87C113.378 85.08 114.178 83.0267 115.138 80.84C116.152 78.7067 117.165 76.8133 118.178 75.16C119.352 73.2933 120.552 71.5867 121.778 70.04C123.005 68.4933 124.045 67.2667 124.898 66.36C125.218 66.04 125.458 65.88 125.618 65.88C125.725 65.88 125.778 65.9867 125.778 66.2C125.778 66.7867 125.538 67.4533 125.058 68.2C124.418 69.1067 123.618 70.2 122.658 71.48C121.698 72.76 120.738 74.1733 119.778 75.72C117.965 78.6 116.685 81.1067 115.938 83.24C115.245 85.3733 114.818 87.24 114.658 88.84C114.498 90.44 114.338 91.9333 114.178 93.32C113.965 94.9733 113.405 96.1467 112.498 96.84C111.592 97.5867 110.872 98.1733 110.338 98.6C110.232 98.4933 110.072 98.44 109.858 98.44C109.698 98.44 109.512 98.44 109.298 98.44C108.925 98.44 108.552 98.4667 108.178 98.52C107.805 98.5733 107.405 98.6 106.978 98.6ZM128.228 75.24C127.108 75.24 126.175 75 125.428 74.52C124.735 74.04 124.388 73.3733 124.388 72.52C124.388 71.2933 124.762 69.8533 125.508 68.2C126.255 66.4933 126.948 64.9733 127.588 63.64C127.535 63.48 127.455 63.32 127.348 63.16C127.295 62.9467 127.375 62.7067 127.588 62.44C128.922 60.4667 130.202 58.76 131.428 57.32C132.655 55.8267 133.535 55.08 134.068 55.08C134.548 55.08 135.162 55.3467 135.908 55.88C136.655 56.36 137.268 56.84 137.748 57.32C136.842 58.44 135.828 59.72 134.708 61.16C133.642 62.5467 132.655 63.9867 131.748 65.48C130.842 66.92 130.148 68.28 129.668 69.56C129.402 70.4667 129.268 71.0267 129.268 71.24C129.268 71.6133 129.375 71.8 129.588 71.8C129.962 71.8 130.575 71.3733 131.428 70.52C132.655 69.2933 133.988 67.7467 135.428 65.88C136.868 63.96 138.255 62.0667 139.588 60.2C140.922 58.3333 142.015 56.8933 142.868 55.88C143.508 55.08 144.175 54.68 144.868 54.68C145.455 54.68 146.015 54.8933 146.548 55.32C147.135 55.7467 147.695 56.28 148.228 56.92C147.482 57.88 146.548 59.1867 145.428 60.84C144.362 62.44 143.375 64.0933 142.468 65.8C141.562 67.5067 140.975 69 140.708 70.28C140.655 70.4933 140.602 70.7333 140.548 71C140.548 71.2667 140.548 71.5067 140.548 71.72C140.548 72.52 140.762 72.92 141.188 72.92C141.562 72.92 142.068 72.6267 142.708 72.04C143.508 71.2933 144.335 70.3333 145.188 69.16C146.042 67.9867 146.975 66.76 147.988 65.48C148.415 65 148.788 64.5467 149.108 64.12C149.482 63.64 149.855 63.16 150.228 62.68C151.028 61.6667 151.535 61.16 151.748 61.16C151.908 61.16 151.855 61.4533 151.588 62.04C151.375 62.6267 151.055 63.2933 150.628 64.04C150.202 64.7867 149.775 65.4533 149.348 66.04C148.868 66.7867 148.335 67.6133 147.748 68.52C147.162 69.3733 146.522 70.2 145.828 71C145.028 71.96 144.255 72.84 143.508 73.64C142.762 74.44 141.908 74.84 140.948 74.84C139.402 74.84 138.228 74.4667 137.428 73.72C136.682 72.9733 136.308 72.12 136.308 71.16C136.308 70.2533 136.548 69.16 137.028 67.88C137.562 66.6 138.015 65.48 138.388 64.52C138.015 64.84 137.402 65.5867 136.548 66.76C135.748 67.88 134.815 69.1067 133.748 70.44C132.735 71.72 131.722 72.84 130.708 73.8C129.695 74.76 128.868 75.24 128.228 75.24ZM164.481 52.68C163.467 52.4667 162.534 51.9333 161.681 51.08C160.881 50.2267 160.587 49.2667 160.801 48.2C160.907 47.6133 161.121 47.24 161.441 47.08C161.761 46.92 162.347 46.7867 163.201 46.68C164.161 46.5733 164.801 46.4933 165.121 46.44C165.494 46.3867 165.841 46.3333 166.161 46.28C166.534 46.1733 167.201 46.04 168.161 45.88C168.374 45.8267 168.641 45.6933 168.961 45.48C169.281 45.2667 169.387 45.4 169.281 45.88C169.281 46.0933 169.094 46.36 168.721 46.68C168.401 46.9467 168.107 47.1333 167.841 47.24C167.254 47.5067 166.587 47.8267 165.841 48.2C165.147 48.5733 164.614 49.08 164.241 49.72C164.081 50.04 164.001 50.3333 164.001 50.6C164.001 51.3467 164.267 51.7733 164.801 51.88C164.907 51.88 164.961 51.96 164.961 52.12C164.961 52.2267 164.907 52.36 164.801 52.52C164.694 52.68 164.587 52.7333 164.481 52.68ZM154.561 76.12C152.587 76.12 151.201 75.5067 150.401 74.28C149.654 73.0533 149.281 71.6133 149.281 69.96C149.281 67.4533 149.734 65.3733 150.641 63.72C150.107 63.4533 149.974 63.1333 150.241 62.76C150.881 61.9067 151.627 60.8933 152.481 59.72C153.334 58.5467 154.161 57.48 154.961 56.52C155.814 55.56 156.507 55 157.041 54.84C157.201 54.7867 157.414 54.76 157.681 54.76C158.534 54.76 159.307 55.0533 160.001 55.64C160.747 56.2267 161.227 56.6 161.441 56.76C160.161 58.04 158.881 59.5067 157.601 61.16C156.374 62.8133 155.334 64.5733 154.481 66.44C153.627 68.3067 153.201 70.2 153.201 72.12C153.201 72.8133 153.334 73.32 153.601 73.64C153.867 73.9067 154.187 74.04 154.561 74.04C155.361 74.04 156.187 73.6667 157.041 72.92C158.001 72.0667 159.201 70.8133 160.641 69.16C162.134 67.4533 163.494 65.7733 164.721 64.12C165.467 63.0533 165.974 62.52 166.241 62.52C166.507 62.52 166.507 62.8667 166.241 63.56C166.027 64.2533 165.627 65.0533 165.041 65.96C164.294 66.9733 163.387 68.28 162.321 69.88C161.254 71.4267 160.107 72.8133 158.881 74.04C158.187 74.7333 157.441 75.24 156.641 75.56C155.894 75.9333 155.201 76.12 154.561 76.12ZM170.108 76.36C168.188 76.36 166.801 75.8 165.948 74.68C165.148 73.56 164.748 72.0667 164.748 70.2C164.748 67.8533 165.254 65.1067 166.268 61.96C167.334 58.8133 168.721 55.5067 170.428 52.04C172.134 48.5733 174.001 45.2133 176.028 41.96C178.108 38.6533 180.161 35.6667 182.188 33C184.268 30.3333 186.188 28.2533 187.948 26.76C189.761 25.2133 191.201 24.4933 192.268 24.6C193.228 24.7067 193.921 25.0267 194.348 25.56C194.828 26.04 195.254 26.5733 195.628 27.16C196.001 27.6933 196.508 28.12 197.148 28.44C197.148 29.7733 196.508 31.4 195.228 33.32C194.001 35.24 192.481 37.2933 190.668 39.48C189.761 40.5467 188.561 41.96 187.068 43.72C185.628 45.48 184.054 47.3733 182.348 49.4C180.641 51.4267 179.014 53.4267 177.468 55.4C175.921 57.3733 174.588 59.1333 173.468 60.68C172.401 62.1733 171.761 63.2667 171.548 63.96C171.494 64.3333 171.361 64.52 171.148 64.52C170.828 64.52 170.721 64.2533 170.828 63.72C170.934 63.0267 171.494 61.88 172.508 60.28C173.574 58.6267 174.854 56.76 176.348 54.68C177.894 52.6 179.468 50.5467 181.068 48.52C182.668 46.44 184.081 44.6533 185.308 43.16C186.534 41.6133 187.334 40.6 187.708 40.12C188.508 39.16 189.281 38.2267 190.028 37.32C190.774 36.36 191.441 35.4533 192.028 34.6C193.414 32.68 194.108 31.2933 194.108 30.44C194.108 29.96 193.734 29.96 192.988 30.44C192.294 30.8667 191.254 31.9067 189.868 33.56C188.534 35.1067 186.961 37.0533 185.148 39.4C183.334 41.6933 181.468 44.2 179.548 46.92C177.628 49.64 175.841 52.44 174.188 55.32C172.534 58.2 171.201 61 170.188 63.72C169.174 66.3867 168.668 68.8133 168.668 71C168.668 72.3333 168.881 73.2667 169.308 73.8C169.734 74.3333 170.268 74.6 170.908 74.6C172.294 74.6 173.814 73.6933 175.468 71.88C176.534 70.8133 177.628 69.48 178.748 67.88C179.921 66.28 180.828 64.92 181.468 63.8C182.694 61.72 183.494 60.68 183.868 60.68C183.974 60.68 184.028 60.76 184.028 60.92C184.028 60.9733 184.001 61.0533 183.948 61.16C183.948 61.2667 183.921 61.4 183.868 61.56C183.334 63.48 182.401 65.4267 181.068 67.4C179.734 69.3733 178.348 71.1867 176.908 72.84C175.841 74.12 174.694 75.0267 173.468 75.56C172.294 76.0933 171.174 76.36 170.108 76.36Z" fill="#3BCD84"/>
</svg>
