<svg width="390" height="336" viewBox="0 0 390 336" fill="none" xmlns="http://www.w3.org/2000/svg">
<g clip-path="url(#clip0_83_76)">
<path d="M208.11 282.064C208.11 282.064 202.561 272.78 195.437 278.27C188.312 283.759 175.118 293.021 175.118 293.021C175.118 293.021 172.416 298.945 179.41 296.72C186.405 294.495 209.237 290.914 209.237 290.914L208.11 282.064Z" fill="#FEB8B8"/>
<path d="M363.189 223.103C361.42 208.603 352.608 194.315 339.047 189.596C344.395 204.522 344.394 220.895 339.043 235.82C336.96 241.568 334.055 247.74 336.015 253.533C337.235 257.138 340.218 259.896 343.553 261.62C346.888 263.345 350.59 264.166 354.245 264.972L354.964 265.579C360.766 252.218 364.957 237.604 363.189 223.103Z" fill="#F0F0F0"/>
<path d="M338.912 189.87C346.81 198.894 351.718 210.226 352.94 222.257C353.249 224.842 353.155 227.46 352.664 230.016C352.106 232.489 350.909 234.766 349.198 236.608C347.635 238.359 345.838 239.965 344.72 242.072C344.164 243.159 343.839 244.354 343.767 245.579C343.695 246.803 343.878 248.029 344.303 249.176C345.29 252.063 347.236 254.416 349.216 256.65C351.416 259.13 353.739 261.67 354.673 264.958C354.787 265.357 355.386 265.154 355.273 264.756C353.647 259.036 348.201 255.787 345.605 250.635C344.393 248.23 343.884 245.439 345.02 242.902C346.014 240.682 347.865 239.025 349.462 237.266C351.158 235.494 352.403 233.325 353.087 230.949C353.704 228.427 353.896 225.817 353.655 223.229C353.202 217.395 351.853 211.67 349.657 206.264C347.183 200.079 343.691 194.371 339.33 189.387C339.06 189.079 338.644 189.564 338.912 189.87Z" fill="white"/>
<path d="M352.77 218.359C354.722 217.876 356.441 216.701 357.622 215.045C358.802 213.388 359.367 211.357 359.215 209.315C359.183 208.902 358.552 208.934 358.584 209.347C358.729 211.249 358.203 213.14 357.101 214.681C355.998 216.221 354.392 217.309 352.572 217.748C352.177 217.844 352.377 218.455 352.77 218.359Z" fill="white"/>
<path d="M350.104 235.827C346.58 233.681 343.978 230.259 342.817 226.243C342.703 225.845 342.103 226.048 342.218 226.445C343.433 230.621 346.148 234.177 349.82 236.402C350.171 236.614 350.453 236.038 350.104 235.827Z" fill="white"/>
<path d="M346.597 200.689C345.88 201.036 345.09 201.197 344.298 201.156C343.505 201.115 342.735 200.873 342.056 200.454C341.709 200.238 341.427 200.814 341.772 201.029C342.524 201.489 343.375 201.754 344.251 201.802C345.126 201.849 346 201.677 346.795 201.3C346.873 201.271 346.937 201.213 346.975 201.138C347.012 201.062 347.02 200.975 346.996 200.894C346.97 200.813 346.913 200.746 346.838 200.708C346.763 200.669 346.677 200.663 346.597 200.689Z" fill="white"/>
<path d="M297.71 215.496C297.923 215.638 298.136 215.779 298.35 215.926C301.206 217.841 303.905 219.989 306.419 222.35C306.617 222.53 306.814 222.715 307.006 222.899C313.005 228.653 317.905 235.493 321.455 243.07C322.866 246.087 324.049 249.209 324.995 252.408C326.301 256.827 327.372 261.725 329.957 265.339C330.223 265.719 330.511 266.083 330.821 266.426H354.182C354.235 266.399 354.289 266.377 354.342 266.35L355.275 266.394C355.237 266.225 355.195 266.051 355.158 265.883C355.136 265.785 355.11 265.687 355.088 265.589C355.072 265.524 355.056 265.459 355.046 265.399C355.04 265.377 355.035 265.356 355.03 265.339C355.019 265.279 355.003 265.225 354.992 265.171C354.758 264.198 354.516 263.225 354.267 262.252C354.267 262.246 354.267 262.246 354.262 262.241C352.349 254.833 349.812 247.522 346.267 240.836C346.16 240.635 346.054 240.429 345.937 240.228C344.323 237.223 342.47 234.358 340.399 231.661C339.259 230.188 338.048 228.775 336.769 227.427C333.457 223.95 329.629 221.027 325.426 218.763C317.048 214.252 307.347 212.523 298.392 215.279C298.163 215.35 297.939 215.42 297.71 215.496Z" fill="#F0F0F0"/>
<path d="M297.763 215.799C309.396 218.155 320.005 224.189 328.084 233.044C329.857 234.919 331.328 237.067 332.444 239.409C333.46 241.727 333.848 244.279 333.569 246.801C333.355 249.158 332.868 251.544 333.22 253.913C333.418 255.123 333.864 256.276 334.529 257.298C335.195 258.32 336.064 259.186 337.081 259.841C339.574 261.54 342.516 262.225 345.417 262.792C348.637 263.422 351.991 264.024 354.679 266.075C355.004 266.324 355.364 265.794 355.038 265.546C350.363 261.977 344.096 262.726 338.981 260.206C336.594 259.031 334.54 257.115 333.949 254.391C333.432 252.009 333.932 249.549 334.169 247.164C334.476 244.708 334.19 242.212 333.333 239.895C332.337 237.502 330.95 235.3 329.229 233.382C325.423 229.002 320.966 225.259 316.02 222.291C310.394 218.871 304.235 216.458 297.811 215.156C297.414 215.076 297.368 215.719 297.763 215.799Z" fill="white"/>
<path d="M325.647 230.037C326.92 228.453 327.6 226.459 327.564 224.412C327.529 222.364 326.78 220.396 325.453 218.859C325.184 218.549 324.699 218.962 324.969 219.272C326.207 220.701 326.904 222.534 326.933 224.441C326.962 226.348 326.322 228.202 325.128 229.67C324.869 229.989 325.39 230.354 325.647 230.037Z" fill="white"/>
<path d="M333.832 245.621C329.75 246.071 325.652 244.936 322.355 242.443C322.029 242.195 321.67 242.725 321.996 242.972C325.432 245.56 329.698 246.733 333.944 246.254C334.349 246.208 334.234 245.575 333.832 245.621Z" fill="white"/>
<path d="M310.286 219.718C309.919 220.436 309.383 221.049 308.725 221.503C308.068 221.957 307.311 222.237 306.521 222.319C306.116 222.359 306.232 222.993 306.634 222.952C307.506 222.858 308.342 222.547 309.069 222.047C309.796 221.548 310.392 220.874 310.805 220.085C310.85 220.014 310.867 219.928 310.852 219.845C310.837 219.761 310.792 219.687 310.725 219.637C310.657 219.589 310.572 219.57 310.489 219.585C310.407 219.601 310.334 219.648 310.286 219.718Z" fill="white"/>
<path d="M174.775 319.21C174.09 313.59 170.674 308.053 165.418 306.224C167.491 312.009 167.491 318.354 165.417 324.138C164.61 326.366 163.484 328.758 164.244 331.003C164.788 332.391 165.833 333.513 167.165 334.137C168.486 334.749 169.879 335.185 171.308 335.436L171.587 335.671C173.836 330.493 175.46 324.83 174.775 319.21Z" fill="#F0F0F0"/>
<path d="M165.366 306.33C168.427 309.828 170.329 314.219 170.803 318.882C170.922 319.884 170.886 320.898 170.696 321.889C170.48 322.848 170.016 323.73 169.352 324.444C168.692 325.075 168.109 325.786 167.617 326.561C167.402 326.983 167.276 327.446 167.248 327.92C167.22 328.395 167.291 328.87 167.456 329.315C167.894 330.4 168.541 331.385 169.36 332.211C170.212 333.172 171.112 334.157 171.475 335.431C171.519 335.585 171.751 335.507 171.707 335.353C171.077 333.136 168.966 331.876 167.96 329.88C167.701 329.431 167.545 328.928 167.506 328.408C167.467 327.889 167.545 327.367 167.734 326.883C168.19 326.066 168.771 325.329 169.455 324.699C170.112 324.012 170.595 323.171 170.86 322.251C171.099 321.273 171.174 320.262 171.08 319.259C170.905 316.998 170.382 314.779 169.53 312.684C168.572 310.287 167.218 308.075 165.528 306.143C165.424 306.024 165.262 306.212 165.366 306.33Z" fill="white"/>
<path d="M170.737 317.371C171.493 317.184 172.16 316.729 172.617 316.087C173.075 315.445 173.294 314.658 173.235 313.866C173.222 313.706 172.978 313.719 172.99 313.879C173.046 314.616 172.843 315.349 172.415 315.946C171.988 316.543 171.366 316.964 170.66 317.134C170.507 317.172 170.585 317.408 170.737 317.371Z" fill="white"/>
<path d="M169.704 324.141C168.338 323.309 167.33 321.983 166.88 320.427C166.835 320.273 166.603 320.351 166.647 320.505C167.118 322.124 168.17 323.502 169.594 324.364C169.73 324.446 169.839 324.223 169.704 324.141Z" fill="white"/>
<path d="M168.345 310.523C168.067 310.658 167.761 310.72 167.453 310.704C167.146 310.688 166.848 310.595 166.585 310.432C166.45 310.348 166.341 310.572 166.475 310.655C166.766 310.833 167.096 310.936 167.435 310.955C167.775 310.973 168.113 310.906 168.422 310.76C168.452 310.749 168.477 310.726 168.491 310.697C168.505 310.668 168.508 310.634 168.499 310.603C168.489 310.571 168.467 310.545 168.438 310.531C168.409 310.516 168.376 310.513 168.345 310.523Z" fill="white"/>
<path d="M149.398 316.262C149.481 316.317 149.564 316.371 149.646 316.428C150.753 317.17 151.799 318.003 152.774 318.918C152.85 318.988 152.927 319.059 153.001 319.131C155.326 321.361 157.225 324.011 158.601 326.948C159.148 328.117 159.606 329.327 159.973 330.567C160.479 332.28 160.894 334.178 161.896 335.579C161.999 335.726 162.11 335.867 162.23 336H171.284C171.305 335.989 171.326 335.981 171.346 335.97L171.708 335.987C171.693 335.922 171.677 335.855 171.662 335.789C171.654 335.751 171.644 335.713 171.635 335.675C171.629 335.65 171.623 335.625 171.619 335.602C171.617 335.593 171.615 335.585 171.613 335.579C171.609 335.555 171.602 335.534 171.598 335.513C171.507 335.136 171.414 334.759 171.317 334.382L171.315 334.378C170.608 331.498 169.568 328.713 168.217 326.082C168.175 326.004 168.134 325.924 168.089 325.846C167.463 324.682 166.745 323.572 165.942 322.527C165.501 321.956 165.031 321.408 164.536 320.886C163.252 319.538 161.769 318.405 160.14 317.528C156.893 315.779 153.133 315.11 149.663 316.178C149.574 316.205 149.487 316.232 149.398 316.262Z" fill="#F0F0F0"/>
<path d="M149.419 316.379C153.927 317.292 158.039 319.631 161.17 323.063C161.857 323.789 162.427 324.622 162.86 325.529C163.253 326.427 163.404 327.417 163.296 328.394C163.141 329.304 163.096 330.229 163.16 331.15C163.237 331.619 163.41 332.066 163.668 332.462C163.926 332.858 164.263 333.194 164.657 333.448C165.648 334.046 166.746 334.435 167.887 334.591C169.135 334.835 170.435 335.069 171.477 335.864C171.603 335.96 171.742 335.755 171.616 335.659C169.804 334.275 167.376 334.566 165.393 333.589C164.921 333.39 164.5 333.084 164.162 332.693C163.824 332.302 163.578 331.838 163.443 331.336C163.325 330.403 163.354 329.458 163.528 328.535C163.647 327.583 163.536 326.616 163.204 325.717C162.818 324.79 162.28 323.937 161.614 323.194C160.139 321.496 158.411 320.045 156.494 318.895C154.314 317.57 151.927 316.635 149.438 316.13C149.283 316.099 149.266 316.348 149.419 316.379Z" fill="white"/>
<path d="M160.226 321.897C160.719 321.283 160.982 320.511 160.968 319.717C160.955 318.923 160.665 318.161 160.15 317.565C160.046 317.445 159.858 317.605 159.962 317.725C160.442 318.279 160.712 318.989 160.724 319.728C160.735 320.467 160.487 321.186 160.024 321.755C159.924 321.879 160.126 322.02 160.226 321.897Z" fill="white"/>
<path d="M163.397 327.937C161.816 328.111 160.228 327.672 158.95 326.705C158.823 326.609 158.684 326.815 158.81 326.91C160.142 327.913 161.796 328.368 163.441 328.182C163.598 328.165 163.553 327.919 163.397 327.937Z" fill="white"/>
<path d="M154.272 317.898C154.13 318.176 153.922 318.414 153.667 318.59C153.413 318.766 153.119 318.874 152.813 318.906C152.656 318.922 152.701 319.167 152.857 319.152C153.195 319.115 153.519 318.995 153.801 318.801C154.082 318.607 154.313 318.346 154.473 318.04C154.491 318.013 154.497 317.979 154.492 317.947C154.486 317.915 154.468 317.886 154.442 317.867C154.416 317.848 154.383 317.841 154.351 317.847C154.319 317.853 154.291 317.871 154.272 317.898Z" fill="white"/>
<path d="M19.2204 199.837C21.9385 177.549 35.4838 155.588 56.3281 148.335C48.1077 171.276 48.1094 196.442 56.3331 219.382C59.536 228.217 64.0006 237.704 60.9878 246.608C59.1133 252.149 54.5275 256.388 49.4015 259.039C44.2752 261.689 38.5861 262.953 32.9682 264.191L31.8625 265.123C22.9441 244.587 16.5024 222.125 19.2204 199.837Z" fill="#F0F0F0"/>
<path d="M56.5349 148.756C44.3962 162.626 36.8516 180.044 34.9728 198.535C34.594 202.5 34.5479 206.554 35.3977 210.462C36.2546 214.264 38.0943 217.762 40.7257 220.594C43.1271 223.285 45.8891 225.753 47.6074 228.993C49.4185 232.407 49.4881 236.286 48.2482 239.912C46.7311 244.35 43.7411 247.966 40.6966 251.399C37.3163 255.211 33.7459 259.116 32.309 264.17C32.1349 264.782 31.2134 264.471 31.3873 263.859C33.8872 255.067 42.2568 250.073 46.2482 242.154C48.1107 238.458 48.8925 234.168 47.1464 230.268C45.6196 226.857 42.7735 224.309 40.3189 221.606C37.7415 218.768 35.7654 215.654 34.7473 211.896C33.7059 208.052 33.5965 203.987 33.8744 200.031C34.57 191.063 36.6438 182.264 40.02 173.953C43.8217 164.447 49.1899 155.674 55.8925 148.014C56.3076 147.54 56.9472 148.285 56.5349 148.756Z" fill="white"/>
<path d="M35.2341 192.545C32.2346 191.802 29.5916 189.997 27.7771 187.45C25.9626 184.904 25.0948 181.783 25.3287 178.644C25.3781 178.009 26.348 178.058 26.2984 178.693C26.0754 181.616 26.884 184.523 28.5784 186.891C30.2728 189.258 32.7413 190.93 35.5385 191.605C36.1461 191.752 35.8383 192.691 35.2341 192.545Z" fill="white"/>
<path d="M39.3318 219.394C44.7493 216.095 48.7486 210.835 50.5322 204.663C50.7084 204.051 51.6299 204.362 51.4539 204.973C49.5862 211.393 45.4134 216.858 39.7684 220.278C39.2301 220.603 38.7965 219.717 39.3318 219.394Z" fill="white"/>
<path d="M44.7223 165.385C45.8241 165.919 47.0388 166.165 48.2572 166.102C49.4756 166.039 50.6595 165.668 51.7027 165.023C52.2366 164.691 52.6698 165.577 52.1393 165.908C50.9835 166.615 49.6754 167.022 48.3295 167.095C46.9835 167.168 45.6405 166.903 44.4179 166.325C44.2982 166.28 44.1997 166.191 44.1423 166.074C44.085 165.958 44.0731 165.824 44.1092 165.7C44.1501 165.575 44.2374 165.473 44.3522 165.414C44.467 165.355 44.6 165.344 44.7223 165.385Z" fill="white"/>
<path d="M119.864 188.144C119.537 188.362 119.209 188.579 118.881 188.805C114.491 191.748 110.343 195.051 106.478 198.68C106.175 198.955 105.871 199.239 105.576 199.523C96.3553 208.367 88.8244 218.88 83.3665 230.527C81.1989 235.164 79.3803 239.962 77.9265 244.88C75.9192 251.672 74.2727 259.2 70.2992 264.755C69.891 265.34 69.4478 265.898 68.9719 266.426H33.0638C32.9822 266.385 32.9002 266.351 32.8182 266.309L31.3845 266.376C31.4421 266.117 31.5073 265.85 31.5649 265.591C31.5977 265.441 31.6385 265.29 31.6713 265.14C31.6957 265.04 31.7205 264.939 31.7369 264.847C31.7449 264.814 31.7533 264.781 31.7613 264.755C31.7777 264.664 31.8025 264.58 31.8189 264.496C32.1794 263.001 32.5507 261.506 32.933 260.01C32.933 260.002 32.933 260.002 32.941 259.993C35.8824 248.606 39.7819 237.369 45.2299 227.093C45.3939 226.784 45.5575 226.467 45.7379 226.158C48.2188 221.54 51.0657 217.136 54.2501 212.991C56.0009 210.727 57.863 208.555 59.8293 206.483C64.9198 201.139 70.8029 196.645 77.2629 193.166C90.1418 186.231 105.052 183.575 118.816 187.81C119.168 187.919 119.512 188.028 119.864 188.144Z" fill="#F0F0F0"/>
<path d="M119.784 188.609C101.903 192.231 85.5954 201.506 73.1779 215.117C70.5351 218.049 68.1043 221.258 66.4759 224.9C64.9154 228.462 64.3187 232.385 64.7478 236.261C65.0767 239.884 65.8245 243.551 65.2841 247.192C64.7145 251.03 62.4798 254.17 59.3487 256.305C55.5177 258.916 50.9951 259.968 46.5373 260.84C41.5877 261.808 36.4316 262.734 32.3007 265.886C31.8002 266.268 31.2482 265.454 31.748 265.073C38.9351 259.587 48.5663 260.738 56.4286 256.866C60.0974 255.059 63.2543 252.114 64.1632 247.927C64.9579 244.266 64.1899 240.484 63.8258 236.819C63.4435 232.971 63.7041 229.271 65.1097 225.646C66.5475 221.938 68.8603 218.625 71.4181 215.636C77.2677 208.903 84.1191 203.15 91.7211 198.588C100.369 193.332 109.835 189.623 119.709 187.622C120.32 187.498 120.391 188.486 119.784 188.609Z" fill="white"/>
<path d="M76.9233 210.494C74.9668 208.059 73.9226 204.995 73.9772 201.848C74.0319 198.7 75.1817 195.676 77.2215 193.313C77.6358 192.837 78.3815 193.471 77.9666 193.948C76.0632 196.144 74.9924 198.962 74.9474 201.893C74.9024 204.824 75.8862 207.674 77.7213 209.93C78.1195 210.421 77.3192 210.982 76.9233 210.494Z" fill="white"/>
<path d="M64.3438 234.447C70.617 235.139 76.9155 233.395 81.9836 229.562C82.4854 229.182 83.0376 229.996 82.5363 230.376C77.2551 234.355 70.6968 236.156 64.1704 235.421C63.5484 235.35 63.7252 234.377 64.3438 234.447Z" fill="white"/>
<path d="M100.534 194.634C101.099 195.736 101.923 196.679 102.933 197.377C103.943 198.074 105.107 198.505 106.321 198.631C106.944 198.693 106.766 199.667 106.148 199.605C104.807 199.46 103.522 198.982 102.405 198.214C101.287 197.446 100.371 196.41 99.7364 195.197C99.6672 195.088 99.6414 194.956 99.6642 194.828C99.6869 194.7 99.7566 194.586 99.8591 194.508C99.9651 194.434 100.095 194.406 100.222 194.429C100.348 194.453 100.461 194.526 100.534 194.634Z" fill="white"/>
<path d="M-22.6412 266.97H412.467C412.608 266.97 412.744 266.913 412.844 266.811C412.944 266.709 413 266.571 413 266.426C413 266.282 412.944 266.144 412.844 266.042C412.744 265.94 412.608 265.883 412.467 265.883H-22.467C-22.6083 265.883 -22.7439 265.94 -22.8439 266.042C-22.9438 266.144 -23 266.282 -23 266.426C-23 266.727 -22.9355 266.97 -22.6412 266.97Z" fill="#CACACA"/>
<path d="M260.386 314.802H356.501C356.643 314.802 356.778 314.744 356.878 314.643C356.978 314.541 357.034 314.402 357.034 314.258C357.034 314.114 356.978 313.976 356.878 313.874C356.778 313.772 356.643 313.715 356.501 313.715H260.56C260.419 313.715 260.283 313.772 260.183 313.874C260.083 313.976 260.027 314.114 260.027 314.258C260.027 314.558 260.091 314.802 260.386 314.802Z" fill="#CACACA"/>
<path d="M109.545 336H205.66C205.802 336 205.937 335.943 206.037 335.841C206.137 335.739 206.193 335.601 206.193 335.456C206.193 335.312 206.137 335.174 206.037 335.072C205.937 334.97 205.802 334.913 205.66 334.913H109.719C109.577 334.913 109.442 334.97 109.342 335.072C109.242 335.174 109.186 335.312 109.186 335.456C109.186 335.757 109.25 336 109.545 336Z" fill="#CACACA"/>
<path d="M18.9334 314.258H115.049C115.19 314.258 115.326 314.201 115.426 314.099C115.526 313.997 115.582 313.859 115.582 313.715C115.582 313.571 115.526 313.432 115.426 313.33C115.326 313.228 115.19 313.171 115.049 313.171H19.1076C18.9662 313.171 18.8306 313.228 18.7307 313.33C18.6307 313.432 18.5746 313.571 18.5746 313.715C18.5746 314.015 18.6391 314.258 18.9334 314.258Z" fill="#CACACA"/>
<path d="M235.371 293.604C241.342 293.604 246.808 293.02 251.151 291.641C256.313 290.002 259.554 287.351 260.786 283.757C261.364 282.23 261.537 280.575 261.286 278.959C261.036 277.343 260.371 275.823 259.359 274.553C251.722 264.406 225.221 261.544 221.666 261.205L214.452 247.276C213.99 243.952 216.174 241.436 212.401 241.373L167.77 240.755C164.065 240.676 165.116 243.016 164.482 246.256L157.682 258.635L186.947 271.23L182.523 282.225L182.811 282.397C191.377 287.463 216.008 293.603 235.371 293.604Z" fill="#2F2E41"/>
<path d="M161.733 259.163C161.733 259.163 120.862 254.394 123.528 273.472C126.193 292.551 157.291 306.065 204.382 273.472L199.051 263.933C199.051 263.933 181.503 263.043 170.84 258.273L161.733 259.163Z" fill="#2F2E41"/>
<path d="M219.596 172.729C219.596 172.729 227.364 171.289 229.483 183.531C231.602 195.774 234.995 224.773 234.995 224.773L245.532 262.024C246.775 262.697 247.804 263.717 248.5 264.964C249.196 266.211 249.53 267.634 249.462 269.067C249.394 270.501 248.928 271.885 248.118 273.058C247.307 274.231 246.187 275.144 244.886 275.692C243.586 276.24 242.159 276.399 240.773 276.151C239.387 275.903 238.099 275.258 237.06 274.291C236.02 273.324 235.271 272.076 234.901 270.691C234.532 269.307 234.555 267.844 234.971 266.473L220.871 226.937L218.184 192.896V175.059C218.184 174.576 218.316 174.101 218.566 173.69C218.815 173.278 219.172 172.945 219.596 172.729Z" fill="#FEB8B8"/>
<path d="M164.918 172.729C164.918 172.729 157.15 171.289 155.032 183.531C152.913 195.774 149.519 224.773 149.519 224.773L138.982 262.024C137.74 262.697 136.71 263.717 136.014 264.964C135.318 266.211 134.985 267.634 135.053 269.067C135.12 270.501 135.587 271.885 136.397 273.058C137.207 274.231 138.328 275.144 139.628 275.692C140.929 276.24 142.355 276.399 143.741 276.151C145.127 275.903 146.415 275.258 147.455 274.291C148.495 273.324 149.243 272.076 149.613 270.691C149.983 269.307 149.959 267.844 149.544 266.473L163.643 226.937L166.331 192.896V175.059C166.331 174.576 166.198 174.101 165.949 173.69C165.7 173.278 165.343 172.945 164.918 172.729Z" fill="#FEB8B8"/>
<path d="M165.51 162.61L180.204 157.005L208.684 156.631L220.943 162.61L217.5 182.789C217.5 182.789 224.452 194.793 216.798 206.799L215.08 249.577C215.08 249.577 187.622 265.814 164.444 246.315L169.683 206.542C169.683 206.542 160.921 188.089 167.712 181.233L165.51 162.61Z" fill="#3BCD84"/>
<path d="M171.495 168.88L165.51 162.609C165.51 162.609 152.449 169.615 152.718 193.048L169.194 187.87L171.495 168.88Z" fill="#3BCD84"/>
<path d="M214.295 168.88L220.653 162.396C220.653 162.396 231.872 171.246 231.603 194.679L216.595 187.87L214.295 168.88Z" fill="#3BCD84"/>
<path d="M172.846 277.429C172.846 277.429 177.423 267.609 185.066 272.316C192.71 277.024 206.773 284.843 206.773 284.843C206.773 284.843 210.063 290.45 202.88 288.975C195.697 287.501 172.624 286.35 172.624 286.35L172.846 277.429Z" fill="#FEB8B8"/>
<path d="M185.561 101.887C185.497 101.823 185.429 101.766 185.365 101.702C181.275 97.5307 180.446 91.6138 183.514 88.4857C186.413 85.5296 191.752 86.1262 195.782 89.7204C199.238 86.3655 203.871 85.4302 206.871 87.7462C210.329 90.4167 210.302 96.3937 206.81 101.096C206.571 101.418 206.32 101.722 206.062 102.015C210.709 103.75 214.721 106.898 217.556 111.034C220.39 115.171 221.91 120.095 221.91 125.141V148.579C221.91 149.266 221.778 149.947 221.52 150.582C221.262 151.217 220.884 151.794 220.407 152.279C219.931 152.765 219.365 153.151 218.742 153.414C218.12 153.677 217.452 153.812 216.778 153.812H174.3C172.985 153.812 171.723 153.279 170.793 152.331C169.863 151.382 169.34 150.096 169.34 148.754V125.141C169.341 120.027 170.903 115.04 173.81 110.873C176.717 106.706 180.824 103.565 185.561 101.887Z" fill="#2F2E41"/>
<path d="M180.701 145.453C172.829 137.426 172.829 124.411 180.701 116.383C188.573 108.356 201.336 108.356 209.208 116.383C217.08 124.411 217.08 137.426 209.208 145.453C201.336 153.481 188.573 153.481 180.701 145.453Z" fill="#FFB6B6"/>
<path d="M216.135 117.989C211.529 121.226 206.061 122.949 200.467 122.927C202.463 124.338 204.735 125.291 207.126 125.72C199.688 127.347 192.001 127.391 184.545 125.85C182.888 125.579 181.289 125.018 179.818 124.194C179.085 123.777 178.447 123.207 177.944 122.521C177.441 121.835 177.086 121.05 176.901 120.215C176.405 117.328 178.61 114.706 180.902 112.939C184.411 110.275 188.457 108.439 192.747 107.565C197.037 106.691 201.464 106.8 205.707 107.884C208.478 108.615 211.254 109.849 213.054 112.118C214.854 114.387 215.387 117.886 213.672 120.222L216.135 117.989Z" fill="#2F2E41"/>
<path d="M323.951 76.9694L323.315 76.0961L306.393 88.8965C307.313 86.0383 310.568 76.9773 315.904 73.3619C322.279 69.0429 326.764 70.3864 329.207 74.1369C331.651 77.8875 331.128 82.6245 324.753 86.9438C319.349 90.6051 309.723 90.096 306.914 89.856L323.951 76.9694Z" fill="#F2F2F2"/>
<path d="M69.3344 6.88783L68.5487 7.62296L82.793 23.455C79.9097 22.8195 70.734 20.4605 66.6529 15.4244C61.7775 9.40802 62.6214 4.71933 66.0251 1.8509C69.4289 -1.01752 74.1032 -0.979528 78.9789 5.03689C83.1118 10.1368 83.6166 19.9532 83.6746 22.8266L69.3344 6.88783Z" fill="#F2F2F2"/>
<path d="M299.061 175.93L298.275 176.665L312.519 192.497C309.636 191.862 300.46 189.503 296.379 184.467C291.504 178.45 292.348 173.761 295.751 170.893C299.155 168.025 303.829 168.063 308.705 174.079C312.838 179.179 313.343 188.995 313.401 191.869L299.061 175.93Z" fill="#F2F2F2"/>
<path d="M178.613 25.0302L177.69 25.5748L188.243 44.1721C185.562 42.9161 177.103 38.5906 174.186 32.7741C170.701 25.8253 172.518 21.4334 176.45 19.383C180.381 17.3325 184.937 18.3998 188.422 25.3486C191.376 31.2388 189.789 40.9345 189.236 43.7528L178.613 25.0302Z" fill="#F2F2F2"/>
<path d="M80.0068 141.349L79.084 141.893L89.6363 160.49C86.9558 159.235 78.4969 154.909 75.5796 149.092C72.0945 142.144 73.9121 137.752 77.8433 135.701C81.7746 133.651 86.3304 134.718 89.8157 141.667C92.7701 147.557 91.1825 157.253 90.6301 160.071L80.0068 141.349Z" fill="#F2F2F2"/>
</g>
<defs>
<clipPath id="clip0_83_76">
<rect width="436" height="336" fill="white" transform="matrix(-1 0 0 1 413 0)"/>
</clipPath>
</defs>
</svg>
