<svg width="242" height="256" viewBox="0 0 242 256" fill="none" xmlns="http://www.w3.org/2000/svg">
<g clip-path="url(#clip0_83_357)">
<path d="M80.7763 256C124.139 256 159.291 247.475 159.291 236.959C159.291 226.442 124.139 217.917 80.7763 217.917C37.414 217.917 2.2619 226.442 2.2619 236.959C2.2619 247.475 37.414 256 80.7763 256Z" fill="#3F3D56"/>
<path d="M17.9279 232.375C17.9279 232.375 3.37019 227.505 0.623604 227.865C-2.12298 228.224 4.78458 211.165 9.3849 213.245C13.9852 215.326 20.119 220.798 23.6252 213.069C27.1314 205.34 29.0985 201.179 33.37 201.595C37.6416 202.011 43.5571 198.27 47.8258 201.595C52.0945 204.92 55.0933 209.021 60.989 208.845C66.8846 208.668 72.4742 192.028 77.066 198.686C81.6578 205.343 87.1652 211.433 91.482 209.218C95.7989 207.004 100.725 210.333 104.668 214.077C108.611 217.822 115.513 216.158 118.14 213.245C120.768 210.333 122.743 208.252 128.327 208.661C133.911 209.07 151.657 214.07 158.231 220.298C164.804 226.525 149.688 234.445 142.457 234.445C135.226 234.445 133.914 236.941 127.67 240.686C121.425 244.431 111.23 238.605 104.01 244.847C96.791 251.088 87.5705 241.518 75.0989 244.847C62.6273 248.175 65.2406 252.749 58.01 249.431C50.7793 246.113 53.4096 244.847 42.8938 244.022C32.378 243.197 20.8786 246.102 19.8922 240.693C18.9058 235.284 12.3412 234.036 8.39568 232.371C4.45012 230.707 17.9279 232.375 17.9279 232.375Z" fill="#3F3D56"/>
<path d="M199.254 187.494L199.82 187.042L199.988 186.908C198.747 186.646 197.614 185.866 196.777 184.696C195.94 183.527 195.447 182.037 195.381 180.473C195.315 178.909 195.679 177.364 196.414 176.091C197.148 174.819 198.208 173.896 199.421 173.473L199.392 176.316L200.648 173.223C201.375 173.181 202.102 173.317 202.787 173.625C203.472 173.932 204.102 174.404 204.64 175.014C205.178 175.624 205.615 176.36 205.924 177.18C206.234 178 206.411 178.888 206.445 179.792C206.445 179.926 206.445 180.053 206.445 180.184C206.887 179.585 207.256 178.908 207.539 178.174C208.072 176.696 208.08 175.029 208.04 172.997C207.955 168.978 207.816 164.926 207.635 160.885C206.324 160.705 205.108 159.948 204.205 158.752C203.303 157.555 202.773 155.997 202.712 154.358C202.703 154.15 202.703 153.942 202.712 153.734C202.712 153.681 202.712 153.628 202.712 153.579C202.712 153.378 202.737 153.18 202.763 152.983C202.761 152.951 202.761 152.919 202.763 152.888C202.782 152.722 202.811 152.56 202.842 152.398C202.842 152.338 202.868 152.278 202.879 152.218C202.919 152.041 202.961 151.865 203.012 151.696C203.029 151.639 203.046 151.587 203.066 151.53C203.106 151.403 203.148 151.28 203.193 151.156C203.216 151.093 203.239 151.026 203.264 150.962L203.284 150.913C203.871 149.474 204.844 148.336 206.035 147.697C207.226 147.058 208.559 146.958 209.803 147.415L209.767 151.114L211.008 148.06C211.812 148.637 212.487 149.456 212.971 150.442C213.454 151.427 213.731 152.549 213.774 153.702C213.797 154.3 213.756 154.899 213.653 155.483C213.653 155.532 213.63 155.578 213.621 155.628C213.613 155.677 213.585 155.811 213.565 155.899C213.545 155.987 213.511 156.128 213.48 156.252C213.449 156.375 213.434 156.421 213.409 156.506C213.383 156.59 213.327 156.745 213.284 156.858C213.259 156.925 213.236 156.996 213.21 157.066C213.14 157.243 213.063 157.419 212.981 157.588C212.953 157.648 212.918 157.704 212.89 157.761C212.831 157.874 212.771 157.99 212.706 158.113C212.641 158.237 212.624 158.247 212.581 158.311C212.539 158.374 212.459 158.501 212.394 158.593C212.329 158.685 212.301 158.72 212.252 158.783C212.204 158.847 212.116 158.96 212.043 159.044L211.898 159.214L211.646 159.475L211.515 159.602C211.382 159.721 211.249 159.834 211.107 159.954L211.028 160.011C210.911 160.099 210.791 160.18 210.668 160.254L210.509 160.342C210.41 160.398 210.308 160.455 210.203 160.501L210.022 160.582C209.92 160.628 209.818 160.666 209.713 160.702L209.526 160.762C209.412 160.797 209.296 160.825 209.18 160.85H209.157C209.233 162.556 209.301 164.262 209.361 165.966C209.691 165.122 210.157 164.37 210.729 163.758C211.301 163.145 211.968 162.685 212.688 162.404C213.409 162.124 214.168 162.03 214.918 162.127C215.669 162.225 216.396 162.513 217.054 162.973L216.076 166.315L218.091 163.907C219.172 165.136 219.816 166.848 219.883 168.667C219.908 169.306 219.86 169.946 219.741 170.568C219.49 171.917 218.918 173.141 218.1 174.081C217.282 175.02 216.255 175.631 215.154 175.833C214.053 176.036 212.928 175.822 211.926 175.218C210.924 174.614 210.091 173.648 209.537 172.447C209.537 172.62 209.537 172.8 209.537 172.966C209.574 174.757 209.619 176.986 208.902 178.96C208.389 180.243 207.698 181.403 206.861 182.388C206.357 183.026 205.835 183.643 205.302 184.242C204.775 185.12 204.088 185.829 203.298 186.312C202.42 187.154 201.511 187.943 200.572 188.678L200.081 189.123C199.554 189.532 199.013 189.948 198.483 190.381L198.766 190.353C199.941 190.285 201.102 190.683 202.083 191.49C203.064 192.297 203.813 193.471 204.222 194.842L200.759 198.368L204.571 197.268C204.568 198.432 204.328 199.575 203.874 200.593C203.42 201.611 202.767 202.469 201.976 203.089C201.184 203.709 200.279 204.07 199.346 204.138C198.412 204.207 197.479 203.981 196.635 203.481C196.722 203.612 196.807 203.746 196.892 203.88L197.397 204.662C199.665 208.217 200.28 211.588 199.163 214.158L197.805 213.245C198.891 210.742 197.258 207.54 196.187 205.84C196.025 205.583 195.858 205.325 195.691 205.068C194.251 202.843 192.618 200.318 192.658 197.222C192.686 192.554 196.328 189.747 199.254 187.494Z" fill="#F1F1F1"/>
<path d="M171.859 182.793L170.988 182.116C170.903 182.053 170.821 181.986 170.739 181.919C172.596 181.523 174.289 180.353 175.541 178.602C176.792 176.85 177.528 174.622 177.627 172.281C177.726 169.941 177.182 167.628 176.085 165.723C174.988 163.818 173.402 162.434 171.589 161.798L171.632 166.054L169.753 161.425H169.73C168.641 161.361 167.552 161.566 166.527 162.026C165.501 162.487 164.558 163.194 163.752 164.107C162.946 165.021 162.293 166.123 161.83 167.351C161.366 168.578 161.101 169.908 161.051 171.263C161.051 171.46 161.051 171.654 161.051 171.848C160.387 170.949 159.834 169.933 159.41 168.833C158.613 166.626 158.599 164.126 158.661 161.075C158.786 155.053 158.996 148.984 159.268 142.937C161.23 142.665 163.05 141.532 164.4 139.741C165.751 137.95 166.544 135.619 166.638 133.166C166.638 132.848 166.638 132.538 166.638 132.228V131.995C166.621 131.695 166.598 131.399 166.561 131.107C166.561 131.057 166.561 131.011 166.541 130.962C166.507 130.715 166.465 130.472 166.416 130.229C166.399 130.137 166.382 130.049 166.363 129.957C166.303 129.693 166.241 129.435 166.164 129.178C166.142 129.093 166.113 129.012 166.085 128.927C166.025 128.737 165.963 128.554 165.895 128.37C165.858 128.271 165.824 128.176 165.787 128.081C165.777 128.057 165.767 128.032 165.759 128.007C165.095 126.379 164.096 124.999 162.864 124.008C161.631 123.016 160.21 122.45 158.744 122.365C157.821 122.314 156.898 122.452 156.011 122.774L156.065 128.314L154.208 123.73C152.679 124.815 151.469 126.481 150.755 128.483C150.041 130.486 149.861 132.719 150.24 134.858C150.24 134.929 150.271 134.999 150.286 135.073C150.311 135.211 150.339 135.345 150.368 135.479C150.396 135.613 150.453 135.832 150.498 135.99C150.543 136.149 150.566 136.244 150.606 136.368C150.66 136.551 150.725 136.72 150.79 136.907C150.827 137.013 150.861 137.119 150.901 137.221C151.006 137.485 151.119 137.746 151.244 138C151.286 138.092 151.334 138.177 151.38 138.261C151.47 138.434 151.558 138.614 151.663 138.769C151.723 138.871 151.788 138.966 151.85 139.065C151.913 139.164 152.034 139.351 152.134 139.488L152.343 139.774C152.445 139.908 152.55 140.038 152.658 140.165L152.876 140.416C152.998 140.55 153.126 140.68 153.256 140.804C153.321 140.867 153.384 140.934 153.452 140.997C153.647 141.177 153.848 141.35 154.058 141.505C154.098 141.537 154.14 141.562 154.18 141.59C154.356 141.717 154.534 141.84 154.716 141.942L154.957 142.076C155.107 142.161 155.257 142.242 155.413 142.313C155.504 142.359 155.594 142.397 155.697 142.436C155.85 142.5 156.005 142.56 156.161 142.612L156.445 142.704C156.618 142.753 156.791 142.796 156.964 142.835H156.998C156.88 145.388 156.778 147.94 156.691 150.493C156.196 149.229 155.499 148.104 154.642 147.187C153.785 146.271 152.786 145.581 151.707 145.162C150.628 144.743 149.492 144.602 148.367 144.749C147.243 144.895 146.155 145.326 145.169 146.015L146.638 151.015L143.619 147.412C142.817 148.322 142.168 149.421 141.707 150.644C141.247 151.868 140.986 153.192 140.938 154.541C140.899 155.498 140.97 156.456 141.147 157.387C141.525 159.403 142.381 161.231 143.605 162.634C144.828 164.037 146.362 164.949 148.008 165.254C149.654 165.558 151.335 165.239 152.834 164.34C154.332 163.44 155.578 162 156.411 160.208C156.411 160.469 156.411 160.73 156.391 160.987C156.337 163.671 156.266 167.006 157.341 169.986C158.069 172.007 159.242 173.643 160.399 175.113C161.155 176.072 161.933 176.998 162.734 177.892C163.521 179.207 164.548 180.271 165.73 180.995C167.053 182.252 168.416 183.428 169.818 184.521L170.696 185.198C171.484 185.808 172.295 186.436 173.089 187.085C172.95 187.085 172.805 187.049 172.669 187.042C170.91 186.939 169.17 187.535 167.701 188.743C166.232 189.951 165.11 191.709 164.498 193.763L169.682 199.014L163.976 197.37C163.979 199.117 164.337 200.834 165.017 202.361C165.697 203.888 166.678 205.177 167.866 206.106C169.055 207.034 170.413 207.573 171.815 207.673C173.216 207.772 174.615 207.428 175.881 206.672C175.75 206.87 175.623 207.067 175.495 207.268C175.24 207.663 174.985 208.055 174.738 208.443C171.363 213.764 170.424 218.809 172.094 222.66L174.129 221.295C172.502 217.547 174.948 212.752 176.552 210.227C176.793 209.842 177.043 209.458 177.295 209.07C179.452 205.738 181.895 201.958 181.83 197.324C181.691 190.374 176.241 186.182 171.859 182.793Z" fill="#F1F1F1"/>
<path d="M129.809 236.098C129.809 236.098 119.999 232.868 118.151 233.105C116.303 233.341 120.955 222.054 124.053 223.429C127.151 224.804 131.286 228.429 133.647 223.312C136.008 218.196 137.332 215.442 140.215 215.717C143.097 215.992 147.077 213.513 149.954 215.717C152.831 217.921 154.849 220.633 158.823 220.516C162.797 220.4 166.558 209.384 169.656 213.788C172.754 218.192 176.459 222.23 179.367 220.763C182.275 219.296 185.603 221.5 188.253 223.979C190.903 226.458 195.557 225.358 197.323 223.429C199.089 221.5 200.424 220.125 204.188 220.4C207.952 220.675 219.905 223.979 224.333 228.112C228.76 232.244 218.576 237.474 213.706 237.474C208.837 237.474 207.95 239.127 203.743 241.606C199.537 244.085 192.675 240.227 187.805 244.36C182.936 248.493 176.737 242.156 168.324 244.36C159.911 246.564 161.683 249.593 156.81 247.389C151.938 245.185 153.712 244.36 146.629 243.81C139.546 243.26 131.796 245.185 131.13 241.606C130.464 238.027 126.028 237.198 123.384 236.098C120.739 234.998 129.809 236.098 129.809 236.098Z" fill="#3F3D56"/>
<path d="M211.056 198.023L207.258 212.505L207.094 213.136L200.736 237.382L189.852 246.532L136.998 218.884L142.006 193.686L142.273 192.36L144.954 178.872L144.96 178.84L161.229 176.309L211.056 198.023Z" fill="#F8CE6D"/>
<path opacity="0.1" d="M211.056 198.023L200.736 237.382L189.852 246.532L199.843 203.58L144.954 178.872L144.96 178.84L161.229 176.309L211.056 198.023Z" fill="black"/>
<path opacity="0.1" d="M156.813 181.573L155.938 180.91L164.719 179.764L202.337 196.309L201.277 197L164.166 180.72L156.813 181.573Z" fill="black"/>
<path opacity="0.1" d="M207.258 212.505L196.272 218.933L142.273 192.36L142.006 193.686L196.053 219.878L207.094 213.136" fill="black"/>
<path d="M148.794 188.385C149.104 187.145 148.482 185.802 147.406 185.386C146.33 184.971 145.206 185.639 144.896 186.88C144.587 188.12 145.208 189.463 146.285 189.879C147.361 190.295 148.485 189.626 148.794 188.385Z" fill="#3F3D56"/>
<path d="M196.388 211.311C196.698 210.07 196.076 208.727 195 208.312C193.923 207.896 192.8 208.564 192.49 209.805C192.18 211.045 192.802 212.388 193.878 212.804C194.955 213.22 196.078 212.551 196.388 211.311Z" fill="#3F3D56"/>
<path d="M188.867 239.783C189.176 238.542 188.555 237.199 187.478 236.783C186.402 236.368 185.278 237.036 184.968 238.277C184.659 239.517 185.28 240.86 186.357 241.276C187.433 241.692 188.557 241.023 188.867 239.783Z" fill="#3F3D56"/>
<path d="M142.972 215.894C143.281 214.653 142.66 213.311 141.583 212.895C140.507 212.479 139.383 213.148 139.074 214.388C138.764 215.629 139.385 216.971 140.462 217.387C141.538 217.803 142.662 217.134 142.972 215.894Z" fill="#3F3D56"/>
<path d="M151.391 180.321C151.278 180.78 150.368 180.321 149.211 179.87C148.055 179.419 147.153 178.925 147.267 178.459C147.38 177.994 148.469 177.754 149.625 178.202C150.782 178.65 151.507 179.863 151.391 180.321Z" fill="#3F3D56"/>
<path d="M157.214 178.669C157.328 178.212 156.57 177.512 155.52 177.107C154.471 176.701 153.527 176.744 153.413 177.201C153.299 177.659 154.057 178.358 155.106 178.764C156.156 179.169 157.099 179.127 157.214 178.669Z" fill="#3F3D56"/>
<path d="M175.869 191.471C175.756 191.929 174.619 191.506 173.517 191.08C172.414 190.653 171.555 190.177 171.669 189.719C171.782 189.26 172.828 189.013 173.936 189.426C175.045 189.838 175.988 191.006 175.869 191.471Z" fill="#3F3D56"/>
<path d="M199.384 201.976C199.256 202.49 198.049 202.043 196.878 201.591C195.708 201.14 194.798 200.621 194.925 200.107C195.053 199.592 196.173 199.278 197.343 199.729C198.514 200.181 199.514 201.461 199.384 201.976Z" fill="#3F3D56"/>
<path d="M206.26 200.741C206.13 201.256 204.925 200.808 203.755 200.357C202.584 199.906 201.671 199.387 201.802 198.872C201.932 198.358 203.049 198.044 204.22 198.495C205.39 198.947 206.388 200.227 206.26 200.741Z" fill="#3F3D56"/>
<path d="M209.65 198.227C209.52 198.742 208.517 198.375 207.559 198.002C206.6 197.628 205.858 197.176 205.974 196.662C206.09 196.147 207.057 195.766 208.023 196.14C208.99 196.514 209.778 197.712 209.65 198.227Z" fill="#3F3D56"/>
<path d="M186.944 187.924C186.842 188.333 185.81 187.955 184.829 187.571C183.848 187.187 183.063 186.757 183.168 186.348C183.273 185.939 184.208 185.702 185.2 186.083C186.192 186.464 187.043 187.511 186.944 187.924Z" fill="#3F3D56"/>
<path d="M164.875 178.257C164.99 177.8 164.348 177.145 163.442 176.795C162.536 176.445 161.709 176.532 161.595 176.99C161.48 177.447 162.122 178.102 163.028 178.452C163.934 178.802 164.761 178.715 164.875 178.257Z" fill="#3F3D56"/>
<path opacity="0.1" d="M175.138 205.311C175.259 204.827 175.243 204.306 175.094 203.834C174.944 203.362 174.67 202.968 174.316 202.716C174.485 202.478 174.611 202.198 174.687 201.894C174.779 201.526 174.793 201.135 174.727 200.758C174.661 200.382 174.518 200.033 174.311 199.746C174.104 199.459 173.841 199.243 173.547 199.121C173.254 198.998 172.939 198.972 172.635 199.045C172.755 198.533 172.723 197.985 172.545 197.5C172.368 197.015 172.056 196.625 171.668 196.401C171.279 196.177 170.838 196.134 170.426 196.28C170.014 196.425 169.657 196.75 169.421 197.194C169.19 196.987 168.924 196.851 168.643 196.797C168.361 196.743 168.074 196.774 167.804 196.886C167.534 196.998 167.29 197.188 167.091 197.441C166.892 197.694 166.744 198.002 166.66 198.34C166.66 198.389 166.64 198.435 166.632 198.481L166.57 198.52C166.371 198.297 166.134 198.132 165.877 198.038C165.62 197.944 165.35 197.923 165.085 197.976C164.821 198.029 164.57 198.155 164.35 198.345C164.13 198.535 163.947 198.784 163.814 199.073C163.682 199.363 163.603 199.685 163.584 200.018C163.565 200.35 163.606 200.683 163.704 200.993C163.802 201.303 163.955 201.582 164.151 201.808C164.347 202.035 164.582 202.204 164.838 202.303C164.93 202.34 165.025 202.366 165.121 202.381L165.144 203.199L173.721 207.561L173.664 206.856C174.002 206.799 174.321 206.624 174.582 206.35C174.843 206.077 175.036 205.716 175.138 205.311Z" fill="black"/>
<path opacity="0.1" d="M173.134 212.314C172.951 212.767 172.648 213.129 172.277 213.34C171.906 213.551 171.489 213.598 171.093 213.474C171.084 213.791 171.019 214.102 170.903 214.384C170.798 214.646 170.652 214.879 170.474 215.071C170.295 215.262 170.089 215.408 169.865 215.5C169.642 215.592 169.406 215.628 169.171 215.607C168.936 215.585 168.707 215.507 168.497 215.375C168.234 215.21 168.008 214.968 167.836 214.67C167.636 215.139 167.307 215.504 166.91 215.698C166.512 215.892 166.072 215.904 165.668 215.729C165.264 215.555 164.924 215.208 164.708 214.749C164.493 214.29 164.416 213.751 164.492 213.228C164.295 213.194 164.103 213.12 163.925 213.009C163.501 212.744 163.179 212.28 163.029 211.719C162.88 211.158 162.916 210.547 163.128 210.019L163.185 209.888L163.162 209.807C162.903 209.797 162.649 209.717 162.417 209.571C161.991 209.302 161.668 208.835 161.52 208.27C161.371 207.706 161.409 207.091 161.625 206.561C161.841 206.032 162.217 205.63 162.67 205.445C163.124 205.26 163.618 205.307 164.044 205.576C164.128 205.628 164.208 205.688 164.285 205.756L164.755 205.188L173.384 209.479L172.95 209.938C173.159 210.271 173.287 210.672 173.319 211.093C173.352 211.513 173.288 211.937 173.134 212.314Z" fill="black"/>
<path opacity="0.1" d="M167.868 200.512L165.784 208.912C165.631 209.527 165.672 210.193 165.9 210.772C166.129 211.351 166.526 211.799 167.012 212.025C167.27 212.145 167.545 212.197 167.82 212.18C168.095 212.163 168.365 212.076 168.612 211.925C168.859 211.774 169.079 211.561 169.258 211.301C169.437 211.041 169.572 210.737 169.653 210.41L171.737 202.007C171.816 201.681 171.842 201.339 171.812 201C171.782 200.661 171.698 200.334 171.563 200.037C171.428 199.74 171.247 199.481 171.029 199.274C170.811 199.067 170.562 198.917 170.297 198.834C169.796 198.675 169.266 198.76 168.814 199.072C168.362 199.384 168.024 199.9 167.868 200.512Z" fill="black"/>
<path d="M167.958 201.023L166.068 208.555C165.929 209.107 165.966 209.705 166.172 210.224C166.377 210.743 166.734 211.144 167.17 211.345C167.402 211.451 167.648 211.498 167.895 211.483C168.141 211.467 168.383 211.389 168.604 211.253C168.826 211.118 169.023 210.927 169.183 210.694C169.344 210.46 169.464 210.189 169.537 209.895L171.416 202.36C171.489 202.066 171.514 201.757 171.487 201.452C171.461 201.146 171.385 200.851 171.265 200.583C171.144 200.315 170.98 200.081 170.784 199.894C170.588 199.707 170.363 199.572 170.124 199.497C169.675 199.361 169.201 199.444 168.798 199.727C168.396 200.011 168.096 200.474 167.958 201.023Z" fill="#3F3D56"/>
<path d="M143.313 239.952C143.313 239.952 133.503 236.722 131.655 236.962C129.807 237.202 134.458 225.908 137.556 227.286C140.654 228.665 144.79 232.283 147.151 227.167C149.512 222.05 150.835 219.3 153.718 219.575C156.601 219.85 160.58 217.371 163.457 219.575C166.334 221.779 168.352 224.487 172.326 224.37C176.3 224.254 180.061 213.238 183.162 217.646C186.263 222.054 189.965 226.084 192.873 224.621C195.781 223.157 199.109 225.358 201.756 227.836C204.404 230.315 209.064 229.212 210.827 227.286C212.59 225.361 213.925 223.979 217.689 224.254C221.453 224.529 233.406 227.836 237.833 231.966C242.261 236.095 232.079 241.331 227.207 241.331C222.335 241.331 221.453 242.981 217.247 245.46C213.04 247.939 206.175 244.085 201.306 248.214C196.436 252.343 190.237 246.014 181.825 248.214C173.412 250.415 175.183 253.447 170.314 251.247C165.444 249.046 167.213 248.214 160.13 247.664C153.046 247.114 145.297 249.043 144.634 245.46C143.97 241.878 139.546 241.056 136.887 239.952C134.228 238.849 143.313 239.952 143.313 239.952Z" fill="#3F3D56"/>
<path d="M226.581 230.672C227.431 228.729 226.467 226.345 225.367 224.614C224.268 222.882 222.924 221.087 222.952 218.869C222.995 215.696 225.702 213.823 227.865 212.138C229.47 210.891 230.951 209.41 232.275 207.727C232.831 207.08 233.289 206.316 233.63 205.47C234.078 204.229 234.066 202.818 234.038 201.461C233.945 196.933 233.765 192.409 233.497 187.888" stroke="#3F3D56" stroke-width="4" stroke-miterlimit="10"/>
<path d="M237.609 187.642C237.579 186.813 237.382 186.007 237.035 185.298C236.688 184.589 236.203 184.001 235.625 183.587L234.735 185.78L234.764 183.125C234.338 182.969 233.894 182.903 233.451 182.927C232.668 182.975 231.914 183.311 231.285 183.892C230.655 184.473 230.178 185.272 229.913 186.19C229.648 187.108 229.608 188.103 229.797 189.049C229.986 189.995 230.396 190.851 230.976 191.508C231.555 192.164 232.278 192.593 233.053 192.739C233.828 192.885 234.621 192.742 235.331 192.329C236.04 191.915 236.636 191.249 237.042 190.415C237.448 189.581 237.647 188.616 237.612 187.642H237.609Z" fill="#57B793"/>
<path d="M230.515 221.137C230.098 222.143 229.415 222.94 228.581 223.395C227.748 223.849 226.814 223.933 225.937 223.633C225.059 223.333 224.291 222.667 223.761 221.747C223.232 220.826 222.973 219.707 223.027 218.577C223.082 217.447 223.447 216.374 224.062 215.539C224.676 214.704 225.503 214.158 226.403 213.991C227.303 213.824 228.222 214.047 229.006 214.622C229.789 215.198 230.39 216.091 230.708 217.152L228.222 219.68L230.957 218.894C230.954 219.675 230.803 220.443 230.515 221.137Z" fill="#57B793"/>
<path d="M228.551 211.528C227.562 211.614 226.584 211.236 225.808 210.471C225.033 209.705 224.515 208.606 224.357 207.389C224.2 206.173 224.413 204.927 224.956 203.897C225.499 202.866 226.332 202.126 227.292 201.82L227.272 203.859L228.171 201.641C228.693 201.607 229.216 201.703 229.709 201.922C230.202 202.141 230.655 202.48 231.042 202.918C231.429 203.355 231.743 203.884 231.965 204.474C232.188 205.063 232.314 205.701 232.337 206.352C232.361 206.923 232.303 207.494 232.167 208.041C231.928 209.015 231.451 209.874 230.804 210.498C230.156 211.123 229.369 211.482 228.551 211.528Z" fill="#57B793"/>
<path d="M238.207 203.534C237.597 203.562 236.989 203.414 236.432 203.102C235.875 202.79 235.383 202.322 234.995 201.734C234.608 201.147 234.334 200.456 234.196 199.716C234.058 198.975 234.059 198.205 234.2 197.465C234.341 196.725 234.617 196.036 235.006 195.451C235.396 194.865 235.89 194.4 236.448 194.091C237.006 193.782 237.614 193.637 238.225 193.668C238.835 193.7 239.432 193.906 239.968 194.271L239.265 196.669L240.71 194.941C241.485 195.823 241.947 197.052 241.994 198.358C242.013 198.816 241.98 199.276 241.895 199.722C241.699 200.771 241.232 201.711 240.566 202.399C239.901 203.088 239.072 203.486 238.207 203.534Z" fill="#57B793"/>
<path opacity="0.1" d="M237.074 188.96C236.155 189.084 235.262 189.44 234.341 189.511C233.42 189.581 232.408 189.31 231.827 188.417C231.513 187.938 231.354 187.331 231.09 186.806C230.838 186.318 230.494 185.915 230.087 185.632C229.847 186.256 229.715 186.936 229.7 187.627C229.685 188.319 229.786 189.007 229.999 189.647C230.211 190.286 230.529 190.863 230.932 191.34C231.335 191.816 231.814 192.182 232.338 192.414C232.862 192.646 233.42 192.738 233.974 192.684C234.529 192.63 235.068 192.432 235.557 192.103C236.046 191.773 236.474 191.319 236.813 190.77C237.152 190.222 237.394 189.591 237.524 188.918C237.375 188.925 237.225 188.939 237.074 188.96Z" fill="black"/>
<path opacity="0.1" d="M238.207 203.534C237.523 203.572 236.842 203.39 236.23 203.005C235.619 202.619 235.098 202.044 234.717 201.335C234.336 200.626 234.11 199.807 234.058 198.956C234.007 198.106 234.133 197.254 234.423 196.482C234.74 196.742 235.014 197.076 235.228 197.466C235.512 197.998 235.685 198.615 236.019 199.102C236.637 200.008 237.694 200.304 238.655 200.251C239.616 200.198 240.543 199.856 241.49 199.747C241.623 199.747 241.773 199.722 241.892 199.719C241.697 200.768 241.231 201.708 240.565 202.397C239.9 203.086 239.072 203.485 238.207 203.534Z" fill="black"/>
<path opacity="0.1" d="M228.551 211.528C227.871 211.57 227.195 211.393 226.586 211.016C225.978 210.639 225.457 210.073 225.074 209.374C224.692 208.674 224.461 207.864 224.402 207.021C224.344 206.178 224.46 205.331 224.741 204.56C225.072 204.827 225.36 205.168 225.591 205.565C225.9 206.108 226.093 206.736 226.442 207.237C227.113 208.164 228.242 208.492 229.259 208.464C230.277 208.436 231.192 208.136 232.17 208.041C231.93 209.016 231.454 209.875 230.805 210.499C230.157 211.124 229.37 211.483 228.551 211.528Z" fill="black"/>
<path opacity="0.1" d="M230.515 221.137C230.084 222.333 229.29 223.267 228.305 223.735C227.321 224.202 226.228 224.163 225.267 223.628C224.305 223.093 223.554 222.104 223.179 220.88C222.803 219.655 222.834 218.295 223.264 217.099C223.591 217.367 223.884 217.694 224.134 218.069C224.514 218.64 224.764 219.293 225.2 219.832C226.014 220.826 227.326 221.243 228.497 221.274C229.171 221.278 229.845 221.232 230.515 221.137Z" fill="black"/>
<path d="M220.58 228.432C220.58 228.432 223.721 228.312 224.667 227.473C225.614 226.634 229.486 225.636 229.732 226.98C229.979 228.323 234.449 233.679 230.906 233.7C227.363 233.722 222.669 233.016 221.725 232.29C220.781 231.564 220.58 228.432 220.58 228.432Z" fill="#656380"/>
<path opacity="0.2" d="M230.977 233.235C227.431 233.27 222.74 232.53 221.796 231.825C221.076 231.278 220.79 229.325 220.693 228.422H220.589C220.589 228.422 220.787 231.574 221.722 232.301C222.658 233.027 227.357 233.736 230.903 233.711C231.926 233.711 232.278 233.249 232.261 232.579C232.111 232.974 231.731 233.225 230.977 233.235Z" fill="black"/>
<path d="M58.163 63.182C58.1427 62.9253 58.1728 62.6663 58.2509 62.4274C58.4805 61.9196 59.0814 62.0571 59.5349 62.2017C61.3603 62.7729 63.282 62.2546 65.1584 62.3886C67.0348 62.5226 69.1522 63.6897 69.5292 65.9817C70.8926 64.7801 72.0675 63.2778 72.9957 61.5493C73.5172 60.5796 73.9707 59.4689 73.8999 58.3053C73.7978 56.6268 72.6669 55.3715 71.6181 54.3066L68.5002 51.133C68.0902 50.6631 67.6161 50.2882 67.1 50.0258C66.3801 49.719 65.5921 49.8636 64.8325 49.8636C62.5649 49.8636 60.1358 48.5801 58.112 49.8636C57.2616 50.4031 56.6324 51.327 56.0201 52.2297L53.231 56.3377C53.0204 56.5989 52.8671 56.9231 52.786 57.2791C52.7067 57.7799 52.9136 58.2735 52.9844 58.7778C53.1177 59.6946 52.7974 60.6713 53.044 61.5529C53.4493 63.0162 54.875 63.2243 55.748 64.06C56.074 64.3738 56.5842 65.4317 56.9697 65.4211C57.6613 65.4105 58.1432 63.8554 58.163 63.182Z" fill="#3F3D56"/>
<path d="M58.6222 72.9917C58.591 74.1342 58.0553 75.1498 57.5394 76.0983C56.8506 77.3607 56.1222 78.6724 55.0338 79.3776C60.504 82.9708 66.8761 83.8067 72.8285 81.712C73.7837 81.3594 74.9118 80.6259 74.8551 79.3882C73.7213 79.0039 72.5478 78.6054 71.5841 77.7556C70.4333 76.7401 69.6737 75.1603 69.1833 73.5242C68.693 71.8881 68.4436 70.1391 68.1006 68.4359C68.0781 68.2613 68.0173 68.0978 67.9249 67.9634C67.7688 67.8245 67.5771 67.7617 67.3863 67.7871L63.6108 67.7025C62.0604 67.7025 60.3767 67.6567 58.9368 68.4747C57.1454 69.4973 58.6732 71.0947 58.6222 72.9917Z" fill="#FFC0C6"/>
<path opacity="0.1" d="M58.6222 72.9917C58.591 74.1342 58.0553 75.1498 57.5394 76.0983C56.8506 77.3607 56.1222 78.6724 55.0338 79.3776C60.504 82.9708 66.8761 83.8067 72.8285 81.712C73.7837 81.3594 74.9118 80.6259 74.8551 79.3882C73.7213 79.0039 72.5478 78.6054 71.5841 77.7556C70.4333 76.7401 69.6737 75.1603 69.1833 73.5242C68.693 71.8881 68.4436 70.1391 68.1006 68.4359C68.0781 68.2613 68.0173 68.0978 67.9249 67.9634C67.7688 67.8245 67.5771 67.7617 67.3863 67.7871L63.6108 67.7025C62.0604 67.7025 60.3767 67.6567 58.9368 68.4747C57.1454 69.4973 58.6732 71.0947 58.6222 72.9917Z" fill="black"/>
<path d="M55.3371 233.87C54.4074 235.633 53.1914 237.124 52.171 238.806C51.1506 240.488 50.2974 242.449 50.2861 244.554C50.2725 244.688 50.2831 244.824 50.3169 244.952C50.3507 245.08 50.407 245.197 50.4816 245.294C50.5977 245.388 50.7319 245.44 50.87 245.446L54.8099 246.074C55.4088 246.203 56.0192 246.23 56.6239 246.151C57.2749 245.991 57.9021 245.707 58.4833 245.309C58.9274 245.092 59.3141 244.726 59.6001 244.251C59.79 243.863 59.841 243.387 60.0224 242.992C60.5695 241.797 61.947 241.849 63.0411 242.057C63.3557 238.422 62.5479 234.797 61.7458 231.278C61.7112 231.062 61.6364 230.859 61.5275 230.686C61.3843 230.514 61.2074 230.393 61.0145 230.333C60.0706 229.949 57.7889 228.443 56.9952 229.148C56.4142 229.67 55.8076 232.935 55.3371 233.87Z" fill="#575A88"/>
<path d="M74.3335 241.038C75.0903 240.598 75.8982 240.03 76.7145 240.263C77.8653 240.584 78.3783 242.276 79.3562 243.084C79.9571 243.588 80.6997 243.736 81.4168 243.852C83.6253 244.208 85.851 244.371 88.0778 244.342C88.7893 244.342 89.6849 244.131 89.8578 243.285C90.0307 242.438 89.376 241.765 88.7949 241.324C87.5337 240.362 86.2189 239.512 84.8607 238.782C84.1931 238.475 83.5619 238.058 82.9843 237.54C82.0121 236.564 81.5387 235.033 81.1051 233.577C80.7564 232.406 80.4361 229.878 79.7218 228.993C78.9395 228.037 77.8879 228.672 76.9072 228.94C75.3823 229.356 73.5966 229.645 72.6159 231.348C71.1816 233.842 70.079 243.489 74.3335 241.038Z" fill="#575A88"/>
<path d="M51.7968 128.515C50.4948 132.501 49.7786 136.746 49.6823 141.047C49.6143 144.259 49.8921 147.461 50.1727 150.656C50.6205 155.827 51.0703 160.999 51.5219 166.171C51.6661 168.321 51.938 170.456 52.3354 172.557C52.8257 174.902 53.6222 177.141 54.1919 179.447C55.955 186.633 55.4533 194.384 54.2883 201.757C54.1333 202.566 54.0515 203.394 54.0445 204.225C54.0786 205.47 54.464 206.655 54.7135 207.861C56.2384 215.213 52.7294 223.376 55.0196 230.428C55.0777 230.68 55.2052 230.898 55.3796 231.045C55.4946 231.099 55.6172 231.123 55.7399 231.117C55.8626 231.11 55.983 231.072 56.0939 231.007C56.7463 230.724 57.3725 230.355 57.9618 229.906C59.1956 231.764 60.7896 233.2 62.5933 234.078C63.9368 233.665 64.1891 231.634 64.6284 230.002C64.9633 228.842 65.236 227.655 65.4447 226.451C65.639 224.972 65.7385 223.477 65.7423 221.98L66.9045 171.079L66.8194 186.612C66.7789 187.87 66.8425 189.129 67.0093 190.371C67.1794 191.404 67.4912 192.395 67.6698 193.428C67.922 194.906 67.8909 196.436 67.8795 197.949C67.8088 206.92 68.4689 215.878 69.8495 224.684C70.303 227.569 70.8472 230.481 72.0065 233.038C72.0446 233.155 72.1018 233.261 72.1745 233.35C72.2472 233.438 72.3337 233.507 72.4288 233.552C72.6754 233.619 72.9022 233.376 73.0892 233.161C74.209 231.93 75.6083 231.16 77.0942 230.96C78.58 230.759 80.0794 231.136 81.3857 232.04C81.1362 230.545 82.2814 228.806 81.4622 227.671C81.227 227.343 80.8755 227.184 80.6119 226.899C80.0903 226.345 79.9656 225.414 79.8919 224.564C79.5702 220.782 79.5702 216.968 79.8919 213.185C80.2916 208.457 81.1901 203.689 80.5268 199.01C80.045 195.614 78.7468 192.31 79.0047 188.893C79.1748 186.601 80.0308 184.489 80.6204 182.307C83.1941 172.765 80.6204 162.13 82.4826 152.334C82.9106 150.084 83.5569 147.651 82.7802 145.553L83.9622 145.105L81.5076 138.134C80.986 136.65 80.4418 135.123 79.5235 133.98C77.9815 132.073 75.6771 131.561 73.5257 131.159L56.0258 127.764C54.4754 127.45 52.3836 126.724 51.7968 128.515Z" fill="#3C354C"/>
<path d="M62.8143 72.9424C66.9518 72.9424 70.3058 68.7698 70.3058 63.6227C70.3058 58.4756 66.9518 54.303 62.8143 54.303C58.6769 54.303 55.3229 58.4756 55.3229 63.6227C55.3229 68.7698 58.6769 72.9424 62.8143 72.9424Z" fill="#FFC0C6"/>
<path d="M58.7299 74.7196C58.3665 74.4521 57.9374 74.3581 57.5224 74.4551C57.3184 74.5454 57.1271 74.6751 56.9555 74.8395L53.4125 77.9284C52.9045 78.3207 52.4517 78.8139 52.0718 79.3882C51.4652 80.4144 51.3688 81.779 51.4482 83.0484C51.6239 85.9116 52.5536 88.6127 53.0582 91.4125C53.5627 94.2122 53.5627 97.407 52.1115 99.6496C51.8619 99.9713 51.6535 100.339 51.4935 100.739C51.4071 101.081 51.3678 101.439 51.3773 101.797C51.3248 103.137 51.3476 104.481 51.4454 105.817C51.6041 107.541 52.0123 109.216 52.2333 110.926C52.6217 113.839 52.5168 116.826 52.8172 119.742C52.8039 119.937 52.8233 120.133 52.8742 120.318C52.9252 120.504 53.0066 120.674 53.1132 120.818C53.2199 120.961 53.3494 121.076 53.4937 121.154C53.6379 121.233 53.7937 121.273 53.951 121.272C55.703 121.591 57.4725 121.736 59.2429 121.706C61.2923 121.706 63.3387 121.565 65.3852 121.431L74.6992 120.821C74.8319 120.842 74.9667 120.827 75.0941 120.776C75.2216 120.726 75.3387 120.642 75.4372 120.529C75.5358 120.417 75.6134 120.279 75.6646 120.125C75.7158 119.971 75.7394 119.806 75.7338 119.639C76.5501 114.766 77.3721 109.805 76.9866 104.854C76.7372 101.656 75.9889 98.5565 75.286 95.4676C74.7191 92.964 74.1748 90.337 74.6 87.7876C74.8835 86.1056 75.5722 84.5505 75.7508 82.8509C75.854 81.9664 75.7921 81.0642 75.57 80.2143C75.3478 79.3643 74.9713 78.5894 74.4696 77.9496C73.4266 76.7048 71.9045 76.2323 70.8642 74.984C70.5786 74.5804 70.2677 74.2054 69.9345 73.8627C69.7645 73.6941 69.5599 73.5882 69.344 73.5571C69.128 73.5259 68.9094 73.5707 68.7129 73.6864C68.5211 73.8556 68.3623 74.0761 68.248 74.3317C67.341 76.0454 65.9804 78.8699 64.0672 78.4256C61.998 77.9637 60.5525 75.8127 58.7299 74.7196Z" fill="#3BCD84"/>
<path d="M77.4486 137.725C76.7854 138.342 76.2922 139.439 76.5983 140.394C77.4994 140.595 78.4282 140.434 79.2514 139.936C79.7814 139.615 80.4418 139.164 80.901 139.629C81.0497 139.807 81.1649 140.024 81.2383 140.264C81.735 141.574 82.3371 142.818 83.0354 143.977C83.5399 143.681 84.0699 143.356 84.3732 142.775C84.5562 142.378 84.6747 141.941 84.7219 141.488C84.8997 140.353 85.0312 139.208 85.1158 138.057C85.1754 137.221 85.1867 136.294 84.7275 135.673C82.7576 133.028 79.0841 136.205 77.4486 137.725Z" fill="#FFC0C6"/>
<path d="M57.6953 59.6839C57.6751 59.4284 57.7053 59.1706 57.7832 58.9329C58.0128 58.4251 58.6137 58.5802 59.0672 58.7037C60.8926 59.2784 62.8144 58.7601 64.6908 58.8941C66.5672 59.0281 68.6845 60.1952 69.0615 62.4872C70.4253 61.285 71.6011 59.7829 72.5309 58.0548C73.0524 57.0851 73.5059 55.9744 73.4351 54.8108C73.333 53.1323 72.2021 51.877 71.1533 50.8121L68.0354 47.6385C67.6253 47.1697 67.1511 46.796 66.6352 46.5348C65.9153 46.2281 65.1273 46.3726 64.3676 46.3726C62.1001 46.3726 59.6709 45.0891 57.6471 46.3726C56.7968 46.9157 56.1676 47.8395 55.5525 48.7422L52.7662 52.8502C52.5557 53.1109 52.4017 53.4335 52.3184 53.7882C52.239 54.2889 52.4459 54.7861 52.5196 55.2868C52.65 56.2036 52.3325 57.1839 52.5763 58.0654C52.9816 59.5288 54.4102 59.7333 55.2832 60.5725C55.6092 60.8864 56.1165 61.9442 56.5049 61.9301C57.1936 61.916 57.6755 60.361 57.6953 59.6839Z" fill="#3F3D56"/>
<path d="M76.1958 78.5878C76.9801 78.3574 77.7943 78.3324 78.5868 78.5146C79.3792 78.6967 80.1326 79.0819 80.7989 79.6456C82.9418 81.4722 83.8233 84.808 84.5688 87.9039L86.2382 94.847C86.9695 97.8901 87.7065 100.961 87.8766 104.131C88.0325 107.012 87.715 109.897 87.3975 112.756C86.9582 116.716 87.9928 121.057 88.007 125.052C88.007 129.636 87.9843 134.499 86.1079 138.452C86.03 138.106 85.8863 137.788 85.6889 137.526C85.4916 137.264 85.2464 137.065 84.9741 136.946C84.431 136.715 83.8614 136.596 83.2876 136.593L78.299 136.195C78.724 135.301 79.0899 134.366 79.393 133.399C81.3063 127.284 80.5722 120.45 79.8097 113.962C79.7496 113.344 79.6549 112.731 79.5263 112.129C79.0234 109.814 78.9086 107.396 79.189 105.023C79.3031 103.951 79.3326 102.866 79.2768 101.786C79.2682 101.33 79.1903 100.881 79.0472 100.461C78.9005 100.115 78.7154 99.797 78.4974 99.5156L77.4883 98.1052C77.4061 93.8385 76.8676 89.5401 76.3347 85.3228C76.076 83.0924 76.0294 80.8318 76.1958 78.5878Z" fill="#3BCD84"/>
<path d="M66.3943 97.4281C61.5487 92.7507 58.3208 85.949 57.3694 78.4115C57.205 77.075 56.777 75.3296 55.6914 75.3754C55.3625 75.4188 55.0462 75.5564 54.7673 75.7774L50.8331 78.4009C50.5518 78.543 50.3124 78.7892 50.1472 79.1061C49.8892 79.7338 50.2549 80.4566 50.5695 81.042C52.6868 85.0266 52.8371 90.0866 52.9221 94.861C52.9476 96.2715 52.9561 97.756 52.4091 98.9902C51.9641 99.9881 51.1902 100.722 50.7821 101.748C50.3994 102.71 50.3824 103.825 50.3711 104.9C50.2917 112.573 50.2124 120.257 50.5355 127.922C50.5837 129.079 50.6574 130.292 51.1534 131.272C51.6154 132.179 52.3779 132.764 53.1148 133.317L59.0814 137.803C60.2151 138.66 61.3943 139.531 62.7066 139.806C64.019 140.081 65.5184 139.615 66.2724 138.251C66.638 137.588 66.7996 136.78 67.1511 136.107C67.5025 135.433 68.1743 134.887 68.7724 135.186C69.1975 135.398 69.43 135.952 69.6227 136.463C70.0025 137.44 70.3993 138.441 71.0201 139.206C71.6408 139.971 72.5394 140.486 73.3925 140.264C74.1295 140.063 74.7049 139.368 75.2349 138.705C76.8732 136.664 78.5286 134.594 79.7332 132.122C79.9065 131.835 79.9965 131.483 79.9883 131.124C79.9109 130.775 79.7591 130.458 79.549 130.207C78.795 129.058 78.4974 127.552 78.2735 126.092C76.0314 111.423 79.1975 96.1763 77.4543 81.4017C77.2559 79.7091 76.8194 78.1541 75.799 77.0081C74.7786 75.862 73.5087 75.1321 72.2587 74.4198C71.8477 74.1871 71.3772 73.9473 70.9577 74.1589C70.2633 74.5115 70.2605 75.6998 70.3115 76.6272C70.3705 78.5277 70.2946 80.431 70.0847 82.3149L69.4753 89.2932C69.4171 90.3591 69.2572 91.4126 68.9991 92.4315C68.4632 94.3314 67.5701 96.0445 66.3943 97.4281Z" fill="#575A88"/>
<path d="M31.641 41.9861C31.641 41.9861 29.4783 44.1723 26.9245 38.4388C24.3707 32.7052 12.0379 18.925 12.0379 18.925C12.0379 18.925 10.4421 17.109 16.505 14.0835C22.5679 11.0581 30.8474 0 30.8474 0C30.8474 0 44.6625 15.2789 46.0145 22.8461C47.3666 30.4132 44.4074 31.6967 39.3281 35.7166C34.2487 39.7364 31.641 41.9861 31.641 41.9861Z" fill="#3F3D56"/>
<path d="M71.2355 115.161L36.3717 36.9966L39.3309 35.7166L73.6051 113.543C73.6913 113.74 73.7451 113.957 73.7633 114.18C73.7814 114.403 73.7636 114.629 73.7108 114.844C73.658 115.059 73.5714 115.258 73.4559 115.431C73.3404 115.603 73.1984 115.745 73.0382 115.849C72.7249 116.049 72.3613 116.089 72.0246 115.96C71.6879 115.832 71.4048 115.545 71.2355 115.161Z" fill="#656380"/>
<path d="M56.9187 95.2066C57.8314 92.7771 56.896 89.9738 56.2724 87.4067C55.7756 85.3666 55.4796 83.259 55.3909 81.1301C55.3315 80.4603 55.3915 79.7825 55.5666 79.1449C55.6593 78.8287 55.8227 78.5521 56.0377 78.3478C56.2527 78.1434 56.5102 78.0199 56.7798 77.9918C57.5937 79.5066 57.9186 81.3474 57.6896 83.1471C58.2178 82.9777 58.7535 82.847 59.2939 82.7557C59.9947 82.6385 60.7061 82.8329 61.303 83.3044C61.8998 83.776 62.3437 84.4945 62.5564 85.3333C63.4549 88.9159 63.761 92.7383 62.5082 96.0881C62.1088 97.0795 61.6453 98.0288 61.1221 98.9267L58.3897 103.892C58.2027 104.244 57.9731 104.597 57.6443 104.657C57.3155 104.717 56.9725 104.346 56.7316 104.004C55.9011 102.837 54.4272 101.138 54.5887 99.5297C54.7503 97.9217 56.3744 96.6347 56.9187 95.2066Z" fill="#FFC0C6"/>
<path d="M50.6035 80.231C47.8286 79.8395 44.6511 80.774 43.1999 83.7571C42.4714 85.2628 42.29 87.0682 42.1625 88.8172C41.9839 91.2679 41.879 93.7256 41.7798 96.1798L41.2441 109.1C41.1789 110.644 41.1166 112.192 41.0939 113.737C41.0293 114.944 41.1339 116.156 41.4029 117.319C41.7458 118.571 42.4261 119.629 43.1035 120.658C43.781 121.688 44.6285 122.75 45.6234 122.45C46.0305 122.283 46.4004 121.999 46.7033 121.621L48.9708 119.181C50.5128 117.534 52.0717 115.863 53.2452 113.797C53.8121 112.802 54.2769 111.727 54.8495 110.739C56.5332 107.834 59.1239 105.63 60.011 102.224C59.1607 102.167 57.9249 101.818 57.5337 100.88C57.3268 100.383 57.2985 99.7906 57.0689 99.3146C56.7202 98.5882 55.9351 98.1933 55.8189 97.3611C53.591 99.5931 51.7259 102.185 49.9459 104.967L50.6687 101.473C50.7193 101.144 50.8288 100.835 50.989 100.566C51.2426 100.29 51.5295 100.065 51.8393 99.8999C52.7208 99.237 53.0553 97.8653 53.2339 96.603C54.0307 90.9285 53.0924 85.0884 50.6035 80.231Z" fill="#3BCD84"/>
</g>
<defs>
<clipPath id="clip0_83_357">
<rect width="242" height="256" fill="white"/>
</clipPath>
</defs>
</svg>
