<svg width="313" height="248" viewBox="0 0 313 248" fill="none" xmlns="http://www.w3.org/2000/svg">
<g clip-path="url(#clip0_83_290)">
<path d="M233.486 245.021C229.154 241.371 226.522 235.604 227.212 229.99C227.903 224.376 232.177 219.216 237.722 218.023C243.266 216.831 249.587 220.131 251.271 225.532C252.198 215.12 253.266 204.271 258.817 195.404C263.844 187.374 272.551 181.629 281.988 180.602C291.424 179.574 301.359 183.456 307.244 190.882C313.129 198.309 314.57 209.106 310.449 217.632C307.412 223.914 301.818 228.588 295.957 232.391C277.017 244.576 254.302 249.531 231.99 246.345" fill="#F2F2F2"/>
<path d="M297.913 183.671C290.127 189.995 282.984 197.067 276.587 204.787C266.577 216.826 258.476 230.324 252.568 244.811C252.135 245.868 253.856 246.328 254.284 245.283C263.951 221.739 279.384 200.987 299.171 184.926C300.06 184.204 298.794 182.955 297.913 183.671Z" fill="white"/>
<path d="M76.5247 247.52H51.954C51.1237 247.519 50.3277 247.189 49.7406 246.604C49.1536 246.019 48.8233 245.225 48.8224 244.397V193.474C48.8233 192.646 49.1536 191.852 49.7406 191.267C50.3277 190.682 51.1237 190.352 51.954 190.351H76.5247C77.3549 190.352 78.1509 190.682 78.738 191.267C79.3251 191.852 79.6553 192.646 79.6562 193.474V244.397C79.6553 245.225 79.3251 246.019 78.738 246.604C78.1509 247.189 77.3549 247.519 76.5247 247.52Z" fill="#3BCD84"/>
<path d="M134.82 248H110.249C109.291 247.999 108.373 247.619 107.695 246.944C107.018 246.268 106.637 245.352 106.636 244.397V145.434C106.637 144.478 107.018 143.563 107.695 142.887C108.373 142.212 109.291 141.832 110.249 141.831H134.82C135.778 141.832 136.696 142.212 137.374 142.887C138.051 143.563 138.432 144.478 138.433 145.434V244.397C138.432 245.352 138.051 246.268 137.374 246.944C136.696 247.619 135.778 247.999 134.82 248ZM110.249 142.791C109.547 142.792 108.873 143.071 108.376 143.566C107.88 144.062 107.6 144.733 107.599 145.434V244.397C107.6 245.097 107.88 245.769 108.376 246.264C108.873 246.76 109.547 247.038 110.249 247.039H134.82C135.523 247.038 136.196 246.76 136.693 246.264C137.19 245.769 137.469 245.097 137.47 244.397V145.434C137.469 144.733 137.19 144.062 136.693 143.566C136.196 143.071 135.523 142.792 134.82 142.791H110.249Z" fill="#3F3D56"/>
<path d="M193.115 248H168.544C167.587 247.999 166.668 247.619 165.991 246.943C165.313 246.268 164.932 245.352 164.931 244.397V82.5006C164.932 81.5454 165.313 80.6295 165.991 79.9541C166.668 79.2786 167.587 78.8986 168.544 78.8976H193.115C194.073 78.8986 194.992 79.2786 195.669 79.9541C196.346 80.6295 196.728 81.5454 196.729 82.5006V244.397C196.728 245.352 196.346 246.268 195.669 246.943C194.992 247.619 194.073 247.999 193.115 248ZM168.544 79.8584C167.842 79.8592 167.168 80.1378 166.672 80.6332C166.175 81.1285 165.896 81.8001 165.895 82.5006V244.397C165.896 245.097 166.175 245.769 166.672 246.264C167.168 246.76 167.842 247.038 168.544 247.039H193.115C193.818 247.038 194.491 246.76 194.988 246.264C195.485 245.769 195.764 245.097 195.765 244.397V82.5006C195.764 81.8001 195.485 81.1285 194.988 80.6332C194.491 80.1378 193.818 79.8592 193.115 79.8584H168.544Z" fill="#3F3D56"/>
<path d="M251.955 247.76H227.384C226.554 247.759 225.758 247.43 225.171 246.844C224.584 246.259 224.253 245.465 224.252 244.637V16.445C224.253 15.6171 224.584 14.8234 225.171 14.238C225.758 13.6526 226.554 13.3233 227.384 13.3224H251.955C252.785 13.3233 253.581 13.6526 254.168 14.238C254.755 14.8234 255.085 15.6171 255.086 16.445V244.637C255.085 245.465 254.755 246.259 254.168 246.844C253.581 247.43 252.785 247.759 251.955 247.76Z" fill="#3BCD84"/>
<path d="M99.1402 106.822C99.2294 106.121 99.1634 105.41 98.9469 104.737C98.7304 104.065 98.3687 103.448 97.8872 102.93C97.4057 102.412 96.8162 102.006 96.1602 101.739C95.5042 101.473 94.7976 101.354 94.0903 101.389L85.5259 85.7236L83.5988 92.4493L89.4663 106.807C89.6049 107.988 90.1732 109.077 91.0634 109.868C91.9537 110.659 93.104 111.097 94.2964 111.099C95.4888 111.101 96.6406 110.666 97.5333 109.878C98.426 109.09 98.9978 108.002 99.1402 106.822Z" fill="#A0616A"/>
<path d="M33.1541 168.676L37.9242 172.149L53.6278 155.454L46.5871 150.328L33.1541 168.676Z" fill="#A0616A"/>
<path d="M43.8906 183.264L28.8977 172.349L33.1267 166.573L42.3269 173.27C43.8632 174.389 44.8911 176.07 45.1843 177.944C45.4776 179.818 45.0122 181.732 43.8906 183.264Z" fill="#2F2E41"/>
<path d="M58.3921 187.058L64.2987 187.058L67.1085 164.341L58.3911 164.341L58.3921 187.058Z" fill="#A0616A"/>
<path d="M75.6901 192.527L57.1268 192.527L57.1265 185.376L68.5176 185.375C70.4198 185.375 72.2441 186.129 73.5892 187.47C74.9343 188.811 75.69 190.63 75.6901 192.527Z" fill="#2F2E41"/>
<path d="M76.1312 98.4543C76.1312 98.4543 79.0218 126.318 71.7952 145.534L66.4956 182.045H57.3418L58.3053 138.808L54.9329 100.376C54.9329 100.376 61.6778 83.0814 76.1312 98.4543Z" fill="#2F2E41"/>
<path d="M44.8156 100.376L54.4512 133.524L35.6618 163.309L45.0565 171.235L66.4956 137.847L60.2325 97.0129L44.8156 100.376Z" fill="#2F2E41"/>
<path d="M69.3882 26.0447C75.9233 26.0447 81.2212 20.762 81.2212 14.2455C81.2212 7.72892 75.9233 2.44623 69.3882 2.44623C62.853 2.44623 57.5552 7.72892 57.5552 14.2455C57.5552 20.762 62.853 26.0447 69.3882 26.0447Z" fill="#A0616A"/>
<path d="M59.5098 30.4771C59.5098 30.4771 66.7365 25.6731 74.9267 36.242L77.0947 102.778C77.0947 102.778 70.8316 94.1307 57.8236 102.298C44.8155 110.464 41.9249 101.337 41.9249 101.337C41.9249 101.337 32.771 32.6389 59.5098 30.4771Z" fill="#CCCCCC"/>
<path d="M74.3438 36.0742C76.4222 36.1862 78.3857 37.0607 79.8565 38.5294C81.3273 39.998 82.2015 41.9572 82.3109 44.0298L83.8396 72.9929L93.957 100.376L88.1756 105.18L69.3862 72.5125L65.5394 45.6612C65.363 44.4305 65.4626 43.1761 65.8307 41.9883C66.1989 40.8006 66.8266 39.709 67.6686 38.7922C68.5106 37.8753 69.546 37.156 70.7002 36.686C71.8545 36.2161 73.0988 36.0071 74.3438 36.0742Z" fill="#CCCCCC"/>
<path d="M60.6934 23.0961C62.6279 25.1509 66.2205 24.0478 66.4726 21.2408C66.4923 21.0228 66.4909 20.8035 66.4683 20.5858C66.3381 19.3424 65.6177 18.2136 65.7903 16.9007C65.8293 16.5739 65.9514 16.2625 66.145 15.996C67.6865 13.9377 71.3051 16.9167 72.76 15.0533C73.652 13.9107 72.6034 12.1118 73.288 10.8348C74.1915 9.14935 76.8677 9.98079 78.5459 9.05775C80.4132 8.03076 80.3015 5.17404 79.0723 3.43644C77.5733 1.31738 74.9451 0.186623 72.3496 0.023646C69.7541 -0.139331 67.1765 0.5603 64.7534 1.50192C62.0003 2.57178 59.2701 4.05038 57.5759 6.46432C55.5155 9.39994 55.3172 13.3466 56.3476 16.7792C56.9745 18.8674 59.1137 21.4182 60.6934 23.0961Z" fill="#2F2E41"/>
<path d="M312.426 247.796H0.573644C0.421791 247.796 0.276304 247.735 0.169083 247.628C0.0618624 247.521 0.00166321 247.376 0.00166321 247.224C0.00166321 247.073 0.0618624 246.927 0.169083 246.82C0.276304 246.713 0.421791 246.653 0.573644 246.652H312.426C312.578 246.653 312.724 246.713 312.831 246.82C312.938 246.927 312.998 247.073 312.998 247.224C312.998 247.376 312.938 247.521 312.831 247.628C312.724 247.735 312.578 247.796 312.426 247.796Z" fill="#3F3D56"/>
</g>
<defs>
<clipPath id="clip0_83_290">
<rect width="313" height="248" fill="white"/>
</clipPath>
</defs>
</svg>
