<svg width="177" height="129" viewBox="0 0 177 129" fill="none" xmlns="http://www.w3.org/2000/svg">
<g filter="url(#filter0_dd_710_4357)">
<path fill-rule="evenodd" clip-rule="evenodd" d="M23.0603 4.54053C14.776 4.54053 8.0603 11.2563 8.0603 19.5405V101.541C8.0603 109.825 14.776 116.541 23.0603 116.541H69.94C69.6354 115.747 69.4744 114.923 69.4744 114.078V65.7543C69.4744 59.6407 77.9078 54.6024 88.1413 54.6024H94.3627V62.0372C94.3637 66.1431 99.9347 69.4713 106.808 69.472H131.696C138.569 69.4713 144.14 66.1431 144.141 62.0372V54.6024H150.363C158.538 54.6024 165.564 57.8176 168.06 62.2276V19.5405C168.06 11.2563 161.345 4.54053 153.06 4.54053H23.0603ZM100.586 54.6024C100.586 52.5494 103.372 50.886 106.808 50.8854H131.697C135.133 50.8854 137.919 52.5494 137.919 54.6024V62.0372C137.919 64.0902 135.133 65.7536 131.697 65.7543H106.808C103.372 65.7543 100.586 64.0902 100.586 62.0372V54.6024ZM142.315 85.3531C141.109 84.653 139.479 84.2753 137.798 84.3045L137.798 84.3043C136.181 84.333 134.648 84.7368 133.521 85.4301V85.4295L113.031 97.6704L104.985 92.8649C103.828 92.143 102.232 91.7298 100.559 91.7192C98.8849 91.7086 97.2754 92.1007 96.091 92.8076C94.9077 93.5147 94.2514 94.4767 94.2691 95.4761C94.2868 96.4763 94.9785 97.4296 96.1869 98.121H96.1858L108.631 105.556C109.798 106.252 111.381 106.644 113.031 106.644C114.681 106.644 116.263 106.252 117.43 105.556V105.555L142.319 90.6862C143.525 89.9862 144.205 89.0241 144.204 88.0191C144.204 87.0147 143.523 86.0526 142.315 85.3531Z" fill="#FFF7D9"/>
<path d="M8.5603 19.5405C8.5603 11.5324 15.0522 5.04053 23.0603 5.04053H153.06C161.068 5.04053 167.56 11.5324 167.56 19.5405V101.541C167.56 109.549 161.068 116.041 153.06 116.041H23.0603C15.0522 116.041 8.5603 109.549 8.5603 101.541V19.5405Z" stroke="#FFF7D9"/>
</g>
<defs>
<filter id="filter0_dd_710_4357" x="0.0603027" y="0.540527" width="176" height="128" filterUnits="userSpaceOnUse" color-interpolation-filters="sRGB">
<feFlood flood-opacity="0" result="BackgroundImageFix"/>
<feColorMatrix in="SourceAlpha" type="matrix" values="0 0 0 0 0 0 0 0 0 0 0 0 0 0 0 0 0 0 127 0" result="hardAlpha"/>
<feOffset dy="4"/>
<feGaussianBlur stdDeviation="4"/>
<feComposite in2="hardAlpha" operator="out"/>
<feColorMatrix type="matrix" values="0 0 0 0 0.443137 0 0 0 0 0.501961 0 0 0 0 0.588235 0 0 0 0.08 0"/>
<feBlend mode="normal" in2="BackgroundImageFix" result="effect1_dropShadow_710_4357"/>
<feColorMatrix in="SourceAlpha" type="matrix" values="0 0 0 0 0 0 0 0 0 0 0 0 0 0 0 0 0 0 127 0" result="hardAlpha"/>
<feOffset/>
<feGaussianBlur stdDeviation="0.5"/>
<feComposite in2="hardAlpha" operator="out"/>
<feColorMatrix type="matrix" values="0 0 0 0 0.443137 0 0 0 0 0.501961 0 0 0 0 0.588235 0 0 0 0.04 0"/>
<feBlend mode="normal" in2="effect1_dropShadow_710_4357" result="effect2_dropShadow_710_4357"/>
<feBlend mode="normal" in="SourceGraphic" in2="effect2_dropShadow_710_4357" result="shape"/>
</filter>
</defs>
</svg>
