<svg width="109" height="109" viewBox="0 0 109 109" fill="none" xmlns="http://www.w3.org/2000/svg">
<mask id="mask0_379_4553" style="mask-type:luminance" maskUnits="userSpaceOnUse" x="9" y="7" width="91" height="95">
<path d="M54.5 9.08301L66.4287 17.7848L81.1959 17.7576L85.7308 31.8095L97.6935 40.4659L93.1042 54.4997L97.6935 68.5334L85.7308 77.1898L81.1959 91.2418L66.4287 91.2145L54.5 99.9164L42.5713 91.2145L27.8041 91.2418L23.2692 77.1898L11.3065 68.5334L15.8958 54.4997L11.3065 40.4659L23.2692 31.8095L27.8041 17.7576L42.5713 17.7848L54.5 9.08301Z" fill="white" stroke="white" stroke-width="4" stroke-linecap="round" stroke-linejoin="round"/>
<path d="M38.6042 54.4997L49.9583 65.8538L72.6667 43.1455" stroke="black" stroke-width="4" stroke-linecap="round" stroke-linejoin="round"/>
</mask>
<g mask="url(#mask0_379_4553)">
<path d="M0 0H109V109H0V0Z" fill="#1E621E"/>
</g>
<path d="M95.0256 14.9062L95.6531 17.1593H97.6837L96.0409 18.5518L96.6684 20.8049L95.0256 19.4124L93.3829 20.8049L94.0103 18.5518L92.3676 17.1593H94.3982L95.0256 14.9062Z" fill="#1E621E"/>
<path d="M11.1795 80.1201L11.807 82.3732H13.8376L12.1948 83.7657L12.8223 86.0187L11.1795 84.6263L9.5367 86.0187L10.1642 83.7657L8.5214 82.3732H10.552L11.1795 80.1201Z" fill="#1E621E"/>
<path d="M88.8181 89.1059L94.0099 91.5851L97.9721 87.4135L97.2186 93.1173L102.41 95.5964L96.753 96.6424L95.9995 102.346L93.2565 97.2889L87.599 98.3349L91.5612 94.1633L88.8181 89.1059Z" fill="#1E621E"/>
<circle cx="18.1667" cy="10.7138" r="4.19231" fill="#1E621E"/>
<circle cx="4.19231" cy="54.5" r="2.32906" fill="#1E621E"/>
<circle cx="70.3376" cy="99.2177" r="2.32906" fill="#1E621E"/>
</svg>
