<svg width="50" height="46" viewBox="0 0 50 46" fill="none" xmlns="http://www.w3.org/2000/svg">
<path d="M43.4405 0.000284613C37.0998 0.940536 30.888 2.88361 25.583 6.45615V38.6738C31.1472 35.7905 37.1001 33.8475 43.4405 33.5341V0.000284613ZM24.4184 43.7507C17.2368 40.366 9.66703 38.1722 1.70808 37.9841C1.2551 37.9841 0.867095 37.6078 0.867095 37.2319V5.07776L0.0907135 5.01517V39.3631C8.69593 39.6764 16.9128 41.8076 24.7416 45.1923C32.635 41.8076 40.7877 39.6763 49.3926 39.3631V5.01517L48.6162 5.07776V37.2319C48.6162 37.6082 48.2928 37.9841 47.8398 37.9841C39.8814 38.1722 32.3114 40.366 25.1294 43.7507C24.9352 43.8763 24.6118 43.8763 24.4177 43.7507H24.4184ZM4.42565 2.63295L2.54948 2.31966V36.4173C10.3137 36.7306 17.754 38.8618 24.7422 42.1839C31.7945 38.8618 39.1706 36.7309 46.9994 36.4173V2.31966L45.1233 2.63295V34.2856C45.1233 34.7245 44.7349 35.0378 44.2823 35.1003C37.2945 35.2259 31.2777 37.4823 25.1957 40.6789C24.6781 41.0552 24.0959 40.5534 23.6429 40.3027C17.949 37.2942 11.8028 35.2255 5.26776 35.1004C4.81478 35.0378 4.42677 34.7241 4.42677 34.2856V2.63297L4.42565 2.63295ZM6.10797 0.000284613V33.5338C12.4486 33.8471 18.4011 35.7902 23.9654 38.6736V6.45586C18.5954 2.88295 12.4483 0.939872 6.10797 0V0.000284613Z" fill="#464AAC"/>
</svg>
