<svg width="20" height="19" viewBox="0 0 20 19" fill="none" xmlns="http://www.w3.org/2000/svg">
<path d="M19.0002 18.5002L14.6572 14.1572M14.6572 14.1572C15.4001 13.4143 15.9894 12.5324 16.3914 11.5618C16.7935 10.5911 17.0004 9.55081 17.0004 8.50021C17.0004 7.4496 16.7935 6.40929 16.3914 5.43866C15.9894 4.46803 15.4001 3.58609 14.6572 2.84321C13.9143 2.10032 13.0324 1.51103 12.0618 1.10898C11.0911 0.706931 10.0508 0.5 9.00021 0.5C7.9496 0.5 6.90929 0.706931 5.93866 1.10898C4.96803 1.51103 4.08609 2.10032 3.34321 2.84321C1.84288 4.34354 1 6.37842 1 8.50021C1 10.622 1.84288 12.6569 3.34321 14.1572C4.84354 15.6575 6.87842 16.5004 9.00021 16.5004C11.122 16.5004 13.1569 15.6575 14.6572 14.1572Z" stroke="#3BCD84" stroke-linecap="round" stroke-linejoin="round"/>
</svg>
