<svg width="18" height="18" viewBox="0 0 18 18" fill="none" xmlns="http://www.w3.org/2000/svg">
<path d="M16.8727 6.91568L13.0139 4.91682L10.9025 1.26349C10.5208 0.608494 9.79321 0.196289 8.99997 0.196289C8.20673 0.196289 7.4791 0.608494 7.09739 1.26349L4.98606 4.91682L1.12722 6.91568C0.429413 7.27706 0 7.96593 0 8.71692C0 9.46791 0.435377 10.1568 1.12722 10.5182L4.98606 12.517L7.09739 16.1647C7.4791 16.8253 8.20673 17.2376 8.99997 17.2319C9.79321 17.2319 10.5208 16.8253 10.9025 16.1647L13.0139 12.5114L16.8727 10.5125C17.5705 10.1511 17.9999 9.46226 17.9999 8.71127C18.0059 7.96593 17.5705 7.27706 16.8727 6.91568Z" fill="#FFF5CB"/>
</svg>
