<svg width="176" height="129" viewBox="0 0 176 129" fill="none" xmlns="http://www.w3.org/2000/svg">
<g filter="url(#filter0_dd_710_4640)">
<rect x="8" y="4.25" width="160" height="112" rx="15" fill="#FEE2FF" fill-opacity="0.65"/>
<rect x="8.6" y="4.85" width="158.8" height="110.8" rx="14.4" stroke="white" stroke-opacity="0.65" stroke-width="1.2"/>
<path d="M151.938 82.2476C151.754 82.3296 151.54 82.3069 151.38 82.1864C151.221 82.0659 151.145 81.8699 151.184 81.6776C151.58 79.7227 151.689 77.7077 151.509 75.6866C151.459 75.1282 151.393 74.5924 151.139 74.1689C150.865 73.7068 150.343 73.3291 149.667 73.1006C149.367 73.0042 149.018 72.9148 148.671 72.836C148.491 72.7985 148.289 72.836 148.128 72.9398C147.981 73.0343 147.882 73.1776 147.85 73.3416C147.109 77.2405 144.673 81.1785 140.991 84.4244C139.162 86.0436 137.144 87.4317 135.052 88.6992L135.048 88.701C133.028 89.9241 130.938 91.0349 128.884 92.1258C122.541 95.4979 115.526 98.3151 108.034 100.503C107.403 100.688 106.902 101.132 106.662 101.723C105.328 104.964 105.055 108.583 105.889 111.917C106.157 113.02 106.599 113.934 107.197 114.636C109.477 117.275 112.806 116.168 115.451 114.905C120.257 112.603 124.787 109.583 129.167 106.662C134.644 103.008 140.309 99.2318 146.598 96.7955C148.149 96.1912 149.755 95.6652 151.308 95.1545C153.341 94.4871 155.442 93.7966 157.422 92.9318C161.477 91.161 164.335 88.8707 165.918 86.1238C166.736 84.6904 167.238 82.7165 166.886 80.9792C166.613 81.5802 166.266 82.1554 165.935 82.7036C164.595 84.9189 162.557 86.8342 160.04 88.2431C159.955 88.2908 159.863 88.3126 159.772 88.3126C159.586 88.3126 159.407 88.2204 159.307 88.0531C159.158 87.8052 159.246 87.4872 159.503 87.344C161.858 86.0246 163.762 84.238 165.008 82.1785C165.983 80.5652 166.638 79.3237 166.175 78.0144C165.876 77.1672 165.2 76.5888 164.58 76.2134C164.574 76.4595 164.559 76.72 164.525 76.992C164.218 79.2601 161.984 82.1256 158.834 84.2963C158.593 84.4636 158.257 84.4085 158.086 84.1749C157.915 83.9413 157.97 83.6174 158.211 83.4514C161.532 81.1644 163.24 78.4945 163.463 76.8613C163.535 76.2884 163.518 75.7379 163.491 75.3778C163.461 74.9356 163.406 74.6427 163.402 74.6284C163.356 74.4416 163.295 74.2233 163.233 74.0254C163.165 73.8118 162.972 73.7557 162.893 73.7418C162.827 73.7284 162.6 73.7075 162.443 73.9036C159.449 77.6398 155.916 80.4469 151.938 82.246L151.938 82.2476Z" fill="#FDFFFE"/>
<path d="M108.321 74.0774C110.885 77.0581 113.825 79.3842 117.087 80.9921C116.821 79.2835 116.767 77.5382 116.926 75.7897C116.984 75.1452 117.072 74.4649 117.442 73.8625C117.845 73.1965 118.58 72.66 119.509 72.3532C119.856 72.2432 120.241 72.1461 120.626 72.0609C121.117 71.9642 121.619 72.0549 122.022 72.3083C122.415 72.5556 122.679 72.9322 122.767 73.3673C123.475 77.0091 125.816 80.698 129.363 83.7557C130.897 85.0878 132.716 86.3722 134.893 87.6787C136.846 86.5046 138.725 85.2275 140.422 83.7571C143.968 80.6971 146.31 77.0096 147.017 73.3711C147.106 72.9332 147.37 72.5562 147.762 72.3093C148.165 72.0559 148.669 71.9657 149.146 72.0587C149.543 72.1457 149.928 72.2433 150.268 72.351C151.204 72.6597 151.939 73.1966 152.344 73.8644C152.71 74.4627 152.799 75.1438 152.859 75.7893C153.018 77.5377 152.964 79.2831 152.697 80.9917C156.067 79.3316 159.092 76.9079 161.713 73.7866C161.736 73.6684 161.758 73.5506 161.776 73.4325L161.821 73.1627C162.183 70.7019 163.287 63.2251 158.046 57.865C155.108 54.8595 151.426 53.2773 147.712 53.4005C143.532 53.5403 140.63 55.6827 139.272 56.9479C138.128 58.0395 137.204 59.3789 136.532 60.9231C136.283 61.5071 135.718 61.8722 135.056 61.8732H135.053C134.386 61.8732 133.791 61.4916 133.536 60.9016C132.889 59.459 131.933 58.1251 130.694 56.9437C129.34 55.6826 126.439 53.5403 122.259 53.4005C118.537 53.2704 114.862 54.8586 111.926 57.8639C108.426 61.4411 107.161 66.5918 108.163 73.1722C108.21 73.475 108.261 73.7778 108.324 74.0742L108.321 74.0774ZM158.504 69.1172C158.436 69.5552 158.338 69.9885 158.213 70.404C158.145 70.6299 157.928 70.7765 157.693 70.7765C157.644 70.7765 157.593 70.7705 157.543 70.7568C157.255 70.6789 157.089 70.3944 157.17 70.1228C157.283 69.7504 157.37 69.3615 157.431 68.9684C157.476 68.6881 157.748 68.487 158.046 68.5355C158.342 68.5768 158.546 68.8374 158.503 69.1173L158.504 69.1172ZM149.73 57.4353C152.693 57.9598 155.41 59.7202 156.997 62.1462C157.529 62.9598 157.939 63.8517 158.215 64.7967C158.295 65.0697 158.125 65.3528 157.837 65.428C157.789 65.4403 157.74 65.4463 157.692 65.4463C157.454 65.4463 157.236 65.2974 157.17 65.0697C156.922 64.2191 156.554 63.4179 156.075 62.6859C154.646 60.5013 152.199 58.915 149.531 58.4441C149.237 58.3918 149.043 58.1239 149.097 57.8458C149.153 57.5677 149.431 57.385 149.729 57.4354L149.73 57.4353Z" fill="#38805D"/>
<path d="M112.64 93.1106C114.643 93.9865 116.765 94.6861 118.818 95.3627L119.773 95.6789C122.958 94.3662 126.025 92.9342 128.943 91.3798C130.76 90.4127 132.601 89.426 134.396 88.3663C132.369 87.0933 130.642 85.8321 129.173 84.5259C125.469 81.2514 123.018 77.2793 122.27 73.3402C122.238 73.1779 122.139 73.0344 121.991 72.939C121.831 72.8352 121.628 72.7987 121.433 72.8361C121.095 72.9137 120.744 73.0035 120.434 73.1031C119.761 73.3313 119.235 73.7139 118.962 74.1759C118.704 74.6075 118.638 75.1467 118.589 75.7094C118.407 77.7478 118.517 79.7822 118.916 81.7546C118.955 81.9483 118.878 82.1465 118.718 82.2681C118.558 82.3897 118.342 82.4126 118.157 82.3299C114.155 80.5145 110.599 77.6819 107.586 73.9118C107.427 73.714 107.2 73.7345 107.135 73.7486C107.055 73.7621 106.861 73.8187 106.79 74.0385C106.73 74.2344 106.668 74.4543 106.616 74.6638C106.616 74.6638 106.561 74.957 106.533 75.3938C106.505 75.7595 106.488 76.3122 106.562 76.8991C106.784 78.5415 108.504 81.237 111.845 83.5449C112.088 83.7123 112.144 84.0392 111.971 84.2749C111.797 84.5096 111.461 84.5648 111.219 84.3974C108.049 82.2069 105.8 79.316 105.492 77.031C105.457 76.7547 105.442 76.4904 105.436 76.2421C104.812 76.6214 104.133 77.2036 103.832 78.0585C103.367 79.3781 104.026 80.6324 105.006 82.2603C106.26 84.3385 108.175 86.1413 110.546 87.4727C110.804 87.6172 110.892 87.938 110.743 88.1882C110.642 88.3556 110.462 88.4501 110.275 88.4501C110.183 88.4501 110.09 88.4281 110.005 88.38C107.473 86.9583 105.422 85.0246 104.073 82.7902C103.74 82.237 103.39 81.6557 103.115 81.0482C102.761 82.8028 103.265 84.795 104.09 86.2437C105.681 89.0136 108.557 91.3243 112.637 93.1111L112.64 93.1106Z" fill="#FDFFFE"/>
<path d="M147.062 97.9798C143.041 99.4886 139.256 101.541 135.604 103.757C137.2 104.75 138.795 105.773 140.343 106.773C144.814 109.659 149.438 112.645 154.347 114.922C157.045 116.169 160.441 117.263 162.768 114.653C163.379 113.961 163.827 113.058 164.1 111.972C164.953 108.674 164.674 105.099 163.315 101.899C163.068 101.313 162.558 100.874 161.914 100.692C157.895 99.5551 154.037 98.2523 150.435 96.8213C149.304 97.1862 148.168 97.5617 147.063 97.9793L147.062 97.9798Z" fill="#FDFFFE"/>
<rect x="8.5" y="4.75" width="159" height="111.5" rx="14.5" stroke="#EDF3DE"/>
<path d="M165.873 11.9157L162.014 9.91682L159.903 6.26349C159.521 5.60849 158.793 5.19629 158 5.19629C157.207 5.19629 156.479 5.60849 156.097 6.26349L153.986 9.91682L150.127 11.9157C149.429 12.2771 149 12.9659 149 13.7169C149 14.4679 149.435 15.1568 150.127 15.5182L153.986 17.517L156.097 21.1647C156.479 21.8253 157.207 22.2376 158 22.2319C158.793 22.2319 159.521 21.8253 159.903 21.1647L162.014 17.5114L165.873 15.5125C166.571 15.1511 167 14.4623 167 13.7113C167.006 12.9659 166.571 12.2771 165.873 11.9157Z" fill="#FFF5CB"/>
<path d="M138.98 41.8369L137.649 41.1465L136.92 39.8874C136.7 39.5069 136.277 39.2676 135.817 39.2676C135.357 39.2676 134.934 39.5029 134.715 39.8874L133.985 41.1465L132.655 41.833C132.253 42.0409 132 42.441 132 42.8764C132 43.3118 132.253 43.7119 132.655 43.9198L133.985 44.6062L134.715 45.8654C134.934 46.2459 135.357 46.4852 135.817 46.4852C136.277 46.4852 136.7 46.2459 136.92 45.8654L137.649 44.6062L138.98 43.9159C139.382 43.708 139.634 43.3079 139.634 42.8725C139.634 42.4488 139.386 42.0487 138.98 41.8369Z" fill="#FFF5CB"/>
<path d="M118.57 54.076L116.502 53.0052L115.37 51.0478C115.126 50.6241 114.657 50.3613 114.148 50.3613C113.638 50.3613 113.17 50.6241 112.925 51.0478L111.793 53.0052L109.725 54.0721C109.278 54.3036 109 54.7468 109 55.2293C109 55.7118 109.278 56.155 109.725 56.3865L111.793 57.4573L112.925 59.4147C113.17 59.8383 113.638 60.1012 114.148 60.1012C114.657 60.1012 115.126 59.8383 115.37 59.4147L116.502 57.4573L118.57 56.3943C119.018 56.1629 119.295 55.7196 119.295 55.2371C119.295 54.7547 119.018 54.3114 118.57 54.08V54.076Z" fill="#FFF5CB"/>
</g>
<defs>
<filter id="filter0_dd_710_4640" x="0" y="0.25" width="176" height="128.5" filterUnits="userSpaceOnUse" color-interpolation-filters="sRGB">
<feFlood flood-opacity="0" result="BackgroundImageFix"/>
<feColorMatrix in="SourceAlpha" type="matrix" values="0 0 0 0 0 0 0 0 0 0 0 0 0 0 0 0 0 0 127 0" result="hardAlpha"/>
<feOffset dy="4"/>
<feGaussianBlur stdDeviation="4"/>
<feComposite in2="hardAlpha" operator="out"/>
<feColorMatrix type="matrix" values="0 0 0 0 0.443137 0 0 0 0 0.501961 0 0 0 0 0.588235 0 0 0 0.08 0"/>
<feBlend mode="normal" in2="BackgroundImageFix" result="effect1_dropShadow_710_4640"/>
<feColorMatrix in="SourceAlpha" type="matrix" values="0 0 0 0 0 0 0 0 0 0 0 0 0 0 0 0 0 0 127 0" result="hardAlpha"/>
<feOffset/>
<feGaussianBlur stdDeviation="0.5"/>
<feComposite in2="hardAlpha" operator="out"/>
<feColorMatrix type="matrix" values="0 0 0 0 0.443137 0 0 0 0 0.501961 0 0 0 0 0.588235 0 0 0 0.04 0"/>
<feBlend mode="normal" in2="effect1_dropShadow_710_4640" result="effect2_dropShadow_710_4640"/>
<feBlend mode="normal" in="SourceGraphic" in2="effect2_dropShadow_710_4640" result="shape"/>
</filter>
</defs>
</svg>
