<svg width="183" height="128" viewBox="0 0 183 128" fill="none" xmlns="http://www.w3.org/2000/svg">
<g filter="url(#filter0_dd_712_4698)">
<rect x="8" y="4" width="163.895" height="112" rx="15" fill="#FFF4DD"/>
</g>
<rect x="8.5" y="4.5" width="162.895" height="111" rx="14.5" stroke="#FFF4DD"/>
<path d="M95.5218 116.577C68.289 113.348 53.9696 96.2023 52.958 74.6179C57.7996 73.6094 64.658 74.416 67.8851 74.8198C69.7011 92.3695 79.5851 108.507 95.5196 116.575L95.5218 116.577Z" fill="white"/>
<path d="M104.6 115.767C86.0412 110.523 71.5176 91.7628 71.7209 68.7676C71.7209 58.2781 74.1416 51.4197 75.1501 48.7971C88.6651 47.9905 95.1205 55.4537 96.5319 57.0678C85.4377 82.8873 91.8924 105.077 104.601 115.769L104.6 115.767Z" fill="white"/>
<path d="M127.797 113.348C112.265 126.863 88.8656 101.648 96.5299 70.3823C101.371 50.0089 113.878 38.3094 117.509 35.0811C138.286 49.8063 151.6 92.5717 127.796 113.348H127.797Z" fill="white"/>
<path d="M131.632 115.365C147.366 100.438 147.366 76.8381 138.894 56.8679C140.911 54.6491 147.367 48.3953 159.873 49.0011C170.159 73.2064 158.662 106.489 131.631 115.366L131.632 115.365Z" fill="white"/>
<path d="M182.061 74.6176C181.859 79.0552 180.245 92.9739 169.554 103.665C162.292 110.927 152.206 115.163 139.497 116.576C154.626 108.911 165.316 93.1759 167.131 74.8201C170.964 74.2145 177.62 73.6088 182.059 74.6173L182.061 74.6176Z" fill="white"/>
<defs>
<filter id="filter0_dd_712_4698" x="0" y="0" width="179.895" height="128" filterUnits="userSpaceOnUse" color-interpolation-filters="sRGB">
<feFlood flood-opacity="0" result="BackgroundImageFix"/>
<feColorMatrix in="SourceAlpha" type="matrix" values="0 0 0 0 0 0 0 0 0 0 0 0 0 0 0 0 0 0 127 0" result="hardAlpha"/>
<feOffset dy="4"/>
<feGaussianBlur stdDeviation="4"/>
<feComposite in2="hardAlpha" operator="out"/>
<feColorMatrix type="matrix" values="0 0 0 0 0.443137 0 0 0 0 0.501961 0 0 0 0 0.588235 0 0 0 0.08 0"/>
<feBlend mode="normal" in2="BackgroundImageFix" result="effect1_dropShadow_712_4698"/>
<feColorMatrix in="SourceAlpha" type="matrix" values="0 0 0 0 0 0 0 0 0 0 0 0 0 0 0 0 0 0 127 0" result="hardAlpha"/>
<feOffset/>
<feGaussianBlur stdDeviation="0.5"/>
<feComposite in2="hardAlpha" operator="out"/>
<feColorMatrix type="matrix" values="0 0 0 0 0.443137 0 0 0 0 0.501961 0 0 0 0 0.588235 0 0 0 0.04 0"/>
<feBlend mode="normal" in2="effect1_dropShadow_712_4698" result="effect2_dropShadow_712_4698"/>
<feBlend mode="normal" in="SourceGraphic" in2="effect2_dropShadow_712_4698" result="shape"/>
</filter>
</defs>
</svg>
