<svg width="39" height="39" viewBox="0 0 39 39" fill="none" xmlns="http://www.w3.org/2000/svg">
<path d="M6.4203 13.3096H3.21014V32.5705C3.21014 33.4219 3.54836 34.2384 4.15038 34.8404C4.7524 35.4424 5.56891 35.7806 6.4203 35.7806H25.6812V32.5705H6.4203V13.3096Z" fill="#7D3A88"/>
<path d="M32.1016 3.67871H12.8406C11.9893 3.67871 11.1727 4.01692 10.5707 4.61894C9.9687 5.22096 9.63049 6.03748 9.63049 6.88887V26.1498C9.63049 27.0012 9.9687 27.8177 10.5707 28.4197C11.1727 29.0217 11.9893 29.3599 12.8406 29.3599H32.1016C32.953 29.3599 33.7695 29.0217 34.3715 28.4197C34.9735 27.8177 35.3117 27.0012 35.3117 26.1498V6.88887C35.3117 6.03748 34.9735 5.22096 34.3715 4.61894C33.7695 4.01692 32.953 3.67871 32.1016 3.67871ZM17.6559 22.9396V10.099L28.8914 16.5193L17.6559 22.9396Z" fill="#7D3A88"/>
</svg>
