<svg width="40" height="39" viewBox="0 0 40 39" fill="none" xmlns="http://www.w3.org/2000/svg">
<path fill-rule="evenodd" clip-rule="evenodd" d="M28.6855 9.57871C28.2666 9.23928 28.212 8.63621 28.5635 8.2319L31.6387 4.69241C31.9905 4.28815 32.615 4.23547 33.0334 4.57459C33.4523 4.91401 33.5072 5.51709 33.1554 5.9214L30.0801 9.46089C29.8842 9.68624 29.6037 9.8025 29.3213 9.8025C29.0967 9.8025 28.8711 9.72894 28.6855 9.5787L28.6855 9.57871ZM20.0032 8.74712C13.8079 8.74712 8.76773 13.6144 8.76773 19.5972C8.76773 25.5798 13.8076 30.4474 20.0032 30.4474C26.1982 30.4474 31.2386 25.58 31.2386 19.5972C31.2386 13.6144 26.1985 8.74712 20.0032 8.74712ZM18.9959 5.57666V0.956228C18.9959 0.428228 19.439 0 19.9861 0C20.5328 0 20.9763 0.427949 20.9763 0.956228V5.57666C20.9763 6.10466 20.5331 6.53289 19.9861 6.53289C19.439 6.53289 18.9959 6.10494 18.9959 5.57666ZM6.82346 5.94289C6.47166 5.53832 6.52685 4.93552 6.94547 4.59608C7.36408 4.25634 7.98862 4.30933 8.34011 4.7139L11.4154 8.2534C11.7672 8.65797 11.712 9.26109 11.2933 9.60021C11.1078 9.75044 10.8822 9.824 10.6575 9.824C10.3748 9.824 10.0946 9.70774 9.89872 9.4824L6.82346 5.94289ZM5.52987 18.1208L0.818303 17.3184C0.279624 17.2268 -0.0799214 16.7309 0.01528 16.2107C0.109845 15.6908 0.623356 15.3439 1.16204 15.4352L5.87394 16.2375C6.41262 16.3291 6.77217 16.825 6.67696 17.3449C6.59241 17.8087 6.17443 18.1351 5.70322 18.1351C5.64577 18.1357 5.588 18.1307 5.5299 18.1207L5.52987 18.1208ZM8.29527 26.1438C8.56865 26.6011 8.40631 27.1858 7.93314 27.4501L3.78962 29.7603C3.63373 29.8473 3.46332 29.8884 3.29548 29.8884C2.95304 29.8884 2.62027 29.7167 2.43725 29.4103C2.16387 28.9527 2.32621 28.3683 2.7997 28.104L6.94322 25.7938C7.41735 25.5301 8.02223 25.6866 8.29522 26.1438H8.29527ZM15.9834 33.1047L14.347 37.4465C14.2007 37.8349 13.8212 38.0758 13.4167 38.0758C13.3041 38.0758 13.1898 38.0574 13.0782 38.0182C12.564 37.8377 12.2994 37.2891 12.4866 36.793L14.123 32.4512C14.3102 31.9549 14.8792 31.6997 15.392 31.8798C15.9055 32.06 16.1705 32.6086 15.9833 33.1048L15.9834 33.1047ZM27.551 36.7814C27.7378 37.2776 27.4732 37.8262 26.959 38.0066C26.8473 38.0459 26.7331 38.0646 26.6208 38.0646C26.2164 38.0646 25.8368 37.8233 25.6902 37.4353L24.0538 33.0935C23.867 32.5973 24.1316 32.0487 24.6458 31.8683C25.1593 31.6881 25.7277 31.9437 25.9145 32.4399L27.551 36.7814ZM37.5859 29.3813C37.4025 29.6883 37.0698 29.8594 36.7276 29.8594C36.5598 29.8594 36.3894 29.818 36.2335 29.7313L32.09 27.4211C31.6165 27.1571 31.4541 26.5724 31.7275 26.1148C32.0009 25.6576 32.6064 25.5011 33.0802 25.7648L37.2237 28.0754C37.6965 28.3394 37.8592 28.9238 37.5858 29.3813H37.5859ZM39.1815 17.2856L34.47 18.088C34.4115 18.0979 34.3538 18.1029 34.2966 18.1029C33.8251 18.1029 33.4074 17.7766 33.3229 17.3128C33.228 16.7926 33.5872 16.297 34.1259 16.2054L38.8378 15.403C39.3775 15.3111 39.89 15.6586 39.9849 16.1785C40.0795 16.6981 39.7199 17.194 39.1816 17.2856H39.1815Z" fill="#E6D694"/>
</svg>
